<svg version="1.2" xmlns="http://www.w3.org/2000/svg" viewBox="0 0 631 390" width="631" height="390">
	<title>Novo Projeto</title>
	<style>
		.s0 { fill: #5bb4f9 } 
		.s1 { fill: #ffffff } 
		.s2 { fill: #ff00ff } 
		.s3 { fill: #ffff00 } 
	</style>
	<path id="# UPSTREAM upstream upstreamexem" class="s0" aria-label="# UPSTREAM
upstream upstreamexemplo.com {
        server 127.0.0.1:8008;
        keepalive 8;
}

server {
        listen 9000;
        server_name $ec2.compute-1.amazonaws.com;

        location / {
            proxy_pass https://upstreamexemplo.com;
            access_log /var/log/nginx/access9000.log;
            error_log /var/log/nginx/error9000.log;
        }
}
"  d="m26.5 23.8h-2.2l-0.7 3.4h2.4v1h-2.6l-0.8 3.8h-1.1l0.8-3.8h-3.3l-0.8 3.8h-1l0.7-3.8h-1.8v-1h2.1l0.7-3.4h-2.3v-1h2.5l0.8-3.8h1l-0.8 3.8h3.4l0.8-3.8h1l-0.8 3.8h2zm-3.2 0h-3.4l-0.7 3.4h3.4zm15.3 8.4q-1.6 0-2.8-0.6-1.2-0.6-1.9-1.7-0.6-1.1-0.6-2.6v-8.4h1.8v8.2q0 1.8 0.9 2.7 0.9 1 2.6 1 1.8 0 2.7-1 1-1 1-2.8v-8.1h1.8v8.2q0 1.6-0.7 2.7-0.7 1.2-1.9 1.8-1.2 0.6-2.9 0.6zm18.6-9.3q0 1.8-1.2 2.9-1.2 1.1-3.3 1.1h-3.8v5.1h-1.8v-13.1h5.5q2.2 0 3.4 1.1 1.2 1 1.2 2.9zm-1.8 0q0-2.5-3-2.5h-3.5v5.1h3.6q2.9 0 2.9-2.6zm14.6 5.5q0 1.8-1.4 2.8-1.4 1-4 1-4.8 0-5.5-3.3l1.7-0.4q0.3 1.2 1.3 1.8 0.9 0.5 2.6 0.5 1.7 0 2.6-0.6 1-0.6 1-1.7 0-0.6-0.3-1-0.3-0.4-0.8-0.7-0.6-0.3-1.3-0.4-0.7-0.2-1.6-0.4-1.6-0.4-2.4-0.7-0.8-0.3-1.3-0.8-0.4-0.4-0.7-0.9-0.2-0.6-0.2-1.3 0-1.7 1.3-2.6 1.3-0.9 3.7-0.9 2.2 0 3.4 0.6 1.1 0.7 1.6 2.4l-1.7 0.3q-0.3-1.1-1.1-1.5-0.8-0.5-2.3-0.5-1.5 0-2.4 0.5-0.8 0.5-0.8 1.6 0 0.6 0.3 1 0.4 0.4 1 0.6 0.6 0.3 2.4 0.7 0.6 0.1 1.2 0.3 0.6 0.1 1.1 0.3 0.6 0.2 1 0.5 0.5 0.3 0.9 0.7 0.3 0.3 0.5 0.9 0.2 0.5 0.2 1.2zm12.1-8h-4.5v11.6h-1.8v-11.6h-4.5v-1.5h10.8zm13.2 11.7h-2l-3.4-5.5h-4.1v5.5h-1.7v-13.1h6.1q2.2 0 3.4 1 1.2 1 1.2 2.7 0 1.5-0.8 2.5-0.9 1-2.4 1.2zm-2.3-9.3q0-1.1-0.8-1.7-0.7-0.6-2.2-0.6h-4.2v4.8h4.3q1.4 0 2.2-0.6 0.7-0.7 0.7-1.9zm15.1 9.3h-10.3v-13h9.9v1.4h-8.2v4.2h7.6v1.4h-7.6v4.6h8.6zm13.4 0h-1.8l-1.5-3.8h-5.9l-1.5 3.8h-1.9l5.3-13.1h2.1zm-6.1-10.9l-0.2-0.8-0.1 0.2q-0.2 0.8-0.7 2l-1.7 4.3h4.9l-1.6-4.3q-0.3-0.6-0.6-1.4zm20.4 10.9h-1.6v-8.7q0-1.4 0.1-2.8-0.5 1.7-0.9 2.6l-3.3 8.9h-1.3l-3.4-8.9-0.5-1.6-0.3-1v1 1.8 8.7h-1.5v-13h2.3l3.5 9q0.2 0.6 0.3 1.2 0.2 0.6 0.3 0.9 0-0.4 0.3-1.1 0.2-0.8 0.3-1l3.4-9h2.3z"/>
	<path id="# UPSTREAM upstream upstreamexem" class="s1" aria-label="# UPSTREAM
upstream upstreamexemplo.com {
        server 127.0.0.1:8008;
        keepalive 8;
}

server {
        listen 9000;
        server_name $ec2.compute-1.amazonaws.com;

        location / {
            proxy_pass https://upstreamexemplo.com;
            access_log /var/log/nginx/access9000.log;
            error_log /var/log/nginx/error9000.log;
        }
}
"  d="m17.2 45h1.7v6.3q0 1 0.2 1.6 0.2 0.5 0.6 0.8 0.5 0.2 1.3 0.2 1.2 0 1.9-0.8 0.7-0.9 0.7-2.3v-5.8h1.6v7.9q0 1.7 0.1 2.1h-1.6q0 0 0-0.3 0-0.2 0-0.4 0-0.3 0-1h-0.1q-0.5 1-1.3 1.5-0.8 0.4-1.9 0.4-1.6 0-2.4-0.8-0.8-0.9-0.8-2.7zm19.1 4.9q0 5.3-3.7 5.3-2.3 0-3.1-1.8 0 0.1 0 1.6v3.9h-1.7v-11.9q0-1.5 0-2h1.6q0 0 0 0.2 0.1 0.2 0.1 0.7 0 0.5 0 0.7 0.5-1 1.2-1.4 0.7-0.4 1.9-0.4 1.9 0 2.8 1.2 0.9 1.3 0.9 3.9zm-1.7 0.1q0-2.1-0.6-3-0.5-0.9-1.8-0.9-1 0-1.5 0.4-0.6 0.4-0.9 1.3-0.3 0.9-0.3 2.3 0 2 0.6 2.9 0.7 0.9 2.1 0.9 1.2 0 1.8-0.9 0.6-0.9 0.6-3zm11.3 2.2q0 1.4-1 2.2-1.1 0.8-3 0.8-1.9 0-2.9-0.6-1-0.7-1.3-2l1.4-0.3q0.3 0.9 0.9 1.2 0.7 0.4 1.9 0.4 1.2 0 1.8-0.4 0.6-0.4 0.6-1.2 0-0.5-0.4-0.9-0.4-0.4-1.3-0.6l-1.2-0.3q-1.4-0.4-2-0.8-0.7-0.3-1-0.8-0.3-0.6-0.3-1.3 0-1.4 0.9-2.1 1-0.7 2.9-0.7 1.7 0 2.6 0.6 1 0.6 1.3 1.9l-1.5 0.1q-0.2-0.6-0.8-1-0.6-0.3-1.6-0.3-1.1 0-1.7 0.3-0.5 0.3-0.5 1 0 0.5 0.2 0.7 0.2 0.3 0.7 0.5 0.4 0.2 1.8 0.6 1.3 0.3 1.9 0.6 0.6 0.3 0.9 0.6 0.4 0.3 0.6 0.8 0.1 0.4 0.1 1zm5.9 1.5v1.2q-0.9 0.2-1.7 0.2-2 0-2-2.2v-6.7h-1.2v-1.2h1.2l0.5-2.3h1.2v2.3h1.8v1.2h-1.8v6.3q0 0.7 0.2 1 0.2 0.3 0.8 0.3 0.3 0 1-0.1zm3.1 1.3h-1.7v-7.7q0-1.1 0-2.3h1.6q0 1.7 0 2h0.1q0.4-1.3 0.9-1.8 0.5-0.4 1.4-0.4 0.4 0 0.7 0.1v1.5q-0.3-0.1-0.9-0.1-1 0-1.6 0.9-0.5 0.9-0.5 2.6zm13.1-4.7h-7.2q0 1.7 0.7 2.7 0.7 0.9 2.1 0.9 1.1 0 1.7-0.4 0.7-0.5 0.9-1.2l1.5 0.5q-0.9 2.3-4.1 2.3-2.2 0-3.4-1.3-1.2-1.3-1.2-3.9 0-2.5 1.2-3.8 1.2-1.4 3.3-1.4 4.5 0 4.5 5.4zm-7.2-1.3h5.4q-0.1-1.6-0.8-2.3-0.6-0.8-1.9-0.8-1.2 0-1.9 0.9-0.7 0.8-0.8 2.2zm11.8 6.1q-1.5 0-2.2-0.8-0.8-0.8-0.8-2.2 0-1.5 1-2.4 1.1-0.8 3.3-0.9h2.3v-0.5q0-1.3-0.5-1.8-0.5-0.5-1.7-0.5-1.1 0-1.6 0.4-0.5 0.3-0.6 1.2l-1.7-0.2q0.4-2.7 4-2.7 1.9 0 2.8 0.9 1 0.8 1 2.5v4.3q0 0.8 0.2 1.1 0.2 0.4 0.7 0.4 0.3 0 0.6-0.1v1.1q-0.7 0.1-1.3 0.1-0.9 0-1.4-0.5-0.4-0.4-0.4-1.5h-0.1q-0.6 1.2-1.5 1.6-0.8 0.5-2.1 0.5zm0.4-1.2q0.9 0 1.7-0.5 0.7-0.4 1.1-1.1 0.4-0.7 0.4-1.5v-0.8h-1.8q-1.2 0-1.8 0.3-0.6 0.2-0.9 0.6-0.4 0.5-0.4 1.3 0 0.8 0.5 1.2 0.4 0.5 1.2 0.5zm15.1 1h-1.6v-6.3q0-1.5-0.4-2-0.4-0.6-1.4-0.6-1.1 0-1.7 0.8-0.6 0.8-0.6 2.3v5.8h-1.7v-7.9q0-1.7-0.1-2.1h1.6q0 0 0 0.2 0 0.3 0 0.5 0.1 0.3 0.1 1 0.6-1.1 1.2-1.5 0.7-0.4 1.7-0.4 1.2 0 1.8 0.5 0.7 0.4 1 1.4 0.5-1 1.3-1.4 0.7-0.5 1.7-0.5 1.6 0 2.3 0.8 0.6 0.9 0.6 2.7v6.7h-1.6v-6.3q0-1.5-0.4-2-0.4-0.6-1.4-0.6-1.1 0-1.7 0.8-0.7 0.8-0.7 2.3zm13.6-10h1.7v6.3q0 1 0.2 1.6 0.2 0.5 0.6 0.8 0.4 0.2 1.3 0.2 1.2 0 1.9-0.8 0.7-0.8 0.7-2.3v-5.8h1.6v7.9q0 1.7 0.1 2.1h-1.6q0 0 0-0.2 0-0.2 0-0.5 0-0.3-0.1-1-0.6 1-1.3 1.5-0.8 0.4-1.9 0.4-1.7 0-2.4-0.8-0.8-0.8-0.8-2.7zm19.1 4.9q0 5.3-3.7 5.3-2.3 0-3.1-1.8 0 0.1 0 1.6v3.9h-1.7v-11.9q0-1.5 0-2h1.6q0 0 0 0.2 0 0.3 0.1 0.7 0 0.5 0 0.7 0.5-0.9 1.2-1.4 0.7-0.4 1.9-0.4 1.9 0 2.8 1.2 0.9 1.3 0.9 3.9zm-1.7 0.1q0-2.1-0.6-3-0.6-0.9-1.8-0.9-1 0-1.6 0.4-0.5 0.4-0.8 1.3-0.3 0.9-0.3 2.3 0 2 0.6 2.9 0.7 1 2.1 1 1.2 0 1.8-1 0.6-0.9 0.6-3zm11.3 2.2q0 1.5-1 2.2-1.1 0.8-3 0.8-1.9 0-2.9-0.6-1.1-0.6-1.4-2l1.5-0.2q0.2 0.8 0.9 1.1 0.7 0.4 1.9 0.4 1.2 0 1.8-0.4 0.6-0.4 0.6-1.1 0-0.6-0.4-1-0.4-0.4-1.3-0.6l-1.2-0.3q-1.5-0.4-2.1-0.8-0.6-0.3-0.9-0.8-0.4-0.5-0.4-1.3 0-1.4 1-2.1 1-0.7 2.9-0.7 1.6 0 2.6 0.6 1 0.6 1.3 1.9l-1.6 0.2q-0.1-0.7-0.7-1.1-0.6-0.3-1.6-0.3-1.2 0-1.7 0.3-0.5 0.4-0.5 1.1 0 0.4 0.2 0.7 0.2 0.2 0.6 0.4 0.5 0.2 1.9 0.6 1.3 0.3 1.9 0.6 0.6 0.3 0.9 0.6 0.4 0.4 0.5 0.8 0.2 0.5 0.2 1zm5.9 1.5v1.2q-0.9 0.3-1.7 0.3-2 0-2-2.3v-6.7h-1.2v-1.2h1.2l0.5-2.3h1.1v2.3h1.9v1.2h-1.9v6.3q0 0.7 0.3 1 0.2 0.3 0.8 0.3 0.3 0 1-0.1zm3.1 1.3h-1.7v-7.7q0-1.1 0-2.3h1.5q0.1 1.7 0.1 2 0.4-1.3 1-1.7 0.5-0.5 1.4-0.5 0.4 0 0.7 0.1v1.5q-0.3-0.1-0.9-0.1-1 0-1.6 0.9-0.5 0.9-0.5 2.6zm13-4.7h-7.1q0 1.7 0.7 2.7 0.7 0.9 2.1 0.9 1.1 0 1.7-0.4 0.7-0.5 0.9-1.1l1.5 0.4q-0.9 2.4-4.1 2.4-2.2 0-3.4-1.4-1.2-1.3-1.2-3.9 0-2.5 1.2-3.8 1.2-1.4 3.3-1.4 4.4 0 4.4 5.4zm-7.1-1.3h5.4q-0.1-1.6-0.8-2.3-0.7-0.7-1.9-0.7-1.2 0-1.9 0.8-0.7 0.8-0.8 2.2zm11.8 6.1q-1.5 0-2.2-0.8-0.8-0.8-0.8-2.2 0-1.5 1-2.3 1-0.9 3.3-0.9l2.3-0.1v-0.5q0-1.2-0.5-1.8-0.6-0.5-1.7-0.5-1.1 0-1.6 0.4-0.5 0.4-0.6 1.2l-1.8-0.2q0.5-2.7 4.1-2.7 1.9 0 2.8 0.9 1 0.9 1 2.5v4.3q0 0.8 0.2 1.2 0.2 0.3 0.7 0.3 0.2 0 0.6 0v1q-0.7 0.1-1.3 0.1-1 0-1.4-0.4-0.4-0.5-0.5-1.6-0.7 1.2-1.5 1.7-0.9 0.4-2.1 0.4zm0.4-1.2q0.9 0 1.6-0.4 0.8-0.5 1.2-1.2 0.4-0.7 0.4-1.5v-0.8h-1.8q-1.2 0.1-1.8 0.3-0.6 0.2-1 0.7-0.3 0.4-0.3 1.2 0 0.8 0.4 1.2 0.5 0.5 1.3 0.5zm15.1 1.1h-1.6v-6.4q0-1.5-0.4-2-0.4-0.6-1.5-0.6-1 0-1.6 0.8-0.7 0.8-0.7 2.3v5.9h-1.6v-7.9q0-1.8-0.1-2.2h1.6q0 0.1 0 0.3 0 0.2 0 0.4 0 0.3 0.1 1 0.5-1 1.2-1.5 0.7-0.4 1.7-0.4 1.2 0 1.8 0.5 0.7 0.4 1 1.4 0.5-1 1.2-1.4 0.8-0.5 1.8-0.5 1.5 0 2.2 0.9 0.7 0.8 0.7 2.7v6.7h-1.6v-6.4q0-1.5-0.4-2-0.4-0.6-1.5-0.6-1.1 0-1.7 0.8-0.6 0.8-0.6 2.3zm16.8-4.6h-7.2q0 1.7 0.8 2.6 0.7 1 2 1 1.1 0 1.8-0.5 0.6-0.4 0.9-1.1l1.4 0.4q-0.9 2.4-4.1 2.4-2.2 0-3.4-1.3-1.1-1.3-1.1-3.9 0-2.5 1.1-3.9 1.2-1.3 3.4-1.3 4.4 0 4.4 5.3zm-7.1-1.2h5.4q-0.2-1.6-0.8-2.3-0.7-0.8-2-0.8-1.2 0-1.9 0.8-0.7 0.8-0.7 2.3zm17.2 5.9h-1.8l-2.7-4.1-2.7 4.1h-1.8l3.5-5.1-3.4-4.9h1.9l2.5 3.9 2.5-3.9h1.8l-3.4 4.8zm10-4.6h-7.2q0 1.7 0.7 2.6 0.7 1 2.1 1 1.1 0 1.7-0.5 0.7-0.4 0.9-1.1l1.5 0.4q-0.9 2.4-4.1 2.4-2.2 0-3.4-1.3-1.2-1.3-1.2-3.9 0-2.5 1.2-3.9 1.2-1.3 3.3-1.3 4.5 0 4.5 5.3zm-7.2-1.2h5.4q-0.1-1.6-0.8-2.3-0.6-0.8-1.9-0.8-1.2 0-1.9 0.8-0.7 0.8-0.8 2.3zm16.8 5.9h-1.7v-6.4q0-1.4-0.4-2-0.4-0.5-1.4-0.5-1.1 0-1.7 0.8-0.6 0.8-0.6 2.3v5.8h-1.7v-7.9q0-1.7 0-2.1h1.5q0 0 0.1 0.2 0 0.2 0 0.5 0 0.3 0 1 0.6-1.1 1.3-1.5 0.7-0.4 1.7-0.4 1.1 0 1.8 0.4 0.6 0.5 0.9 1.5 0.5-1 1.3-1.5 0.7-0.4 1.8-0.4 1.5 0 2.2 0.8 0.7 0.8 0.7 2.7v6.7h-1.7v-6.4q0-1.4-0.4-2-0.4-0.5-1.4-0.5-1.1 0-1.7 0.8-0.6 0.8-0.6 2.3zm16.8-5.1q0 5.3-3.7 5.3-2.3 0-3.1-1.8h-0.1q0.1 0.1 0.1 1.6v3.9h-1.7v-11.9q0-1.5-0.1-2h1.7q0 0 0 0.2 0 0.2 0 0.7 0.1 0.5 0.1 0.7 0.4-1 1.2-1.4 0.7-0.4 1.9-0.4 1.9 0 2.8 1.2 0.9 1.3 0.9 3.9zm-1.8 0.1q0-2.1-0.5-3-0.6-0.9-1.8-0.9-1 0-1.6 0.4-0.5 0.4-0.8 1.3-0.3 0.9-0.3 2.3 0 2 0.6 2.9 0.6 0.9 2.1 0.9 1.2 0 1.8-0.9 0.5-0.9 0.5-3zm5.5 5h-1.6v-13.8h1.6zm11.1-5q0 2.6-1.2 3.9-1.1 1.3-3.3 1.3-2.2 0-3.4-1.3-1.1-1.4-1.1-3.9 0-5.2 4.5-5.2 2.3 0 3.4 1.3 1.1 1.2 1.1 3.9zm-1.8 0q0-2.1-0.6-3-0.6-1-2.1-1-1.4 0-2.1 1-0.6 1-0.6 3 0 2 0.6 3 0.7 1 2 1 1.5 0 2.2-1 0.6-1 0.6-3zm6.1 5h-1.8v-2h1.8zm4.3-5.1q0 2 0.6 3 0.7 1 1.9 1 0.9 0 1.5-0.5 0.6-0.5 0.8-1.5l1.7 0.1q-0.2 1.5-1.3 2.3-1 0.9-2.6 0.9-2.1 0-3.2-1.3-1.1-1.4-1.1-3.9 0-2.6 1.1-3.9 1.1-1.3 3.2-1.3 1.5 0 2.5 0.8 1 0.8 1.3 2.2l-1.7 0.1q-0.1-0.8-0.7-1.3-0.5-0.5-1.5-0.5-1.3 0-1.9 0.9-0.6 0.8-0.6 2.9zm16.7 0.1q0 2.6-1.1 3.9-1.2 1.3-3.4 1.3-2.2 0-3.3-1.4-1.1-1.3-1.1-3.8 0-5.2 4.5-5.2 2.3 0 3.3 1.2 1.1 1.3 1.1 4zm-1.7 0q0-2.1-0.6-3-0.7-1-2.1-1-1.5 0-2.1 1-0.7 0.9-0.7 3 0 2 0.6 3 0.7 0.9 2.1 0.9 1.5 0 2.1-0.9 0.7-1 0.7-3zm11.3 5h-1.7v-6.4q0-1.4-0.4-2-0.3-0.5-1.4-0.5-1.1 0-1.7 0.8-0.6 0.8-0.6 2.3v5.8h-1.7v-7.9q0-1.8 0-2.1h1.6q0 0 0 0.2 0 0.2 0 0.5 0 0.2 0 1h0.1q0.5-1.1 1.2-1.5 0.7-0.4 1.7-0.4 1.1 0 1.8 0.4 0.7 0.5 0.9 1.5h0.1q0.5-1 1.2-1.5 0.7-0.4 1.8-0.4 1.5 0 2.2 0.8 0.7 0.8 0.7 2.7v6.7h-1.7v-6.4q0-1.4-0.4-2-0.4-0.5-1.4-0.5-1.1 0-1.7 0.8-0.6 0.8-0.6 2.3zm18.3 3.9h-1.2q-1.2 0-1.8-0.7-0.7-0.7-0.7-2v-3.3q0-1.1-0.5-1.7-0.4-0.5-1.5-0.5v-1.2q1.1-0.1 1.5-0.6 0.5-0.5 0.5-1.6v-3.4q0-1.3 0.7-2 0.6-0.7 1.8-0.7h1.2v1.2h-0.5q-0.9 0-1.2 0.5-0.4 0.5-0.4 1.5v3.3q0 0.9-0.5 1.5-0.5 0.6-1.3 0.8v0.1q0.8 0.2 1.3 0.8 0.5 0.6 0.5 1.5v3.3q0 1 0.4 1.5 0.3 0.5 1.2 0.5h0.5zm-236.9 15.3q0 1.4-1.1 2.2-1 0.8-2.9 0.8-1.9 0-2.9-0.6-1.1-0.7-1.4-2l1.5-0.3q0.2 0.8 0.9 1.2 0.7 0.4 1.9 0.4 1.2 0 1.8-0.4 0.6-0.4 0.6-1.2 0-0.6-0.4-0.9-0.4-0.4-1.3-0.6l-1.2-0.4q-1.5-0.3-2.1-0.7-0.6-0.3-0.9-0.9-0.4-0.5-0.4-1.2 0-1.4 1-2.1 1-0.7 2.9-0.7 1.6 0 2.6 0.6 1 0.6 1.2 1.8l-1.5 0.2q-0.1-0.6-0.7-1-0.6-0.4-1.6-0.4-1.2 0-1.7 0.4-0.5 0.3-0.5 1 0 0.5 0.2 0.7 0.2 0.3 0.6 0.5 0.5 0.2 1.9 0.5 1.3 0.4 1.9 0.7 0.6 0.2 0.9 0.6 0.4 0.3 0.5 0.8 0.2 0.4 0.2 1zm10.4-1.9h-7.1q0 1.7 0.7 2.7 0.7 0.9 2.1 0.9 1.1 0 1.7-0.4 0.7-0.5 0.9-1.1l1.5 0.4q-0.9 2.4-4.1 2.4-2.3 0-3.4-1.4-1.2-1.3-1.2-3.9 0-2.5 1.2-3.8 1.1-1.3 3.3-1.3 4.4 0 4.4 5.3zm-7.1-1.3h5.4q-0.1-1.6-0.8-2.3-0.7-0.7-1.9-0.7-1.2 0-1.9 0.8-0.8 0.8-0.8 2.2zm11 6h-1.7v-7.7q0-1.1-0.1-2.4h1.6q0.1 1.7 0.1 2.1 0.4-1.3 0.9-1.8 0.6-0.5 1.5-0.5 0.3 0 0.7 0.1v1.6q-0.3-0.1-0.9-0.1-1 0-1.6 0.9-0.5 0.9-0.5 2.5zm12.7-10l-3.7 10h-2l-3.6-10h1.8l2.2 6.5q0.1 0.4 0.6 2.2l0.3-1.1 0.4-1.1 2.3-6.5zm9.8 5.4h-7.2q0 1.7 0.7 2.6 0.7 1 2.1 1 1.1 0 1.7-0.5 0.7-0.4 0.9-1.1l1.5 0.4q-0.9 2.4-4.1 2.4-2.2 0-3.4-1.3-1.2-1.3-1.2-4 0-2.4 1.2-3.8 1.2-1.3 3.3-1.3 4.5 0 4.5 5.3zm-7.2-1.2h5.4q-0.1-1.6-0.8-2.4-0.6-0.7-1.9-0.7-1.2 0-1.9 0.8-0.7 0.8-0.8 2.3zm11 5.9h-1.7v-7.7q0-1.1 0-2.3h1.5q0.1 1.7 0.1 2h0.1q0.4-1.3 0.9-1.7 0.5-0.5 1.4-0.5 0.4 0 0.7 0.1v1.5q-0.3-0.1-0.9-0.1-1 0-1.6 0.9-0.5 0.9-0.5 2.6zm91.4-8.1h-1.8v-2h1.8zm0 8.2h-1.8v-2h1.8zm11.5-3.6q0 1.8-1.2 2.8-1.1 1-3.3 1-2.1 0-3.3-1-1.2-1-1.2-2.8 0-1.3 0.8-2.1 0.7-0.9 1.9-1.1-1.1-0.3-1.7-1.1-0.6-0.9-0.6-2 0-1.5 1.1-2.4 1.1-0.9 3-0.9 1.9 0 3 0.9 1.1 0.9 1.1 2.4 0 1.2-0.6 2-0.6 0.8-1.7 1v0.1q1.3 0.2 2 1 0.7 0.9 0.7 2.2zm-2.1-6.2q0-2.2-2.4-2.2-1.2 0-1.8 0.6-0.6 0.5-0.6 1.6 0 1.1 0.6 1.7 0.6 0.6 1.8 0.6 1.2 0 1.8-0.5 0.6-0.6 0.6-1.8zm0.3 6q0-1.2-0.7-1.8-0.7-0.6-2-0.6-1.3 0-2 0.6-0.7 0.7-0.7 1.9 0 2.7 2.7 2.7 1.4 0 2.1-0.7 0.6-0.6 0.6-2.1zm12.4-2.7q0 3.3-1.1 5-1.2 1.7-3.4 1.7-2.3 0-3.4-1.7-1.2-1.7-1.2-5 0-3.4 1.1-5.1 1.1-1.6 3.5-1.6 2.3 0 3.4 1.7 1.1 1.7 1.1 5zm-1.7 0q0-2.8-0.6-4.1-0.7-1.3-2.2-1.3-1.5 0-2.2 1.3-0.7 1.2-0.7 4.1 0 2.8 0.7 4.1 0.7 1.3 2.2 1.3 1.4 0 2.1-1.4 0.7-1.3 0.7-4zm12.3 0q0 3.3-1.2 5-1.1 1.7-3.4 1.7-2.2 0-3.4-1.7-1.1-1.7-1.1-5 0-3.4 1.1-5.1 1.1-1.6 3.5-1.6 2.3 0 3.4 1.7 1.1 1.7 1.1 5zm-1.7 0q0-2.8-0.7-4.1-0.6-1.3-2.1-1.3-1.6 0-2.2 1.3-0.7 1.2-0.7 4.1 0 2.8 0.7 4.1 0.7 1.3 2.1 1.3 1.5 0 2.2-1.4 0.7-1.3 0.7-4zm12.2 2.9q0 1.8-1.2 2.8-1.1 1-3.3 1-2.1 0-3.3-1-1.1-1-1.1-2.8 0-1.3 0.7-2.1 0.7-0.9 1.9-1.1-1.1-0.3-1.7-1.1-0.6-0.9-0.6-2 0-1.5 1.1-2.4 1.1-0.9 3-0.9 1.9 0 3 0.9 1.1 0.9 1.1 2.4 0 1.2-0.6 2-0.6 0.8-1.7 1v0.1q1.3 0.2 2 1 0.7 0.9 0.7 2.2zm-2.1-6.2q0-2.2-2.4-2.2-1.2 0-1.8 0.6-0.6 0.5-0.6 1.6 0 1.1 0.6 1.7 0.6 0.6 1.8 0.6 1.2 0 1.8-0.5 0.6-0.6 0.6-1.8zm0.3 6q0-1.2-0.7-1.8-0.7-0.6-2-0.6-1.3 0-2 0.6-0.7 0.7-0.7 1.9 0 2.7 2.7 2.7 1.4 0 2.1-0.7 0.6-0.6 0.6-2.1zm4.4 1.9h1.8v1.5q0 0.9-0.2 1.6-0.2 0.7-0.6 1.3h-1.1q0.9-1.3 0.9-2.5h-0.8zm1.8-6.2h-1.8v-1.9h1.8zm-178.9 31.1h-2l-3.4-4.6-1.2 1.1v3.5h-1.7v-13.7h1.7v8.6l4.4-4.9h2l-4.1 4.3zm9.7-4.7h-7.2q0 1.8 0.7 2.7 0.7 0.9 2.1 0.9 1.1 0 1.8-0.4 0.6-0.4 0.8-1.1l1.5 0.4q-0.9 2.4-4.1 2.4-2.2 0-3.4-1.3-1.1-1.4-1.1-4 0-2.5 1.1-3.8 1.2-1.3 3.4-1.3 4.4 0 4.4 5.3zm-7.2-1.3h5.5q-0.2-1.5-0.9-2.3-0.6-0.7-1.9-0.7-1.2 0-1.9 0.8-0.7 0.8-0.8 2.2zm17.7 1.3h-7.1q0 1.7 0.7 2.7 0.7 0.9 2.1 0.9 1.1 0 1.7-0.4 0.7-0.5 0.9-1.1l1.5 0.4q-0.9 2.4-4.1 2.4-2.2 0-3.4-1.4-1.2-1.3-1.2-3.9 0-2.5 1.2-3.8 1.2-1.3 3.3-1.3 4.4 0 4.4 5.3zm-7.1-1.3h5.4q-0.1-1.6-0.8-2.3-0.7-0.7-1.9-0.7-1.2 0-1.9 0.8-0.7 0.8-0.8 2.2zm17.8 0.9q0 5.2-3.7 5.2-2.4 0-3.2-1.7 0 0.1 0 1.6v3.9h-1.6v-11.9q0-1.6-0.1-2.1h1.6q0 0.1 0.1 0.3 0 0.2 0 0.7 0 0.5 0 0.6h0.1q0.4-0.9 1.1-1.3 0.8-0.5 2-0.5 1.8 0 2.7 1.3 1 1.2 1 3.9zm-1.8 0q0-2.1-0.6-3-0.5-0.9-1.8-0.9-1 0-1.5 0.5-0.6 0.4-0.9 1.3-0.3 0.8-0.3 2.3 0 1.9 0.7 2.9 0.6 0.9 2 0.9 1.3 0 1.8-0.9 0.6-0.9 0.6-3.1zm6.4 5.2q-1.5 0-2.3-0.8-0.7-0.7-0.7-2.1 0-1.6 1-2.4 1-0.9 3.3-0.9l2.2-0.1v-0.5q0-1.2-0.5-1.8-0.5-0.5-1.6-0.5-1.1 0-1.6 0.4-0.5 0.4-0.6 1.2l-1.8-0.2q0.4-2.7 4-2.7 1.9 0 2.9 0.9 0.9 0.9 0.9 2.5v4.3q0 0.8 0.2 1.2 0.2 0.3 0.8 0.3 0.2 0 0.5 0v1q-0.6 0.2-1.3 0.2-0.9 0-1.3-0.5-0.4-0.5-0.5-1.6h-0.1q-0.6 1.2-1.4 1.7-0.9 0.4-2.1 0.4zm0.4-1.2q0.9 0 1.6-0.4 0.7-0.4 1.1-1.2 0.4-0.7 0.4-1.5v-0.8h-1.8q-1.2 0.1-1.8 0.3-0.6 0.2-0.9 0.7-0.3 0.4-0.3 1.2 0 0.8 0.4 1.2 0.5 0.5 1.3 0.5zm9.3 1.1h-1.7v-13.8h1.7zm4.2-12.2h-1.7v-1.6h1.7zm0 12.2h-1.7v-10h1.7zm10.7-10.1l-3.7 10.1h-2l-3.7-10.1h1.8l2.2 6.6q0.1 0.3 0.7 2.2l0.3-1.1 0.3-1.1 2.3-6.6zm9.8 5.4h-7.1q0 1.7 0.7 2.7 0.7 0.9 2.1 0.9 1 0 1.7-0.4 0.6-0.5 0.9-1.1l1.4 0.4q-0.9 2.3-4 2.3-2.3 0-3.4-1.3-1.2-1.3-1.2-3.9 0-2.5 1.2-3.8 1.1-1.4 3.3-1.4 4.4 0 4.4 5.4zm-7.1-1.3h5.4q-0.1-1.6-0.8-2.3-0.7-0.8-1.9-0.8-1.3 0-2 0.9-0.7 0.8-0.7 2.2zm23 2.3q0 1.8-1.2 2.8-1.1 1-3.3 1-2.1 0-3.3-1-1.1-1-1.1-2.8 0-1.3 0.7-2.1 0.7-0.9 1.9-1.1-1.1-0.3-1.7-1.1-0.6-0.9-0.6-2 0-1.5 1.1-2.4 1.1-0.9 3-0.9 1.9 0 3 0.9 1.2 0.9 1.2 2.4 0 1.2-0.7 2-0.6 0.8-1.7 1v0.1q1.3 0.2 2 1 0.7 0.9 0.7 2.2zm-2.1-6.2q0-2.2-2.4-2.2-1.2 0-1.8 0.6-0.6 0.5-0.6 1.6 0 1.2 0.6 1.7 0.6 0.6 1.8 0.6 1.2 0 1.8-0.5 0.6-0.6 0.6-1.8zm0.3 6q0-1.2-0.7-1.8-0.7-0.6-2-0.6-1.3 0-2 0.7-0.7 0.6-0.7 1.8 0 2.7 2.7 2.7 1.4 0 2.1-0.7 0.6-0.6 0.6-2.1zm4.4 1.9h1.8v1.5q0 0.9-0.2 1.6-0.2 0.7-0.5 1.3h-1.2q0.9-1.3 0.9-2.5h-0.8zm1.8-6.2h-1.8v-1.9h1.8zm-141.6 33.9h0.5q0.9 0 1.2-0.5 0.4-0.5 0.4-1.5v-3.3q0-0.9 0.5-1.6 0.5-0.6 1.3-0.8-0.8-0.2-1.3-0.8-0.5-0.6-0.5-1.5v-3.3q0-1-0.4-1.5-0.3-0.5-1.2-0.5h-0.5v-1.2h1.2q1.2 0 1.8 0.7 0.6 0.7 0.6 2v3.3q0 1.1 0.5 1.7 0.5 0.5 1.6 0.5v1.2q-1.1 0.1-1.6 0.6-0.5 0.5-0.5 1.6v3.4q0 1.2-0.6 2-0.6 0.7-1.8 0.7h-1.2zm8.5 40.5q0 1.4-1.1 2.1-1.1 0.8-3 0.8-1.9 0-2.9-0.6-1-0.6-1.3-1.9l1.5-0.3q0.2 0.8 0.8 1.2 0.7 0.3 1.9 0.3 1.3 0 1.8-0.3 0.6-0.4 0.6-1.2 0-0.6-0.4-1-0.4-0.3-1.3-0.6l-1.2-0.3q-1.4-0.4-2-0.7-0.6-0.4-1-0.9-0.3-0.5-0.3-1.3 0-1.3 1-2 0.9-0.8 2.8-0.8 1.7 0 2.6 0.6 1 0.6 1.3 1.9l-1.5 0.2q-0.2-0.7-0.8-1-0.6-0.4-1.6-0.4-1.1 0-1.7 0.3-0.5 0.4-0.5 1.1 0 0.4 0.2 0.7 0.2 0.3 0.7 0.5 0.4 0.2 1.8 0.5 1.3 0.3 1.9 0.6 0.6 0.3 1 0.6 0.3 0.4 0.5 0.8 0.2 0.5 0.2 1.1zm10.4-1.9h-7.2q0 1.7 0.7 2.6 0.7 1 2.1 1 1.1 0 1.7-0.5 0.7-0.4 0.9-1.1l1.5 0.4q-0.9 2.4-4.1 2.4-2.2 0-3.4-1.3-1.1-1.3-1.1-3.9 0-2.5 1.1-3.9 1.2-1.3 3.3-1.3 4.5 0 4.5 5.3zm-7.2-1.2h5.4q-0.1-1.6-0.8-2.3-0.6-0.8-1.9-0.8-1.2 0-1.9 0.8-0.7 0.8-0.8 2.3zm11 5.9h-1.7v-7.7q0-1 0-2.3h1.6q0 1.7 0 2h0.1q0.4-1.3 0.9-1.7 0.5-0.5 1.5-0.5 0.3 0 0.6 0.1v1.5q-0.3-0.1-0.9-0.1-1 0-1.5 0.9-0.6 0.9-0.6 2.6zm12.8-10.1l-3.8 10.1h-1.9l-3.7-10.1h1.8l2.2 6.6q0.1 0.3 0.6 2.2l0.4-1.1 0.3-1.1 2.3-6.6zm9.8 5.4h-7.2q0 1.7 0.7 2.7 0.8 0.9 2.1 0.9 1.1 0 1.8-0.4 0.6-0.5 0.9-1.1l1.4 0.4q-0.9 2.4-4.1 2.4-2.2 0-3.4-1.4-1.1-1.3-1.1-3.9 0-2.5 1.1-3.8 1.2-1.3 3.4-1.3 4.4 0 4.4 5.3zm-7.1-1.3h5.4q-0.2-1.6-0.8-2.3-0.7-0.7-2-0.7-1.2 0-1.9 0.8-0.7 0.8-0.7 2.2zm10.9 6h-1.6v-7.7q0-1.1-0.1-2.4h1.6q0.1 1.7 0.1 2.1 0.4-1.3 0.9-1.8 0.5-0.5 1.5-0.5 0.3 0 0.7 0.1v1.6q-0.4-0.1-0.9-0.1-1.1 0-1.6 0.9-0.6 0.9-0.6 2.5zm14.7 4h-1.3q-1.2 0-1.8-0.7-0.6-0.8-0.6-2.1v-3.3q0-1.1-0.5-1.6-0.5-0.6-1.5-0.6v-1.2q1 0 1.5-0.5 0.5-0.6 0.5-1.7v-3.3q0-1.3 0.6-2 0.6-0.7 1.8-0.7h1.3v1.2h-0.6q-0.9 0-1.2 0.5-0.4 0.4-0.4 1.4v3.4q0 0.8-0.5 1.5-0.5 0.6-1.3 0.8 0.8 0.2 1.3 0.8 0.5 0.7 0.5 1.6v3.3q0 1 0.4 1.5 0.3 0.5 1.2 0.5h0.6zm-18.9 18h-1.7v-13.7h1.7zm4.2-12.2h-1.7v-1.6h1.7zm0 12.2h-1.7v-10.1h1.7zm10.1-2.7q0 1.4-1.1 2.1-1.1 0.8-3 0.8-1.9 0-2.9-0.6-1-0.6-1.3-1.9l1.5-0.3q0.2 0.8 0.8 1.2 0.7 0.3 1.9 0.3 1.3 0 1.8-0.3 0.6-0.4 0.6-1.2 0-0.6-0.4-1-0.4-0.4-1.3-0.6l-1.2-0.3q-1.4-0.4-2-0.7-0.6-0.4-1-0.9-0.3-0.5-0.3-1.3 0-1.3 1-2 0.9-0.8 2.8-0.8 1.7 0 2.6 0.6 1 0.6 1.3 1.9l-1.5 0.2q-0.2-0.7-0.8-1-0.6-0.4-1.6-0.4-1.1 0-1.7 0.3-0.5 0.4-0.5 1.1 0 0.4 0.2 0.7 0.2 0.3 0.7 0.5 0.4 0.1 1.8 0.5 1.3 0.3 1.9 0.6 0.6 0.3 1 0.6 0.3 0.4 0.5 0.8 0.2 0.5 0.2 1.1zm5.8 1.4v1.3q-0.8 0.2-1.7 0.2-2 0-2-2.3v-6.7h-1.2v-1.2h1.3l0.5-2.3h1.1v2.3h1.8v1.2h-1.8v6.3q0 0.8 0.2 1.1 0.2 0.2 0.8 0.2 0.4 0 1-0.1zm9.9-3.3h-7.2q0 1.7 0.7 2.6 0.7 1 2.1 1 1.1 0 1.7-0.5 0.7-0.4 0.9-1.1l1.5 0.4q-0.9 2.4-4.1 2.4-2.2 0-3.4-1.3-1.2-1.3-1.2-4 0-2.4 1.2-3.8 1.2-1.3 3.3-1.3 4.5 0 4.5 5.3zm-7.2-1.2h5.4q-0.1-1.6-0.8-2.4-0.6-0.7-1.9-0.7-1.2 0-1.9 0.8-0.7 0.8-0.8 2.3zm17.3 5.9h-1.6v-6.4q0-1-0.2-1.5-0.2-0.5-0.7-0.8-0.4-0.2-1.2-0.2-1.2 0-1.9 0.8-0.7 0.8-0.7 2.3v5.8h-1.7v-7.9q0-1.7 0-2.1h1.5q0 0 0.1 0.2 0 0.2 0 0.5 0 0.2 0 1 0.6-1.1 1.4-1.5 0.7-0.4 1.8-0.4 1.7 0 2.5 0.8 0.7 0.8 0.7 2.7zm16.2-6.8q0 3.4-1.2 5.2-1.2 1.8-3.5 1.8-1.6 0-2.5-0.6-0.9-0.7-1.3-2.1l1.6-0.3q0.5 1.7 2.2 1.7 1.4 0 2.2-1.4 0.8-1.3 0.9-3.8-0.4 0.8-1.3 1.4-0.9 0.5-2 0.5-1.8 0-2.8-1.3-1.1-1.2-1.1-3.2 0-2 1.2-3.2 1.1-1.2 3.2-1.2 2.2 0 3.3 1.7 1.1 1.6 1.1 4.8zm-1.8-1.6q0-1.6-0.7-2.5-0.8-1-2-1-1.2 0-1.9 0.8-0.7 0.8-0.7 2.2 0 1.5 0.7 2.3 0.7 0.8 1.9 0.8 0.7 0 1.4-0.3 0.6-0.3 0.9-0.9 0.4-0.6 0.4-1.4zm12.5 1.9q0 3.2-1.1 5-1.2 1.7-3.4 1.7-2.3 0-3.4-1.7-1.1-1.7-1.1-5 0-3.4 1-5.1 1.2-1.7 3.5-1.7 2.3 0 3.4 1.7 1.1 1.7 1.1 5.1zm-1.7 0q0-2.9-0.6-4.1-0.7-1.3-2.2-1.3-1.5 0-2.2 1.3-0.7 1.2-0.7 4.1 0 2.8 0.7 4 0.7 1.3 2.2 1.3 1.5 0 2.2-1.3 0.6-1.3 0.6-4zm12.3 0q0 3.2-1.2 5-1.1 1.7-3.4 1.7-2.2 0-3.3-1.7-1.2-1.7-1.2-5 0-3.4 1.1-5.1 1.1-1.7 3.5-1.7 2.3 0 3.4 1.7 1.1 1.7 1.1 5.1zm-1.7 0q0-2.9-0.7-4.1-0.6-1.3-2.1-1.3-1.5 0-2.2 1.3-0.7 1.2-0.7 4.1 0 2.8 0.7 4 0.7 1.3 2.2 1.3 1.4 0 2.1-1.3 0.7-1.3 0.7-4zm12.3 0q0 3.2-1.2 5-1.1 1.7-3.4 1.7-2.2 0-3.4-1.7-1.1-1.7-1.1-5 0-3.4 1.1-5.1 1.1-1.7 3.5-1.7 2.3 0 3.4 1.7 1.1 1.7 1.1 5.1zm-1.7 0q0-2.9-0.7-4.1-0.6-1.3-2.1-1.3-1.6 0-2.3 1.3-0.6 1.2-0.6 4.1 0 2.8 0.7 4 0.6 1.3 2.1 1.3 1.5 0 2.2-1.3 0.7-1.3 0.7-4zm4.2 4.6h1.8v1.4q0 1-0.2 1.7-0.2 0.6-0.5 1.2h-1.2q0.9-1.2 0.9-2.4h-0.8zm1.8-6.2h-1.8v-1.9h1.8zm-86.7 28.3q0 1.5-1.1 2.2-1 0.8-2.9 0.8-1.9 0-2.9-0.6-1.1-0.6-1.4-1.9l1.5-0.3q0.2 0.8 0.9 1.2 0.7 0.3 1.9 0.3 1.2 0 1.8-0.4 0.6-0.4 0.6-1.1 0-0.6-0.4-1-0.4-0.4-1.3-0.6l-1.2-0.3q-1.5-0.4-2.1-0.7-0.6-0.4-0.9-0.9-0.4-0.5-0.4-1.3 0-1.3 1-2.1 1-0.7 2.9-0.7 1.6 0 2.6 0.6 1 0.6 1.2 1.9l-1.5 0.2q-0.1-0.7-0.7-1.1-0.6-0.3-1.6-0.3-1.2 0-1.7 0.3-0.5 0.4-0.5 1.1 0 0.4 0.2 0.7 0.2 0.2 0.6 0.4 0.5 0.2 1.9 0.6 1.3 0.3 1.9 0.6 0.6 0.3 0.9 0.6 0.4 0.4 0.5 0.8 0.2 0.5 0.2 1zm10.4-1.9h-7.1q0 1.8 0.7 2.7 0.7 0.9 2.1 0.9 1.1 0 1.7-0.4 0.7-0.4 0.9-1.1l1.5 0.4q-0.9 2.4-4.1 2.4-2.3 0-3.4-1.3-1.2-1.4-1.2-4 0-2.5 1.2-3.8 1.1-1.3 3.3-1.3 4.4 0 4.4 5.3zm-7.1-1.3h5.4q-0.1-1.5-0.8-2.3-0.7-0.7-1.9-0.7-1.2 0-1.9 0.8-0.8 0.8-0.8 2.2zm11 6h-1.7v-7.7q0-1.1-0.1-2.3h1.6q0.1 1.7 0.1 2 0.4-1.3 0.9-1.8 0.6-0.4 1.5-0.4 0.3 0 0.7 0.1v1.5q-0.3-0.1-0.9-0.1-1 0-1.6 0.9-0.5 0.9-0.5 2.6zm12.7-10.1l-3.7 10.1h-2l-3.6-10.1h1.8l2.2 6.6q0.1 0.3 0.6 2.2l0.3-1.1 0.4-1.1 2.3-6.6zm9.8 5.4h-7.2q0 1.7 0.7 2.7 0.7 0.9 2.1 0.9 1.1 0 1.7-0.4 0.7-0.5 0.9-1.1l1.5 0.4q-0.9 2.3-4.1 2.3-2.2 0-3.4-1.3-1.2-1.3-1.2-3.9 0-2.5 1.2-3.8 1.2-1.4 3.3-1.4 4.5 0 4.5 5.4zm-7.2-1.3h5.4q-0.1-1.6-0.8-2.3-0.6-0.8-1.9-0.8-1.2 0-1.9 0.9-0.7 0.8-0.8 2.2zm11 5.9h-1.7v-7.7q0-1 0-2.3h1.5q0.1 1.7 0.1 2 0.4-1.2 1-1.7 0.5-0.5 1.4-0.5 0.4 0 0.7 0.1v1.5q-0.3-0.1-0.9-0.1-1 0-1.6 0.9-0.5 0.9-0.5 2.6zm14.1 3.8h-11.1v-1.2h11.1zm9.1-3.8h-1.7v-6.4q0-1-0.1-1.5-0.2-0.6-0.7-0.8-0.4-0.2-1.2-0.2-1.2 0-1.9 0.8-0.7 0.8-0.7 2.3v5.8h-1.7v-7.9q0-1.8 0-2.1h1.5q0 0 0.1 0.2 0 0.2 0 0.5 0 0.2 0 1 0.6-1.1 1.4-1.5 0.7-0.4 1.8-0.4 1.7 0 2.5 0.8 0.7 0.8 0.7 2.7zm5.1 0.2q-1.5 0-2.3-0.8-0.7-0.8-0.7-2.2 0-1.6 1-2.4 1-0.8 3.3-0.9h2.3v-0.6q0-1.2-0.6-1.7-0.5-0.5-1.6-0.5-1.1 0-1.6 0.3-0.5 0.4-0.6 1.3l-1.8-0.2q0.4-2.7 4-2.7 1.9 0 2.9 0.9 0.9 0.8 0.9 2.5v4.3q0 0.7 0.2 1.1 0.2 0.4 0.8 0.4 0.2 0 0.5-0.1v1.1q-0.6 0.1-1.3 0.1-0.9 0-1.3-0.5-0.4-0.5-0.5-1.5-0.7 1.1-1.5 1.6-0.9 0.5-2.1 0.5zm0.4-1.3q0.9 0 1.6-0.4 0.7-0.4 1.1-1.1 0.5-0.7 0.5-1.5v-0.8h-1.9q-1.2 0-1.8 0.2-0.6 0.3-0.9 0.7-0.3 0.5-0.3 1.2 0 0.9 0.4 1.3 0.5 0.4 1.3 0.4zm15.1 1.1h-1.6v-6.4q0-1.4-0.4-2-0.4-0.5-1.5-0.5-1.1 0-1.7 0.8-0.6 0.8-0.6 2.3v5.8h-1.7v-7.9q0-1.7 0-2.1h1.6q0 0 0 0.2 0 0.2 0 0.5 0 0.3 0 1h0.1q0.5-1.1 1.2-1.5 0.7-0.4 1.7-0.4 1.1 0 1.8 0.4 0.7 0.5 0.9 1.5h0.1q0.5-1 1.2-1.5 0.7-0.4 1.8-0.4 1.5 0 2.2 0.8 0.7 0.8 0.7 2.7v6.7h-1.6v-6.4q0-1.4-0.4-2-0.4-0.5-1.5-0.5-1.1 0-1.7 0.8-0.6 0.8-0.6 2.3zm16.8-4.7h-7.2q0 1.8 0.7 2.7 0.7 0.9 2.1 0.9 1.1 0 1.8-0.4 0.6-0.4 0.8-1.1l1.5 0.4q-0.9 2.4-4.1 2.4-2.2 0-3.4-1.3-1.1-1.4-1.1-4 0-2.5 1.1-3.8 1.2-1.3 3.4-1.3 4.4 0 4.4 5.3zm-7.2-1.3h5.5q-0.2-1.6-0.9-2.3-0.6-0.7-1.9-0.7-1.2 0-1.9 0.8-0.7 0.8-0.8 2.2zm58 6h-1.8v-2.1h1.8zm4.3-5q0 2 0.7 2.9 0.6 1 1.9 1 0.9 0 1.4-0.5 0.7-0.5 0.8-1.5l1.7 0.2q-0.2 1.4-1.3 2.3-1 0.8-2.6 0.8-2.1 0-3.2-1.3-1.1-1.3-1.1-3.9 0-2.5 1.1-3.8 1.1-1.4 3.2-1.4 1.5 0 2.5 0.8 1.1 0.8 1.3 2.2l-1.7 0.1q-0.1-0.8-0.7-1.3-0.5-0.5-1.5-0.5-1.3 0-1.9 0.9-0.6 0.9-0.6 3zm16.7 0q0 2.6-1.1 3.9-1.2 1.3-3.4 1.3-2.2 0-3.3-1.3-1.1-1.4-1.1-3.9 0-5.2 4.5-5.2 2.3 0 3.4 1.3 1 1.2 1 3.9zm-1.7 0q0-2.1-0.6-3-0.6-1-2.1-1-1.5 0-2.1 1-0.7 1-0.7 3 0 2 0.7 3 0.6 1 2 1 1.5 0 2.1-1 0.7-0.9 0.7-3zm11.3 5h-1.6v-6.3q0-1.5-0.4-2-0.4-0.6-1.5-0.6-1 0-1.7 0.8-0.6 0.8-0.6 2.3v5.8h-1.6v-7.9q0-1.7-0.1-2.1h1.6q0 0 0 0.3 0 0.2 0 0.4 0 0.3 0.1 1 0.5-1.1 1.2-1.5 0.7-0.4 1.7-0.4 1.2 0 1.8 0.5 0.7 0.4 0.9 1.4h0.1q0.5-1 1.2-1.4 0.8-0.5 1.8-0.5 1.5 0 2.2 0.8 0.7 0.9 0.7 2.7v6.7h-1.6v-6.3q0-1.5-0.4-2-0.4-0.6-1.5-0.6-1.1 0-1.7 0.8-0.6 0.8-0.6 2.3zm16.8-5q0 5.2-3.6 5.2-2.4 0-3.2-1.7 0 0 0 1.5v4h-1.6v-12q0-1.5-0.1-2h1.6q0 0 0 0.3 0.1 0.2 0.1 0.6 0 0.5 0 0.7 0.5-0.9 1.2-1.4 0.8-0.4 2-0.4 1.8 0 2.7 1.2 0.9 1.3 0.9 4zm-1.7 0q0-2.1-0.6-3-0.5-0.9-1.8-0.9-1 0-1.5 0.4-0.6 0.4-0.9 1.3-0.3 0.9-0.3 2.3 0 2 0.7 2.9 0.6 1 2 1 1.2 0 1.8-0.9 0.6-1 0.6-3.1zm3.8-5h1.7v6.3q0 1 0.1 1.6 0.2 0.5 0.7 0.8 0.4 0.2 1.2 0.2 1.2 0 1.9-0.8 0.7-0.8 0.7-2.3v-5.8h1.7v7.9q0 1.7 0 2.1h-1.5q0 0-0.1-0.2 0-0.2 0-0.5 0-0.3 0-1-0.6 1-1.4 1.5-0.7 0.4-1.8 0.4-1.7 0-2.5-0.8-0.7-0.8-0.7-2.7zm14.4 8.7v1.2q-0.8 0.3-1.6 0.3-2 0-2-2.3v-6.7h-1.2v-1.2h1.2l0.5-2.3h1.1v2.3h1.9v1.2h-1.9v6.3q0 0.7 0.3 1 0.2 0.3 0.8 0.3 0.3 0 0.9-0.1zm9.9-3.4h-7.2q0 1.8 0.8 2.7 0.7 0.9 2 0.9 1.1 0 1.8-0.4 0.6-0.4 0.9-1.1l1.4 0.4q-0.9 2.4-4.1 2.4-2.2 0-3.3-1.3-1.2-1.4-1.2-4 0-2.5 1.2-3.8 1.1-1.3 3.3-1.3 4.4 0 4.4 5.3zm-7.1-1.3h5.4q-0.2-1.5-0.8-2.3-0.7-0.7-1.9-0.7-1.3 0-2 0.8-0.7 0.8-0.7 2.2zm13.4 1.7h-4.6v-1.5h4.6zm10.5 4.3h-8.2v-1.4h3.4v-10.1l-3 2.1v-1.5l3.1-2.2h1.5v11.7h3.2zm4.5 0h-1.8v-2h1.8zm5.6 0.1q-1.5 0-2.3-0.8-0.8-0.8-0.8-2.1 0-1.6 1.1-2.4 1-0.9 3.3-0.9l2.2-0.1v-0.5q0-1.2-0.5-1.8-0.5-0.5-1.6-0.5-1.2 0-1.7 0.4-0.5 0.4-0.6 1.2l-1.7-0.2q0.4-2.7 4-2.7 1.9 0 2.9 0.9 0.9 0.9 0.9 2.5v4.3q0 0.8 0.2 1.2 0.2 0.3 0.7 0.3 0.3 0 0.6 0v1q-0.6 0.1-1.3 0.1-0.9 0-1.4-0.4-0.4-0.5-0.4-1.6h-0.1q-0.6 1.2-1.5 1.7-0.8 0.4-2 0.4zm0.3-1.2q1 0 1.7-0.4 0.7-0.4 1.1-1.2 0.4-0.7 0.4-1.5v-0.8h-1.8q-1.2 0.1-1.8 0.3-0.6 0.2-0.9 0.7-0.4 0.4-0.4 1.2 0 0.8 0.5 1.2 0.4 0.5 1.2 0.5zm15.2 1.1h-1.7v-6.4q0-1.5-0.4-2-0.4-0.6-1.4-0.6-1.1 0-1.7 0.8-0.6 0.9-0.6 2.3v5.9h-1.7v-7.9q0-1.8 0-2.2h1.5q0 0.1 0.1 0.3 0 0.2 0 0.4 0 0.3 0 1 0.6-1 1.3-1.5 0.7-0.4 1.7-0.4 1.1 0 1.8 0.5 0.6 0.4 0.9 1.4 0.5-1 1.3-1.4 0.7-0.5 1.8-0.5 1.5 0 2.2 0.9 0.7 0.8 0.7 2.7v6.7h-1.7v-6.4q0-1.5-0.4-2-0.4-0.6-1.4-0.6-1.1 0-1.7 0.8-0.6 0.8-0.6 2.3zm10.9 0.2q-1.6 0-2.3-0.8-0.8-0.8-0.8-2.2 0-1.5 1-2.4 1.1-0.8 3.4-0.9h2.2v-0.5q0-1.3-0.5-1.8-0.5-0.5-1.6-0.5-1.2 0-1.7 0.4-0.5 0.3-0.6 1.2l-1.7-0.2q0.4-2.7 4-2.7 1.9 0 2.8 0.9 1 0.8 1 2.5v4.3q0 0.8 0.2 1.1 0.2 0.4 0.7 0.4 0.3 0 0.6-0.1v1.1q-0.6 0.1-1.3 0.1-0.9 0-1.4-0.5-0.4-0.4-0.4-1.5h-0.1q-0.6 1.2-1.5 1.6-0.8 0.5-2 0.5zm0.3-1.2q1 0 1.7-0.4 0.7-0.5 1.1-1.2 0.4-0.7 0.4-1.5v-0.8h-1.8q-1.2 0-1.8 0.3-0.6 0.2-0.9 0.6-0.4 0.5-0.4 1.3 0 0.8 0.5 1.2 0.4 0.5 1.2 0.5zm14.9 1h-7.7v-1.2l5.6-7.5h-5.3v-1.3h7.2v1.3l-5.6 7.4h5.8zm10.8-5q0 2.7-1.2 3.9-1.2 1.3-3.4 1.3-2.2 0-3.3-1.3-1.1-1.4-1.1-3.9 0-5.2 4.5-5.2 2.3 0 3.4 1.3 1.1 1.3 1.1 3.9zm-1.8 0q0-2.1-0.6-3-0.6-0.9-2.1-0.9-1.5 0-2.1 0.9-0.7 1-0.7 3 0 2 0.7 3 0.6 1 2 1 1.5 0 2.2-1 0.6-0.9 0.6-3zm11.9 5h-1.7v-6.3q0-1-0.2-1.6-0.2-0.5-0.6-0.7-0.4-0.3-1.3-0.3-1.2 0-1.9 0.8-0.7 0.9-0.7 2.3v5.8h-1.6v-7.8q0-1.8-0.1-2.2h1.6q0 0.1 0 0.3 0 0.2 0 0.4 0 0.3 0.1 1 0.6-1 1.3-1.4 0.8-0.5 1.9-0.5 1.7 0 2.4 0.8 0.8 0.9 0.8 2.8zm5.1 0.1q-1.6 0-2.3-0.8-0.8-0.8-0.8-2.1 0-1.6 1-2.4 1.1-0.9 3.4-0.9l2.2-0.1v-0.5q0-1.2-0.5-1.8-0.5-0.5-1.6-0.5-1.2 0-1.7 0.4-0.5 0.4-0.6 1.2l-1.7-0.2q0.4-2.7 4-2.7 1.9 0 2.8 0.9 1 0.9 1 2.5v4.3q0 0.8 0.2 1.2 0.2 0.3 0.7 0.3 0.3 0 0.6 0v1q-0.6 0.1-1.3 0.1-0.9 0-1.4-0.4-0.4-0.5-0.4-1.6h-0.1q-0.6 1.2-1.5 1.7-0.8 0.4-2 0.4zm0.3-1.2q1 0 1.7-0.4 0.7-0.4 1.1-1.2 0.4-0.7 0.4-1.5v-0.8h-1.8q-1.2 0.1-1.8 0.3-0.6 0.2-0.9 0.7-0.4 0.4-0.4 1.2 0 0.8 0.5 1.2 0.4 0.5 1.2 0.5zm20.2-9l-2.9 10.1h-2l-1.7-7.1-0.3-1.6q-0.1 0.4-0.3 1.2-0.2 0.8-1.9 7.5h-1.9l-2.8-10.1h1.6l1.7 6.8q0.1 0.3 0.4 1.9l0.2-0.7 2.1-8h1.8l1.7 6.9 0.4 1.8 0.3-1.3 1.9-7.4zm8.8 7.3q0 1.4-1.1 2.2-1.1 0.7-3 0.7-1.9 0-2.9-0.6-1-0.6-1.3-1.9l1.5-0.3q0.2 0.8 0.9 1.2 0.6 0.4 1.8 0.4 1.3 0 1.9-0.4 0.6-0.4 0.6-1.2 0-0.6-0.4-1-0.5-0.3-1.4-0.6l-1.2-0.3q-1.4-0.4-2-0.7-0.6-0.4-1-0.9-0.3-0.5-0.3-1.2 0-1.4 1-2.1 1-0.7 2.8-0.7 1.7 0 2.7 0.5 1 0.6 1.2 1.9l-1.5 0.2q-0.1-0.7-0.7-1-0.6-0.4-1.7-0.4-1.1 0-1.6 0.4-0.6 0.3-0.6 1 0 0.4 0.2 0.7 0.3 0.3 0.7 0.5 0.4 0.2 1.8 0.5 1.4 0.4 2 0.6 0.5 0.3 0.9 0.7 0.3 0.3 0.5 0.8 0.2 0.4 0.2 1zm4.2 2.8h-1.8v-2.1h1.8zm4.3-5q0 2 0.6 2.9 0.7 1 1.9 1 0.9 0 1.5-0.5 0.6-0.5 0.8-1.5l1.7 0.1q-0.2 1.5-1.3 2.3-1 0.9-2.6 0.9-2.1 0-3.2-1.3-1.1-1.4-1.1-3.9 0-2.5 1.1-3.9 1.1-1.3 3.2-1.3 1.5 0 2.5 0.8 1 0.8 1.3 2.2l-1.7 0.1q-0.1-0.8-0.7-1.3-0.5-0.5-1.5-0.5-1.3 0-1.9 0.9-0.6 0.9-0.6 3zm16.7 0q0 2.6-1.1 3.9-1.2 1.3-3.4 1.3-2.2 0-3.3-1.3-1.1-1.4-1.1-3.9 0-5.2 4.5-5.2 2.3 0 3.3 1.3 1.1 1.2 1.1 3.9zm-1.7 0q0-2.1-0.7-3-0.6-1-2-1-1.5 0-2.1 1-0.7 1-0.7 3 0 2 0.6 3 0.7 1 2.1 1 1.5 0 2.1-1 0.7-1 0.7-3zm11.3 5h-1.7v-6.3q0-1.5-0.4-2.1-0.4-0.5-1.4-0.5-1.1 0-1.7 0.8-0.6 0.8-0.6 2.3v5.8h-1.7v-7.9q0-1.7 0-2.1h1.6q0 0 0 0.2 0 0.2 0 0.5 0 0.3 0 1h0.1q0.5-1.1 1.2-1.5 0.7-0.4 1.7-0.4 1.1 0 1.8 0.5 0.7 0.4 0.9 1.4 0.6-1 1.3-1.5 0.7-0.4 1.8-0.4 1.5 0 2.2 0.8 0.7 0.9 0.7 2.7v6.7h-1.7v-6.3q0-1.5-0.4-2.1-0.4-0.5-1.4-0.5-1.1 0-1.7 0.8-0.6 0.8-0.6 2.3zm8.8-1.9h1.8v1.4q0 1-0.2 1.7-0.1 0.6-0.5 1.2h-1.1q0.8-1.2 0.8-2.4h-0.8zm1.8-6.2h-1.8v-1.9h1.8zm-400.8 54.1h-1.7v-13.8h1.7zm11-5q0 2.6-1.2 3.9-1.1 1.3-3.3 1.3-2.2 0-3.4-1.3-1.1-1.4-1.1-3.9 0-5.2 4.5-5.2 2.3 0 3.4 1.3 1.1 1.2 1.1 3.9zm-1.8 0q0-2.1-0.6-3-0.6-0.9-2-0.9-1.5 0-2.2 0.9-0.6 1-0.6 3 0 2 0.6 3 0.7 1 2 1 1.6 0 2.2-1 0.6-0.9 0.6-3zm5.1 0q0 2 0.7 2.9 0.6 1 1.9 1 0.9 0 1.5-0.5 0.6-0.5 0.7-1.5l1.7 0.2q-0.2 1.4-1.2 2.3-1.1 0.8-2.7 0.8-2.1 0-3.2-1.3-1.1-1.3-1.1-3.9 0-2.5 1.1-3.8 1.1-1.4 3.2-1.4 1.5 0 2.6 0.8 1 0.8 1.2 2.2l-1.7 0.1q-0.1-0.8-0.6-1.3-0.6-0.5-1.5-0.5-1.4 0-2 0.9-0.6 0.9-0.6 3zm10.8 5.2q-1.5 0-2.2-0.8-0.8-0.8-0.8-2.2 0-1.5 1-2.4 1.1-0.8 3.3-0.8l2.3-0.1v-0.5q0-1.3-0.5-1.8-0.6-0.5-1.7-0.5-1.1 0-1.6 0.4-0.5 0.3-0.6 1.2l-1.8-0.2q0.5-2.7 4.1-2.7 1.9 0 2.8 0.9 1 0.9 1 2.5v4.3q0 0.8 0.2 1.1 0.2 0.4 0.7 0.4 0.3 0 0.6-0.1v1.1q-0.7 0.1-1.3 0.1-1 0-1.4-0.4-0.4-0.5-0.5-1.6-0.7 1.2-1.5 1.7-0.9 0.4-2.1 0.4zm0.4-1.2q0.9 0 1.6-0.4 0.8-0.5 1.2-1.2 0.4-0.7 0.4-1.5v-0.8h-1.8q-1.2 0-1.8 0.3-0.6 0.2-1 0.7-0.3 0.4-0.3 1.2 0 0.8 0.5 1.2 0.4 0.5 1.2 0.5zm11.5-0.3v1.3q-0.8 0.2-1.7 0.2-2 0-2-2.3v-6.7h-1.2v-1.2h1.3l0.5-2.2h1.1v2.2h1.8v1.2h-1.8v6.4q0 0.7 0.2 1 0.3 0.3 0.8 0.3 0.4 0 1-0.2zm3.1-10.8h-1.7v-1.6h1.7zm0 12.1h-1.7v-10h1.7zm11-5q0 2.6-1.1 3.9-1.2 1.3-3.4 1.3-2.2 0-3.3-1.3-1.1-1.4-1.1-3.9 0-5.2 4.5-5.2 2.3 0 3.3 1.3 1.1 1.2 1.1 3.9zm-1.7 0q0-2.1-0.6-3-0.7-1-2.1-1-1.5 0-2.1 1-0.7 0.9-0.7 3 0 2 0.7 3 0.6 1 2 1 1.5 0 2.1-1 0.7-1 0.7-3zm11.9 5h-1.7v-6.4q0-1-0.2-1.5-0.2-0.5-0.6-0.8-0.5-0.2-1.3-0.2-1.2 0-1.9 0.8-0.7 0.8-0.7 2.3v5.8h-1.7v-7.9q0-1.7 0-2.1h1.6q0 0 0 0.2 0 0.2 0 0.5 0 0.3 0 1h0.1q0.5-1.1 1.3-1.5 0.8-0.4 1.9-0.4 1.6 0 2.4 0.8 0.8 0.8 0.8 2.7zm8 0.2h-1.5l3.8-14h1.5zm15 3.8h-1.2q-1.2 0-1.9-0.7-0.6-0.7-0.6-2v-3.4q0-1-0.5-1.6-0.5-0.5-1.5-0.6v-1.1q1-0.1 1.5-0.6 0.5-0.5 0.5-1.6v-3.4q0-1.3 0.6-2 0.7-0.7 1.9-0.7h1.2v1.2h-0.6q-0.8 0-1.2 0.5-0.3 0.5-0.3 1.5v3.3q0 0.9-0.5 1.5-0.5 0.6-1.3 0.8 0.8 0.2 1.3 0.9 0.5 0.6 0.5 1.5v3.3q0 1 0.3 1.5 0.4 0.5 1.2 0.5h0.6zm-56.4 14q0 5.3-3.7 5.3-2.3 0-3.1-1.8h-0.1q0 0.1 0 1.6v3.9h-1.6v-11.9q0-1.6-0.1-2.1h1.6q0 0.1 0.1 0.3 0 0.2 0 0.7 0 0.5 0 0.6h0.1q0.4-0.9 1.1-1.3 0.8-0.4 2-0.4 1.8 0 2.7 1.2 1 1.2 1 3.9zm-1.8 0q0-2.1-0.6-3-0.5-0.9-1.8-0.9-0.9 0-1.5 0.5-0.6 0.4-0.9 1.3-0.3 0.8-0.3 2.3 0 1.9 0.7 2.9 0.6 0.9 2 0.9 1.3 0 1.8-0.9 0.6-0.9 0.6-3.1zm5.6 5.1h-1.7v-7.7q0-1.1-0.1-2.4h1.6q0.1 1.7 0.1 2.1 0.4-1.3 0.9-1.8 0.6-0.5 1.5-0.5 0.3 0 0.7 0.1v1.6q-0.4-0.1-0.9-0.1-1.1 0-1.6 0.9-0.5 0.9-0.5 2.5zm13.1-5q0 2.6-1.2 3.9-1.2 1.3-3.4 1.3-2.2 0-3.3-1.3-1.1-1.4-1.1-3.9 0-5.2 4.5-5.2 2.3 0 3.4 1.3 1.1 1.2 1.1 3.9zm-1.8 0q0-2.1-0.6-3-0.6-1-2.1-1-1.5 0-2.1 1-0.7 1-0.7 3 0 2 0.7 3 0.6 1 2 1 1.5 0 2.2-1 0.6-0.9 0.6-3zm11.9 5h-1.9l-2.7-4.1-2.7 4.1h-1.8l3.5-5.1-3.4-4.9h1.9l2.5 3.9 2.5-3.9h1.8l-3.4 4.9zm2 3.9q-0.7 0-1.1-0.1v-1.3q0.3 0.1 0.7 0.1 1.6 0 2.5-2.3l0.2-0.4-4-10h1.8l2.1 5.6q0 0.1 0.1 0.3 0.1 0.2 0.4 1.2 0.4 1 0.4 1.1l0.6-1.8 2.2-6.4h1.8l-3.9 10.1q-0.6 1.6-1.1 2.4-0.6 0.7-1.2 1.1-0.7 0.4-1.5 0.4zm18.5-0.2h-11v-1.2h11zm9.6-8.8q0 5.2-3.7 5.2-2.3 0-3.1-1.7h-0.1q0.1 0.1 0.1 1.6v3.9h-1.7v-11.9q0-1.6-0.1-2.1h1.6q0.1 0.1 0.1 0.3 0 0.2 0 0.7 0 0.5 0 0.6h0.1q0.4-0.9 1.2-1.3 0.7-0.5 1.9-0.5 1.8 0 2.8 1.3 0.9 1.2 0.9 3.9zm-1.8 0q0-2.1-0.5-3-0.6-0.9-1.8-0.9-1 0-1.6 0.4-0.6 0.5-0.9 1.4-0.2 0.8-0.2 2.3 0 1.9 0.6 2.9 0.6 0.9 2 0.9 1.3 0 1.8-0.9 0.6-0.9 0.6-3.1zm6.4 5.2q-1.5 0-2.3-0.8-0.7-0.8-0.7-2.1 0-1.6 1-2.4 1-0.9 3.3-0.9l2.3-0.1v-0.5q0-1.2-0.6-1.8-0.5-0.5-1.6-0.5-1.1 0-1.6 0.4-0.5 0.4-0.6 1.2l-1.8-0.2q0.5-2.7 4.1-2.7 1.8 0 2.8 0.9 1 0.9 1 2.5v4.3q0 0.8 0.2 1.2 0.1 0.3 0.7 0.3 0.2 0 0.5 0v1q-0.6 0.1-1.2 0.1-1 0-1.4-0.4-0.4-0.5-0.5-1.6-0.7 1.2-1.5 1.7-0.9 0.4-2.1 0.4zm0.4-1.2q0.9 0 1.6-0.4 0.7-0.4 1.1-1.2 0.5-0.7 0.5-1.5v-0.8h-1.9q-1.1 0.1-1.8 0.3-0.6 0.2-0.9 0.7-0.3 0.4-0.3 1.2 0 0.8 0.4 1.2 0.5 0.5 1.3 0.5zm15.2-1.7q0 1.4-1.1 2.2-1.1 0.7-3 0.7-1.9 0-2.9-0.6-1-0.6-1.3-1.9l1.4-0.3q0.3 0.8 0.9 1.2 0.7 0.4 1.9 0.4 1.3 0 1.8-0.4 0.6-0.4 0.6-1.2 0-0.6-0.4-1-0.4-0.3-1.3-0.6l-1.2-0.3q-1.4-0.4-2-0.7-0.6-0.4-1-0.9-0.3-0.5-0.3-1.2 0-1.4 0.9-2.1 1-0.7 2.9-0.7 1.7 0 2.6 0.5 1 0.6 1.3 1.9l-1.5 0.2q-0.2-0.7-0.8-1-0.6-0.4-1.6-0.4-1.1 0-1.7 0.4-0.5 0.3-0.5 1 0 0.4 0.2 0.7 0.2 0.3 0.7 0.5 0.4 0.2 1.8 0.5 1.3 0.4 1.9 0.6 0.6 0.3 0.9 0.7 0.4 0.3 0.6 0.8 0.2 0.4 0.2 1zm9.5 0q0 1.4-1.1 2.2-1.1 0.7-3 0.7-1.9 0-2.9-0.6-1-0.6-1.3-1.9l1.4-0.3q0.3 0.8 0.9 1.2 0.7 0.4 1.9 0.4 1.3 0 1.8-0.4 0.6-0.4 0.6-1.2 0-0.6-0.4-1-0.4-0.3-1.3-0.6l-1.2-0.3q-1.4-0.4-2-0.7-0.6-0.4-1-0.9-0.3-0.5-0.3-1.2 0-1.4 0.9-2.1 1-0.7 2.9-0.7 1.7 0 2.6 0.5 1 0.6 1.3 1.9l-1.5 0.2q-0.2-0.7-0.8-1-0.6-0.4-1.6-0.4-1.1 0-1.7 0.4-0.5 0.3-0.5 1 0 0.4 0.2 0.7 0.2 0.3 0.7 0.5 0.4 0.2 1.8 0.5 1.3 0.4 1.9 0.6 0.6 0.3 0.9 0.7 0.4 0.3 0.6 0.8 0.2 0.4 0.2 1zm8.8-5.6h0.1q0.5-1 1.2-1.4 0.8-0.5 2-0.5 1.6 0 2.4 0.8 0.8 0.9 0.8 2.8v6.7h-1.7v-6.4q0-1.1-0.2-1.6-0.2-0.5-0.7-0.7-0.4-0.3-1.2-0.3-1.2 0-1.9 0.8-0.7 0.9-0.7 2.2v6h-1.7v-13.8h1.7v3.6q0 0.5 0 1.1-0.1 0.6-0.1 0.7zm12.8 7v1.3q-0.8 0.2-1.7 0.2-2 0-2-2.3v-6.7h-1.1v-1.2h1.2l0.5-2.2h1.1v2.2h1.9v1.2h-1.9v6.4q0 0.7 0.2 1 0.3 0.3 0.9 0.3 0.3 0 0.9-0.2zm5.3 0v1.3q-0.8 0.2-1.7 0.2-2 0-2-2.3v-6.7h-1.1v-1.2h1.2l0.5-2.2h1.1v2.2h1.8v1.2h-1.8v6.4q0 0.7 0.2 1 0.3 0.3 0.8 0.3 0.4 0 1-0.2zm9.9-3.7q0 5.2-3.7 5.2-2.3 0-3.1-1.7 0 0.1 0 1.6v3.9h-1.7v-11.9q0-1.6 0-2.1h1.6q0 0.1 0 0.3 0 0.2 0 0.7 0.1 0.5 0.1 0.6 0.5-0.9 1.2-1.3 0.7-0.5 1.9-0.5 1.9 0 2.8 1.3 0.9 1.2 0.9 3.9zm-1.7 0q0-2.1-0.6-3-0.6-0.9-1.8-0.9-1 0-1.6 0.4-0.5 0.5-0.8 1.4-0.3 0.8-0.3 2.3 0 1.9 0.6 2.9 0.7 0.9 2.1 0.9 1.2 0 1.8-0.9 0.6-0.9 0.6-3.1zm11.3 2.3q0 1.4-1.1 2.2-1 0.7-2.9 0.7-1.9 0-2.9-0.6-1.1-0.6-1.4-1.9l1.5-0.3q0.2 0.8 0.9 1.2 0.7 0.4 1.9 0.4 1.2 0 1.8-0.4 0.6-0.4 0.6-1.2 0-0.6-0.4-1-0.4-0.3-1.3-0.6l-1.2-0.3q-1.5-0.4-2.1-0.7-0.6-0.4-0.9-0.9-0.4-0.5-0.4-1.2 0-1.4 1-2.1 1-0.7 2.9-0.7 1.6 0 2.6 0.5 1 0.6 1.2 1.9l-1.5 0.2q-0.1-0.7-0.7-1-0.6-0.4-1.6-0.4-1.2 0-1.7 0.4-0.5 0.3-0.5 1 0 0.4 0.2 0.7 0.2 0.3 0.6 0.5 0.5 0.2 1.9 0.5 1.3 0.4 1.9 0.6 0.6 0.3 0.9 0.7 0.4 0.3 0.5 0.8 0.2 0.4 0.2 1zm4.3-5.4h-1.9v-1.9h1.9zm0 8.1h-1.9v-1.9h1.9zm3.2 0.2h-1.5l3.8-14h1.5zm5.2 0h-1.5l3.9-13.9h1.4zm5-10.2h1.7v6.3q0 1 0.2 1.6 0.2 0.5 0.6 0.8 0.5 0.2 1.3 0.2 1.2 0 1.9-0.8 0.7-0.9 0.7-2.3v-5.8h1.6v7.9q0 1.7 0.1 2.1h-1.6q0 0 0-0.2 0-0.2 0-0.5 0-0.3 0-1h-0.1q-0.6 1-1.3 1.5-0.8 0.4-1.9 0.4-1.6 0-2.4-0.8-0.8-0.9-0.8-2.7zm19.1 4.9q0 5.3-3.7 5.3-2.3 0-3.1-1.8 0 0.1 0 1.6v3.9h-1.7v-11.9q0-1.5 0-2h1.6q0 0 0 0.2 0.1 0.2 0.1 0.7 0 0.5 0 0.7 0.5-1 1.2-1.4 0.7-0.4 1.9-0.4 1.9 0 2.8 1.2 0.9 1.3 0.9 3.9zm-1.7 0.1q0-2.1-0.6-3-0.6-0.9-1.8-0.9-1 0-1.5 0.4-0.6 0.4-0.9 1.3-0.3 0.9-0.3 2.3 0 2 0.6 2.9 0.7 0.9 2.1 0.9 1.2 0 1.8-0.9 0.6-0.9 0.6-3zm11.3 2.2q0 1.4-1 2.2-1.1 0.8-3 0.8-1.9 0-2.9-0.6-1-0.7-1.3-2l1.4-0.2q0.2 0.8 0.9 1.1 0.7 0.4 1.9 0.4 1.2 0 1.8-0.4 0.6-0.4 0.6-1.1 0-0.6-0.4-1-0.4-0.4-1.3-0.6l-1.2-0.3q-1.4-0.4-2.1-0.8-0.6-0.3-0.9-0.8-0.3-0.5-0.3-1.3 0-1.4 0.9-2.1 1-0.7 2.9-0.7 1.7 0 2.6 0.6 1 0.6 1.3 1.9l-1.5 0.1q-0.2-0.6-0.8-1-0.6-0.3-1.6-0.3-1.1 0-1.7 0.3-0.5 0.3-0.5 1 0 0.5 0.2 0.7 0.2 0.3 0.7 0.5 0.4 0.2 1.8 0.6 1.3 0.3 1.9 0.6 0.6 0.3 0.9 0.6 0.4 0.3 0.6 0.8 0.1 0.4 0.1 1zm5.9 1.5v1.2q-0.9 0.2-1.7 0.2-2 0-2-2.2v-6.7h-1.2v-1.2h1.2l0.5-2.3h1.1v2.3h1.9v1.2h-1.9v6.3q0 0.7 0.3 1 0.2 0.3 0.8 0.3 0.3 0 1-0.1zm3.1 1.3h-1.7v-7.7q0-1.1 0-2.3h1.5q0.1 1.7 0.1 2h0.1q0.4-1.3 0.9-1.8 0.5-0.4 1.4-0.4 0.4 0 0.7 0.1v1.5q-0.3-0.1-0.9-0.1-1 0-1.6 0.9-0.5 0.9-0.5 2.6zm13.1-4.7h-7.2q0 1.7 0.7 2.7 0.7 0.9 2.1 0.9 1.1 0 1.7-0.4 0.7-0.5 0.9-1.1l1.5 0.4q-0.9 2.3-4.1 2.3-2.2 0-3.4-1.3-1.2-1.3-1.2-3.9 0-2.5 1.2-3.8 1.2-1.4 3.3-1.4 4.5 0 4.5 5.4zm-7.2-1.3h5.4q-0.1-1.6-0.8-2.3-0.6-0.8-1.9-0.8-1.2 0-1.9 0.9-0.7 0.8-0.8 2.2zm11.8 6.1q-1.5 0-2.2-0.8-0.8-0.8-0.8-2.2 0-1.5 1-2.4 1.1-0.8 3.3-0.8l2.3-0.1v-0.5q0-1.3-0.5-1.8-0.5-0.5-1.7-0.5-1.1 0-1.6 0.4-0.5 0.3-0.6 1.2l-1.7-0.2q0.4-2.7 4-2.7 1.9 0 2.8 0.9 1 0.9 1 2.5v4.3q0 0.8 0.2 1.1 0.2 0.4 0.7 0.4 0.3 0 0.6-0.1v1.1q-0.7 0.1-1.3 0.1-0.9 0-1.4-0.5-0.4-0.4-0.4-1.5h-0.1q-0.6 1.2-1.5 1.7-0.8 0.4-2.1 0.4zm0.4-1.2q0.9 0 1.7-0.4 0.7-0.5 1.1-1.2 0.4-0.7 0.4-1.5v-0.8h-1.8q-1.2 0-1.8 0.3-0.6 0.2-0.9 0.6-0.4 0.5-0.4 1.3 0 0.8 0.5 1.2 0.4 0.5 1.2 0.5zm15.1 1h-1.6v-6.3q0-1.5-0.4-2-0.4-0.6-1.4-0.6-1.1 0-1.7 0.8-0.7 0.8-0.7 2.3v5.8h-1.6v-7.9q0-1.7-0.1-2.1h1.6q0 0 0 0.3 0 0.2 0 0.4 0.1 0.3 0.1 1 0.6-1 1.2-1.5 0.7-0.4 1.7-0.4 1.2 0 1.8 0.5 0.7 0.4 1 1.4 0.5-1 1.3-1.4 0.7-0.5 1.7-0.5 1.6 0 2.3 0.8 0.6 0.9 0.6 2.8v6.6h-1.6v-6.3q0-1.5-0.4-2-0.4-0.6-1.4-0.6-1.1 0-1.7 0.8-0.7 0.8-0.7 2.3zm16.8-4.6h-7.1q0 1.7 0.7 2.6 0.7 1 2.1 1 1 0 1.7-0.5 0.7-0.4 0.9-1.1l1.5 0.4q-0.9 2.4-4.1 2.4-2.3 0-3.4-1.3-1.2-1.3-1.2-4 0-2.4 1.2-3.8 1.1-1.3 3.3-1.3 4.4 0 4.4 5.3zm-7.1-1.2h5.4q-0.1-1.6-0.8-2.4-0.7-0.7-1.9-0.7-1.2 0-2 0.8-0.7 0.8-0.7 2.3zm17.3 5.9h-1.9l-2.7-4.1-2.7 4.1h-1.8l3.6-5.2-3.5-4.8h1.9l2.5 3.9 2.5-3.9h1.8l-3.4 4.8zm10-4.6h-7.2q0 1.7 0.7 2.6 0.7 1 2.1 1 1.1 0 1.7-0.5 0.7-0.4 0.9-1.1l1.5 0.4q-0.9 2.4-4.1 2.4-2.2 0-3.4-1.3-1.1-1.3-1.1-4 0-2.4 1.1-3.8 1.2-1.3 3.3-1.3 4.5 0 4.5 5.3zm-7.2-1.2h5.4q-0.1-1.6-0.8-2.4-0.6-0.7-1.9-0.7-1.2 0-1.9 0.8-0.7 0.8-0.8 2.3zm16.8 5.9h-1.7v-6.4q0-1.4-0.4-2-0.4-0.5-1.4-0.5-1.1 0-1.7 0.8-0.6 0.8-0.6 2.3v5.8h-1.7v-7.9q0-1.7 0-2.1h1.6q0 0 0 0.2 0 0.2 0 0.5 0 0.2 0 1h0.1q0.5-1.1 1.2-1.5 0.7-0.4 1.7-0.4 1.1 0 1.8 0.4 0.7 0.5 0.9 1.5 0.6-1 1.3-1.5 0.7-0.4 1.8-0.4 1.5 0 2.2 0.8 0.7 0.8 0.7 2.7v6.7h-1.7v-6.4q0-1.4-0.4-2-0.4-0.5-1.4-0.5-1.1 0-1.7 0.8-0.6 0.8-0.6 2.3zm16.8-5.1q0 5.3-3.7 5.3-2.3 0-3.1-1.8 0 0.1 0 1.6v3.9h-1.7v-11.9q0-1.6 0-2.1h1.6q0 0.1 0 0.3 0 0.2 0 0.7 0.1 0.5 0.1 0.7 0.5-1 1.2-1.4 0.7-0.4 1.9-0.4 1.9 0 2.8 1.2 0.9 1.3 0.9 3.9zm-1.7 0.1q0-2.1-0.6-3-0.6-0.9-1.8-0.9-1 0-1.6 0.4-0.5 0.4-0.8 1.3-0.3 0.9-0.3 2.3 0 2 0.6 2.9 0.7 0.9 2.1 0.9 1.2 0 1.8-0.9 0.6-0.9 0.6-3zm5.5 5h-1.7v-13.8h1.7zm11-5q0 2.6-1.2 3.9-1.1 1.3-3.3 1.3-2.2 0-3.3-1.3-1.2-1.4-1.2-3.9 0-5.2 4.5-5.2 2.3 0 3.4 1.3 1.1 1.2 1.1 3.9zm-1.8 0q0-2.1-0.6-3-0.6-1-2-1-1.5 0-2.2 1-0.6 0.9-0.6 3 0 2 0.6 3 0.7 1 2.1 1 1.5 0 2.1-1 0.6-1 0.6-3zm6.1 5h-1.8v-2h1.8zm4.3-5.1q0 2 0.7 3 0.6 1 1.9 1 0.9 0 1.4-0.5 0.6-0.5 0.8-1.5l1.7 0.1q-0.2 1.4-1.3 2.3-1 0.9-2.6 0.9-2.1 0-3.2-1.4-1.1-1.3-1.1-3.8 0-2.6 1.1-3.9 1.1-1.3 3.2-1.3 1.5 0 2.5 0.8 1.1 0.8 1.3 2.2l-1.7 0.1q-0.1-0.8-0.7-1.3-0.5-0.5-1.5-0.5-1.3 0-1.9 0.8-0.6 0.9-0.6 3zm16.7 0.1q0 2.6-1.1 3.9-1.2 1.3-3.4 1.3-2.2 0-3.3-1.4-1.1-1.3-1.1-3.8 0-5.2 4.5-5.2 2.3 0 3.4 1.2 1 1.3 1 4zm-1.7 0q0-2.1-0.6-3.1-0.6-0.9-2.1-0.9-1.5 0-2.1 1-0.7 0.9-0.7 3 0 1.9 0.7 2.9 0.6 1 2 1 1.5 0 2.1-0.9 0.7-1 0.7-3zm11.3 5h-1.6v-6.4q0-1.4-0.4-2-0.4-0.6-1.5-0.6-1 0-1.7 0.9-0.6 0.8-0.6 2.3v5.8h-1.6v-7.9q0-1.8-0.1-2.2h1.6q0 0.1 0 0.3 0 0.2 0 0.5 0 0.2 0.1 1 0.5-1.1 1.2-1.5 0.7-0.4 1.7-0.4 1.2 0 1.8 0.4 0.7 0.5 0.9 1.5h0.1q0.5-1 1.2-1.5 0.8-0.4 1.8-0.4 1.5 0 2.2 0.8 0.7 0.8 0.7 2.7v6.7h-1.6v-6.4q0-1.4-0.4-2-0.4-0.6-1.5-0.6-1.1 0-1.7 0.9-0.6 0.8-0.6 2.3zm8.8-2h1.8v1.5q0 1-0.1 1.6-0.2 0.7-0.6 1.3h-1.1q0.8-1.3 0.8-2.4h-0.8zm1.8-6.2h-1.8v-2h1.8zm-351.3 30.4q-1.6 0-2.3-0.8-0.8-0.8-0.8-2.2 0-1.6 1-2.4 1.1-0.9 3.4-0.9l2.2-0.1v-0.5q0-1.2-0.5-1.8-0.5-0.5-1.6-0.5-1.2 0-1.7 0.4-0.5 0.4-0.6 1.2l-1.7-0.1q0.4-2.8 4-2.8 1.9 0 2.8 0.9 1 0.9 1 2.5v4.3q0 0.8 0.2 1.2 0.2 0.3 0.7 0.3 0.3 0 0.6 0v1q-0.7 0.2-1.3 0.2-0.9 0-1.4-0.5-0.4-0.5-0.4-1.6h-0.1q-0.6 1.2-1.5 1.7-0.8 0.5-2 0.5zm0.3-1.3q1 0 1.7-0.4 0.7-0.4 1.1-1.2 0.4-0.7 0.4-1.5v-0.8l-1.8 0.1q-1.2 0-1.8 0.2-0.6 0.2-0.9 0.7-0.4 0.4-0.4 1.2 0 0.8 0.5 1.3 0.4 0.4 1.2 0.4zm8.9-4q0 2 0.7 3 0.6 0.9 1.9 0.9 0.9 0 1.4-0.4 0.7-0.5 0.8-1.5l1.7 0.1q-0.2 1.4-1.3 2.3-1 0.9-2.6 0.9-2.1 0-3.2-1.4-1.1-1.3-1.1-3.9 0-2.5 1.1-3.8 1.1-1.4 3.2-1.4 1.5 0 2.5 0.8 1.1 0.8 1.3 2.2l-1.7 0.2q-0.1-0.9-0.7-1.4-0.5-0.4-1.5-0.4-1.3 0-1.9 0.8-0.6 0.9-0.6 3zm9.5 0q0 2 0.7 3 0.6 0.9 1.9 0.9 0.9 0 1.4-0.4 0.7-0.5 0.8-1.5l1.7 0.1q-0.2 1.4-1.3 2.3-1 0.9-2.6 0.9-2.1 0-3.2-1.4-1.1-1.3-1.1-3.9 0-2.5 1.1-3.8 1.1-1.4 3.2-1.4 1.5 0 2.5 0.8 1.1 0.8 1.3 2.2l-1.7 0.2q-0.1-0.9-0.7-1.4-0.5-0.4-1.5-0.4-1.3 0-1.9 0.8-0.6 0.9-0.6 3zm16.7 0.4h-7.2q0 1.7 0.8 2.7 0.7 0.9 2 0.9 1.1 0 1.8-0.4 0.6-0.5 0.9-1.1l1.4 0.4q-0.9 2.4-4.1 2.4-2.2 0-3.4-1.4-1.1-1.3-1.1-3.9 0-2.5 1.1-3.8 1.2-1.4 3.4-1.4 4.4 0 4.4 5.4zm-7.1-1.3h5.4q-0.2-1.6-0.8-2.3-0.7-0.7-2-0.7-1.2 0-1.9 0.8-0.7 0.8-0.7 2.2zm16.8 3.2q0 1.4-1.1 2.2-1.1 0.7-3 0.7-1.9 0-2.9-0.6-1-0.6-1.3-1.9l1.4-0.3q0.3 0.8 0.9 1.2 0.7 0.4 1.9 0.4 1.3 0 1.8-0.4 0.6-0.4 0.6-1.2 0-0.6-0.4-1-0.4-0.3-1.3-0.6l-1.2-0.3q-1.4-0.4-2-0.7-0.6-0.4-1-0.9-0.3-0.5-0.3-1.2 0-1.4 0.9-2.1 1-0.8 2.9-0.8 1.7 0 2.6 0.6 1 0.6 1.3 1.9l-1.5 0.2q-0.2-0.7-0.8-1-0.6-0.4-1.6-0.4-1.1 0-1.7 0.4-0.5 0.3-0.5 1 0 0.4 0.2 0.7 0.2 0.3 0.7 0.5 0.4 0.2 1.8 0.5 1.3 0.3 1.9 0.6 0.6 0.3 0.9 0.7 0.4 0.3 0.6 0.8 0.2 0.4 0.2 1zm9.5 0q0 1.4-1.1 2.2-1.1 0.7-3 0.7-1.9 0-2.9-0.6-1-0.6-1.3-1.9l1.4-0.3q0.3 0.8 0.9 1.2 0.7 0.4 1.9 0.4 1.3 0 1.8-0.4 0.6-0.4 0.6-1.2 0-0.6-0.4-1-0.4-0.3-1.3-0.6l-1.2-0.3q-1.4-0.4-2-0.7-0.6-0.4-1-0.9-0.3-0.5-0.3-1.2 0-1.4 0.9-2.1 1-0.8 2.9-0.8 1.7 0 2.6 0.6 1 0.6 1.3 1.9l-1.5 0.2q-0.2-0.7-0.8-1-0.6-0.4-1.6-0.4-1.1 0-1.7 0.4-0.5 0.3-0.5 1 0 0.4 0.2 0.7 0.2 0.3 0.7 0.5 0.4 0.2 1.8 0.5 1.3 0.3 1.9 0.6 0.6 0.3 0.9 0.7 0.4 0.3 0.6 0.8 0.2 0.4 0.2 1zm11.4 6.5h-11v-1.2h11zm2.8-3.8h-1.7v-13.7h1.7zm11-5.1q0 2.7-1.2 4-1.1 1.3-3.3 1.3-2.2 0-3.3-1.4-1.2-1.3-1.2-3.9 0-5.2 4.5-5.2 2.3 0 3.4 1.3 1.1 1.3 1.1 3.9zm-1.8 0q0-2-0.6-3-0.6-0.9-2-0.9-1.5 0-2.2 0.9-0.6 1-0.6 3 0 2 0.6 3 0.7 1 2.1 1 1.5 0 2.1-0.9 0.6-1 0.6-3.1zm7.7 9q-1.7 0-2.6-0.6-1-0.7-1.3-1.9l1.7-0.2q0.2 0.7 0.7 1.1 0.6 0.3 1.5 0.3 2.5 0 2.5-2.9v-1.6q-0.5 1-1.3 1.5-0.8 0.4-1.9 0.4-1.9 0-2.7-1.2-0.9-1.2-0.9-3.8 0-2.7 0.9-4 1-1.2 2.9-1.2 1 0 1.8 0.5 0.8 0.4 1.2 1.3 0-0.2 0.1-0.9 0-0.7 0.1-0.8h1.5q0 0.5 0 2.1v7.7q0 4.2-4.2 4.2zm2.5-8.9q0-1.3-0.3-2.2-0.3-0.8-1-1.3-0.6-0.5-1.3-0.5-1.3 0-1.9 0.9-0.6 1-0.6 3.1 0 2 0.6 2.9 0.5 0.9 1.8 0.9 0.8 0 1.4-0.5 0.7-0.4 1-1.3 0.3-0.9 0.3-2zm9.7 5.2h-1.5l3.9-14h1.4zm13.2-10.2l-3.7 10h-2l-3.6-10h1.7l2.3 6.5q0.1 0.4 0.6 2.2l0.3-1.1 0.4-1.1 2.3-6.5zm3.9 10.2q-1.5 0-2.3-0.8-0.8-0.8-0.8-2.2 0-1.5 1.1-2.4 1-0.8 3.3-0.9h2.2v-0.6q0-1.2-0.5-1.7-0.5-0.5-1.6-0.5-1.2 0-1.7 0.3-0.5 0.4-0.6 1.3l-1.7-0.2q0.4-2.7 4-2.7 1.9 0 2.9 0.9 0.9 0.8 0.9 2.5v4.3q0 0.7 0.2 1.1 0.2 0.4 0.7 0.4 0.3 0 0.6-0.1v1.1q-0.6 0.1-1.3 0.1-0.9 0-1.3-0.5-0.5-0.5-0.5-1.5h-0.1q-0.6 1.1-1.5 1.6-0.8 0.5-2 0.5zm0.4-1.2q0.9 0 1.6-0.5 0.7-0.4 1.1-1.1 0.4-0.7 0.4-1.5v-0.8h-1.8q-1.2 0-1.8 0.2-0.6 0.3-0.9 0.7-0.3 0.5-0.3 1.2 0 0.9 0.4 1.3 0.4 0.5 1.3 0.5zm9.3 1h-1.7v-7.7q0-1 0-2.3h1.5q0.1 1.7 0.1 2 0.4-1.3 1-1.7 0.5-0.5 1.4-0.5 0.4 0 0.7 0.1v1.5q-0.3-0.1-0.9-0.1-1 0-1.6 0.9-0.5 0.9-0.5 2.6zm4.8 0.2h-1.5l3.8-14h1.5zm6.7-0.2h-1.6v-13.7h1.6zm11.1-5.1q0 2.7-1.2 4-1.2 1.3-3.4 1.3-2.2 0-3.3-1.4-1.1-1.3-1.1-3.9 0-5.2 4.5-5.2 2.3 0 3.4 1.3 1.1 1.3 1.1 3.9zm-1.8 0q0-2-0.6-3-0.6-0.9-2.1-0.9-1.4 0-2.1 0.9-0.6 1-0.6 3 0 2 0.6 3 0.6 1 2 1 1.5 0 2.2-0.9 0.6-1 0.6-3.1zm7.6 9q-1.6 0-2.6-0.6-0.9-0.7-1.2-1.9l1.7-0.2q0.1 0.7 0.7 1.1 0.6 0.3 1.5 0.3 2.5 0 2.5-2.9v-1.6q-0.5 1-1.3 1.5-0.9 0.4-2 0.4-1.8 0-2.7-1.2-0.8-1.2-0.8-3.8 0-2.7 0.9-4 0.9-1.2 2.8-1.2 1.1 0 1.9 0.5 0.8 0.4 1.2 1.3 0-0.2 0-0.9 0.1-0.7 0.1-0.8h1.6q0 0.5 0 2.1v7.7q0 4.2-4.3 4.2zm2.6-9q0-1.2-0.3-2.1-0.4-0.9-1-1.3-0.6-0.5-1.4-0.5-1.2 0-1.8 0.9-0.6 1-0.6 3 0 2.1 0.5 3 0.6 0.9 1.9 0.9 0.8 0 1.4-0.5 0.6-0.4 1-1.3 0.3-0.9 0.3-2.1zm4.4 5.3h-1.5l3.8-14h1.5zm13.1-0.2h-1.7v-6.4q0-0.9-0.2-1.5-0.1-0.5-0.6-0.8-0.4-0.2-1.2-0.2-1.2 0-1.9 0.8-0.7 0.8-0.7 2.3v5.8h-1.7v-7.9q0-1.7-0.1-2.1h1.6q0 0 0 0.2 0.1 0.2 0.1 0.5 0 0.3 0 1 0.6-1 1.4-1.5 0.7-0.4 1.8-0.4 1.7 0 2.5 0.8 0.7 0.8 0.7 2.7zm6.3 4q-1.6 0-2.6-0.7-1-0.6-1.2-1.8l1.6-0.3q0.2 0.7 0.8 1.1 0.6 0.4 1.5 0.4 2.5 0 2.5-2.9v-1.6q-0.5 0.9-1.3 1.4-0.9 0.5-2 0.5-1.8 0-2.7-1.2-0.8-1.3-0.8-3.9 0-2.6 0.9-3.9 0.9-1.3 2.8-1.3 1.1 0 1.9 0.5 0.8 0.5 1.2 1.4 0-0.3 0-1 0.1-0.7 0.1-0.7h1.6q-0.1 0.5-0.1 2.1v7.6q0 4.3-4.2 4.3zm2.6-9q0-1.2-0.4-2.1-0.3-0.9-0.9-1.4-0.6-0.4-1.4-0.4-1.3 0-1.8 0.9-0.6 0.9-0.6 3 0 2.1 0.5 3 0.6 0.9 1.9 0.9 0.8 0 1.4-0.5 0.6-0.5 0.9-1.3 0.4-0.9 0.4-2.1zm5.9-7.1h-1.7v-1.6h1.7zm0 12.1h-1.7v-10h1.7zm10.6 0h-1.7v-6.4q0-1-0.2-1.5-0.2-0.6-0.6-0.8-0.4-0.2-1.3-0.2-1.2 0-1.9 0.8-0.7 0.8-0.7 2.3v5.8h-1.6v-7.9q0-1.8-0.1-2.1h1.6q0 0 0 0.2 0 0.2 0 0.5 0 0.2 0.1 1 0.6-1.1 1.3-1.5 0.8-0.4 1.9-0.4 1.6 0 2.4 0.8 0.8 0.8 0.8 2.7zm10.5 0h-1.9l-2.7-4.1-2.7 4.1h-1.8l3.6-5.2-3.4-4.8h1.8l2.5 3.9 2.5-3.9h1.9l-3.4 4.8zm1.7 0.2h-1.5l3.8-13.9h1.5zm7.6 0q-1.5 0-2.3-0.8-0.7-0.8-0.7-2.2 0-1.6 1-2.4 1-0.9 3.3-0.9l2.2-0.1v-0.5q0-1.2-0.5-1.8-0.5-0.5-1.6-0.5-1.1 0-1.6 0.4-0.6 0.4-0.7 1.2l-1.7-0.1q0.4-2.8 4-2.8 1.9 0 2.9 0.9 0.9 0.9 0.9 2.5v4.3q0 0.8 0.2 1.2 0.2 0.3 0.8 0.3 0.2 0 0.5 0v1q-0.6 0.2-1.3 0.2-0.9 0-1.3-0.5-0.4-0.5-0.5-1.6h-0.1q-0.6 1.2-1.5 1.7-0.8 0.5-2 0.5zm0.4-1.3q0.9 0 1.6-0.4 0.7-0.4 1.1-1.2 0.4-0.7 0.4-1.5v-0.8l-1.8 0.1q-1.2 0-1.8 0.2-0.6 0.2-0.9 0.7-0.3 0.4-0.3 1.2 0 0.8 0.4 1.3 0.5 0.4 1.3 0.4zm8.9-4q0 2 0.6 3 0.6 0.9 1.9 0.9 0.9 0 1.5-0.4 0.6-0.5 0.7-1.5l1.7 0.1q-0.2 1.4-1.2 2.3-1.1 0.9-2.7 0.9-2.1 0-3.2-1.4-1.1-1.3-1.1-3.9 0-2.5 1.1-3.8 1.1-1.4 3.2-1.4 1.6 0 2.6 0.8 1 0.8 1.3 2.2l-1.8 0.2q-0.1-0.9-0.6-1.4-0.5-0.4-1.5-0.4-1.3 0-1.9 0.8-0.6 0.9-0.6 3zm9.5 0q0 2 0.6 3 0.6 0.9 1.9 0.9 0.9 0 1.5-0.4 0.6-0.5 0.7-1.5l1.7 0.1q-0.2 1.4-1.2 2.3-1.1 0.9-2.7 0.9-2.1 0-3.2-1.4-1.1-1.3-1.1-3.9 0-2.5 1.1-3.8 1.1-1.4 3.2-1.4 1.6 0 2.6 0.8 1 0.8 1.3 2.2l-1.8 0.2q-0.1-0.9-0.6-1.4-0.5-0.4-1.5-0.4-1.3 0-1.9 0.8-0.6 0.9-0.6 3zm16.6 0.4h-7.1q0 1.7 0.7 2.7 0.7 0.9 2.1 0.9 1.1 0 1.7-0.4 0.7-0.5 0.9-1.1l1.5 0.4q-0.9 2.4-4.1 2.4-2.3 0-3.4-1.4-1.2-1.3-1.2-3.9 0-2.5 1.2-3.8 1.1-1.4 3.3-1.4 4.4 0 4.4 5.4zm-7.1-1.3h5.4q-0.1-1.6-0.8-2.3-0.7-0.7-1.9-0.7-1.2 0-1.9 0.8-0.8 0.8-0.8 2.2zm16.8 3.2q0 1.4-1.1 2.2-1 0.7-3 0.7-1.9 0-2.9-0.6-1-0.6-1.3-1.9l1.5-0.3q0.2 0.8 0.9 1.2 0.6 0.4 1.8 0.4 1.3 0 1.9-0.4 0.6-0.4 0.6-1.2 0-0.6-0.4-1-0.4-0.3-1.4-0.6l-1.2-0.3q-1.4-0.4-2-0.7-0.6-0.4-0.9-0.9-0.4-0.5-0.4-1.2 0-1.4 1-2.1 1-0.7 2.8-0.7 1.7 0 2.7 0.5 1 0.6 1.2 1.9l-1.5 0.2q-0.1-0.7-0.7-1-0.6-0.4-1.7-0.4-1.1 0-1.6 0.4-0.6 0.3-0.6 1 0 0.4 0.3 0.7 0.2 0.3 0.6 0.5 0.4 0.2 1.8 0.5 1.4 0.3 2 0.6 0.5 0.3 0.9 0.7 0.3 0.3 0.5 0.8 0.2 0.4 0.2 1zm9.5 0q0 1.4-1.1 2.2-1 0.7-3 0.7-1.9 0-2.9-0.6-1-0.6-1.3-1.9l1.5-0.3q0.2 0.8 0.9 1.2 0.6 0.4 1.8 0.4 1.3 0 1.9-0.4 0.6-0.4 0.6-1.2 0-0.6-0.4-1-0.4-0.3-1.4-0.6l-1.2-0.3q-1.4-0.4-2-0.7-0.6-0.4-0.9-0.9-0.4-0.5-0.4-1.2 0-1.4 1-2.1 1-0.7 2.8-0.7 1.7 0 2.7 0.5 1 0.6 1.2 1.9l-1.5 0.2q-0.1-0.7-0.7-1-0.6-0.4-1.7-0.4-1.1 0-1.6 0.4-0.6 0.3-0.6 1 0 0.4 0.3 0.7 0.2 0.3 0.6 0.5 0.4 0.2 1.8 0.5 1.4 0.3 2 0.6 0.5 0.3 0.9 0.7 0.3 0.3 0.5 0.8 0.2 0.4 0.2 1zm10.3-4.1q0 3.4-1.2 5.2-1.2 1.8-3.5 1.8-1.5 0-2.4-0.6-1-0.7-1.4-2.1l1.6-0.2q0.5 1.6 2.2 1.6 1.5 0 2.3-1.3 0.8-1.4 0.8-3.9-0.4 0.9-1.3 1.4-0.9 0.5-2 0.5-1.7 0-2.8-1.2-1-1.2-1-3.2 0-2.1 1.1-3.2 1.2-1.2 3.2-1.2 2.2 0 3.3 1.6 1.1 1.6 1.1 4.8zm-1.8-1.6q0-1.5-0.7-2.5-0.7-1-1.9-1-1.2 0-1.9 0.9-0.7 0.8-0.7 2.2 0 1.4 0.7 2.2 0.7 0.9 1.8 0.9 0.8 0 1.4-0.4 0.6-0.3 1-0.9 0.3-0.6 0.3-1.4zm12.6 1.9q0 3.3-1.2 5-1.1 1.7-3.4 1.7-2.2 0-3.4-1.7-1.1-1.7-1.1-5 0-3.4 1.1-5 1.1-1.7 3.5-1.7 2.3 0 3.4 1.7 1.1 1.7 1.1 5zm-1.7 0q0-2.8-0.7-4.1-0.6-1.3-2.1-1.3-1.6 0-2.3 1.3-0.6 1.2-0.6 4.1 0 2.8 0.7 4.1 0.6 1.3 2.1 1.3 1.5 0 2.2-1.3 0.7-1.4 0.7-4.1zm12.2 0q0 3.3-1.1 5-1.2 1.7-3.4 1.7-2.3 0-3.4-1.7-1.1-1.7-1.1-5 0-3.4 1.1-5 1.1-1.7 3.4-1.7 2.3 0 3.4 1.7 1.1 1.7 1.1 5zm-1.7 0q0-2.8-0.6-4.1-0.7-1.3-2.2-1.3-1.5 0-2.2 1.3-0.7 1.2-0.7 4.1 0 2.8 0.7 4.1 0.7 1.3 2.2 1.3 1.5 0 2.2-1.3 0.6-1.4 0.6-4.1zm12.3 0q0 3.3-1.2 5-1.1 1.7-3.4 1.7-2.2 0-3.3-1.7-1.2-1.7-1.2-5 0-3.4 1.1-5 1.1-1.7 3.5-1.7 2.3 0 3.4 1.7 1.1 1.7 1.1 5zm-1.7 0q0-2.8-0.7-4.1-0.6-1.3-2.1-1.3-1.5 0-2.2 1.3-0.7 1.2-0.7 4.1 0 2.8 0.7 4.1 0.7 1.3 2.2 1.3 1.4 0 2.1-1.3 0.7-1.4 0.7-4.1zm6 6.5h-1.8v-2h1.8zm4.7 0h-1.7v-13.8h1.7zm11-5q0 2.7-1.1 3.9-1.2 1.3-3.4 1.3-2.2 0-3.3-1.3-1.2-1.3-1.2-3.9 0-5.2 4.5-5.2 2.3 0 3.4 1.3 1.1 1.3 1.1 3.9zm-1.7 0q0-2.1-0.7-3-0.6-0.9-2-0.9-1.5 0-2.2 0.9-0.6 1-0.6 3 0 2 0.6 3 0.7 1 2.1 1 1.5 0 2.1-1 0.7-0.9 0.7-3zm7.6 9q-1.6 0-2.6-0.6-1-0.7-1.3-1.9l1.7-0.2q0.2 0.7 0.7 1 0.6 0.4 1.5 0.4 2.5 0 2.5-2.9v-1.6q-0.5 0.9-1.3 1.4-0.8 0.5-1.9 0.5-1.9 0-2.7-1.2-0.9-1.2-0.9-3.9 0-2.6 0.9-3.9 1-1.2 2.9-1.2 1 0 1.8 0.4 0.8 0.5 1.2 1.4h0.1q0-0.3 0-0.9 0-0.7 0.1-0.8h1.6q-0.1 0.5-0.1 2.1v7.7q0 4.2-4.2 4.2zm2.5-9q0-1.2-0.3-2.1-0.3-0.9-0.9-1.3-0.6-0.5-1.4-0.5-1.3 0-1.9 0.9-0.6 1-0.6 3 0 2.1 0.6 3 0.5 0.9 1.9 0.9 0.7 0 1.4-0.5 0.6-0.4 0.9-1.3 0.3-0.9 0.3-2.1zm4.7 3.1h1.9v1.5q0 1-0.2 1.6-0.2 0.7-0.6 1.3h-1.1q0.9-1.3 0.9-2.5h-0.9zm1.9-6.1h-1.9v-2h1.9zm-344.6 26.5h-7.1q0 1.7 0.7 2.6 0.7 1 2.1 1 1.1 0 1.7-0.5 0.7-0.4 0.9-1.1l1.5 0.5q-0.9 2.3-4.1 2.3-2.2 0-3.4-1.3-1.2-1.3-1.2-3.9 0-2.5 1.2-3.8 1.2-1.4 3.3-1.4 4.4 0 4.4 5.4zm-7.1-1.3h5.4q-0.1-1.6-0.8-2.3-0.7-0.8-1.9-0.8-1.2 0-1.9 0.9-0.7 0.8-0.8 2.2zm11 5.9h-1.7v-7.7q0-1 0-2.3h1.5q0.1 1.7 0.1 2 0.4-1.3 1-1.7 0.5-0.5 1.4-0.5 0.4 0 0.7 0.1v1.5q-0.3-0.1-0.9-0.1-1 0-1.6 0.9-0.5 0.9-0.5 2.6zm6.3 0h-1.7v-7.7q0-1.1 0-2.3h1.6q0 1.7 0 2h0.1q0.4-1.3 0.9-1.8 0.5-0.4 1.5-0.4 0.3 0 0.6 0.1v1.5q-0.3-0.1-0.9-0.1-1 0-1.5 0.9-0.6 0.9-0.6 2.6zm13.1-5.1q0 2.7-1.1 4-1.2 1.2-3.4 1.2-2.2 0-3.3-1.3-1.2-1.3-1.2-3.9 0-5.2 4.5-5.2 2.3 0 3.4 1.3 1.1 1.3 1.1 3.9zm-1.7 0q0-2-0.7-3-0.6-0.9-2-0.9-1.5 0-2.2 0.9-0.6 1-0.6 3 0 2 0.6 3 0.7 1 2.1 1 1.5 0 2.1-1 0.7-0.9 0.7-3zm5.5 5.1h-1.7v-7.7q0-1.1 0-2.4h1.6q0 1.7 0 2.1h0.1q0.4-1.3 0.9-1.8 0.5-0.5 1.4-0.5 0.4 0 0.7 0.1v1.6q-0.3-0.1-0.9-0.1-1 0-1.6 0.9-0.5 0.9-0.5 2.5zm14.1 3.8h-11v-1.2h11zm2.8-3.8h-1.7v-13.7h1.7zm11-5.1q0 2.7-1.2 4-1.1 1.2-3.3 1.2-2.2 0-3.4-1.3-1.1-1.3-1.1-3.9 0-5.2 4.5-5.2 2.3 0 3.4 1.3 1.1 1.3 1.1 3.9zm-1.8 0q0-2.1-0.6-3-0.6-0.9-2-0.9-1.5 0-2.2 0.9-0.6 1-0.6 3 0 2 0.6 3 0.7 1 2.1 1 1.5 0 2.1-1 0.6-0.9 0.6-3zm7.7 9q-1.7 0-2.6-0.6-1-0.7-1.3-1.9l1.7-0.2q0.2 0.7 0.7 1.1 0.6 0.3 1.5 0.3 2.5 0 2.5-2.9v-1.6q-0.5 1-1.3 1.4-0.8 0.5-1.9 0.5-1.9 0-2.7-1.2-0.9-1.2-0.9-3.8 0-2.7 0.9-4 1-1.2 2.9-1.2 1 0 1.8 0.5 0.8 0.4 1.2 1.3 0-0.2 0.1-0.9 0-0.7 0.1-0.8h1.5q0 0.5 0 2.1v7.7q0 4.2-4.2 4.2zm2.5-9q0-1.2-0.3-2.1-0.3-0.9-1-1.3-0.6-0.5-1.3-0.5-1.3 0-1.9 0.9-0.6 1-0.6 3 0 2.1 0.6 3 0.5 0.9 1.8 0.9 0.8 0 1.4-0.5 0.7-0.4 1-1.3 0.3-0.9 0.3-2.1zm9.7 5.2h-1.5l3.9-13.9h1.4zm13.2-10.2l-3.7 10h-2l-3.6-10h1.7l2.3 6.5q0.1 0.4 0.6 2.2l0.3-1.1 0.4-1.1 2.3-6.5zm3.9 10.2q-1.5 0-2.3-0.8-0.8-0.8-0.8-2.2 0-1.6 1.1-2.4 1-0.8 3.3-0.9h2.2v-0.6q0-1.2-0.5-1.7-0.5-0.6-1.6-0.6-1.2 0-1.7 0.4-0.5 0.4-0.6 1.2l-1.7-0.1q0.4-2.7 4-2.7 1.9 0 2.9 0.8 0.9 0.9 0.9 2.6v4.3q0 0.7 0.2 1.1 0.2 0.4 0.7 0.4 0.3 0 0.6-0.1v1q-0.6 0.2-1.3 0.2-0.9 0-1.4-0.5-0.4-0.5-0.4-1.5h-0.1q-0.6 1.1-1.5 1.6-0.8 0.5-2 0.5zm0.3-1.3q1 0 1.7-0.4 0.7-0.4 1.1-1.1 0.4-0.8 0.4-1.5v-0.9l-1.8 0.1q-1.2 0-1.8 0.2-0.6 0.2-0.9 0.7-0.4 0.5-0.4 1.2 0 0.8 0.5 1.3 0.4 0.4 1.2 0.4zm9.4 1.1h-1.7v-7.7q0-1.1 0-2.3h1.5q0.1 1.7 0.1 2 0.4-1.3 1-1.7 0.5-0.5 1.4-0.5 0.4 0 0.7 0.1v1.5q-0.3-0.1-0.9-0.1-1 0-1.6 0.9-0.5 0.9-0.5 2.6zm4.8 0.2h-1.5l3.8-14h1.5zm6.7-0.2h-1.6v-13.8h1.6zm11.1-5q0 2.7-1.2 3.9-1.2 1.3-3.4 1.3-2.2 0-3.3-1.3-1.1-1.3-1.1-3.9 0-5.2 4.5-5.2 2.3 0 3.4 1.3 1.1 1.3 1.1 3.9zm-1.8 0q0-2.1-0.6-3-0.6-0.9-2.1-0.9-1.4 0-2.1 0.9-0.7 1-0.7 3 0 2 0.7 3 0.6 1 2 1 1.5 0 2.2-1 0.6-0.9 0.6-3zm7.6 9q-1.6 0-2.6-0.6-0.9-0.7-1.2-1.9l1.7-0.2q0.1 0.7 0.7 1 0.6 0.4 1.5 0.4 2.5 0 2.5-2.9v-1.6q-0.5 0.9-1.3 1.4-0.9 0.5-2 0.5-1.8 0-2.7-1.2-0.8-1.2-0.8-3.9 0-2.6 0.9-3.9 0.9-1.2 2.8-1.2 1.1 0 1.9 0.4 0.8 0.5 1.2 1.4 0-0.3 0-0.9 0.1-0.7 0.1-0.8h1.6q-0.1 0.5-0.1 2.1v7.7q0 4.2-4.2 4.2zm2.6-9q0-1.2-0.3-2.1-0.4-0.9-1-1.3-0.6-0.5-1.4-0.5-1.2 0-1.8 0.9-0.6 1-0.6 3 0 2.1 0.5 3 0.6 0.9 1.9 0.9 0.8 0 1.4-0.5 0.6-0.4 1-1.3 0.3-0.9 0.3-2.1zm4.4 5.2h-1.5l3.8-13.9h1.5zm13.1-0.2h-1.7v-6.4q0-1-0.2-1.5-0.2-0.6-0.6-0.8-0.4-0.2-1.2-0.2-1.2 0-1.9 0.8-0.7 0.8-0.7 2.3v5.8h-1.7v-7.9q0-1.8-0.1-2.1h1.6q0 0 0 0.2 0 0.2 0.1 0.5 0 0.2 0 1 0.6-1.1 1.4-1.5 0.7-0.4 1.8-0.4 1.7 0 2.4 0.8 0.8 0.8 0.8 2.7zm6.3 3.9q-1.6 0-2.6-0.6-1-0.6-1.2-1.8l1.6-0.3q0.2 0.7 0.8 1.1 0.6 0.4 1.5 0.4 2.5 0 2.5-2.9v-1.7q-0.5 1-1.3 1.5-0.9 0.5-2 0.5-1.8 0-2.7-1.2-0.9-1.3-0.9-3.9 0-2.7 1-3.9 0.9-1.3 2.8-1.3 1.1 0 1.9 0.5 0.7 0.5 1.2 1.4 0-0.3 0-1 0.1-0.7 0.1-0.7h1.6q-0.1 0.5-0.1 2v7.7q0 4.2-4.2 4.2zm2.6-8.9q0-1.2-0.4-2.1-0.3-0.9-0.9-1.4-0.6-0.4-1.4-0.4-1.3 0-1.8 0.9-0.6 0.9-0.6 3 0 2 0.5 2.9 0.6 0.9 1.9 0.9 0.8 0 1.4-0.4 0.6-0.5 0.9-1.3 0.4-0.9 0.4-2.1zm5.9-7.2h-1.7v-1.6h1.7zm0 12.2h-1.7v-10h1.7zm10.6 0h-1.7v-6.4q0-1-0.2-1.5-0.2-0.6-0.6-0.8-0.5-0.3-1.3-0.3-1.2 0-1.9 0.9-0.7 0.8-0.7 2.3v5.8h-1.6v-7.9q0-1.8-0.1-2.2h1.6q0 0.1 0 0.3 0 0.2 0 0.5 0 0.2 0.1 1 0.6-1.1 1.3-1.5 0.8-0.5 1.9-0.5 1.6 0 2.4 0.9 0.8 0.8 0.8 2.7zm10.5 0h-1.9l-2.7-4.1-2.7 4.1h-1.8l3.6-5.2-3.4-4.9h1.8l2.5 4 2.5-4h1.9l-3.4 4.9zm1.7 0.2h-1.5l3.8-14h1.5zm13.5-4.8h-7.2q0 1.7 0.7 2.6 0.7 1 2.1 1 1.1 0 1.7-0.4 0.7-0.5 0.9-1.2l1.5 0.5q-0.9 2.3-4.1 2.3-2.2 0-3.4-1.3-1.2-1.3-1.2-3.9 0-2.5 1.2-3.8 1.2-1.4 3.3-1.4 4.5 0 4.5 5.4zm-7.2-1.3h5.4q-0.1-1.6-0.8-2.3-0.6-0.8-1.9-0.8-1.2 0-1.9 0.9-0.7 0.8-0.8 2.2zm11 5.9h-1.7v-7.7q0-1 0-2.3h1.5q0.1 1.7 0.1 2h0.1q0.4-1.2 0.9-1.7 0.5-0.5 1.4-0.5 0.4 0 0.7 0.1v1.5q-0.3-0.1-0.9-0.1-1 0-1.6 0.9-0.5 0.9-0.5 2.6zm6.3 0h-1.6v-7.7q0-1.1-0.1-2.3h1.6q0 1.7 0 2h0.1q0.4-1.3 0.9-1.8 0.5-0.4 1.5-0.4 0.3 0 0.6 0.1v1.5q-0.3-0.1-0.8-0.1-1.1 0-1.6 0.9-0.6 0.9-0.6 2.6zm13.1-5.1q0 2.7-1.1 4-1.2 1.3-3.4 1.3-2.2 0-3.3-1.4-1.1-1.3-1.1-3.9 0-5.2 4.5-5.2 2.3 0 3.3 1.3 1.1 1.3 1.1 3.9zm-1.7 0q0-2-0.6-3-0.7-0.9-2.1-0.9-1.5 0-2.1 0.9-0.7 1-0.7 3 0 2 0.7 3 0.6 1 2 1 1.5 0 2.1-0.9 0.7-1 0.7-3.1zm5.5 5.1h-1.7v-7.7q0-1.1 0-2.4h1.6q0 1.7 0 2.1h0.1q0.4-1.3 0.9-1.8 0.5-0.5 1.5-0.5 0.3 0 0.6 0.1v1.6q-0.3-0.1-0.8-0.1-1.1 0-1.6 0.9-0.6 0.9-0.6 2.5zm13-6.8q0 3.4-1.2 5.2-1.2 1.8-3.5 1.8-1.5 0-2.5-0.6-0.9-0.7-1.3-2.1l1.6-0.3q0.5 1.7 2.2 1.7 1.5 0 2.2-1.4 0.8-1.3 0.9-3.8-0.4 0.9-1.3 1.4-0.9 0.5-2 0.5-1.7 0-2.8-1.2-1.1-1.2-1.1-3.2 0-2.1 1.2-3.3 1.1-1.1 3.2-1.1 2.2 0 3.3 1.6 1.1 1.6 1.1 4.8zm-1.8-1.6q0-1.6-0.7-2.5-0.7-1-2-1-1.2 0-1.9 0.8-0.7 0.9-0.7 2.3 0 1.4 0.7 2.2 0.7 0.9 1.9 0.9 0.7 0 1.4-0.4 0.6-0.3 0.9-0.9 0.4-0.6 0.4-1.4zm12.5 1.9q0 3.3-1.1 5-1.2 1.7-3.4 1.7-2.3 0-3.4-1.7-1.1-1.7-1.1-5 0-3.4 1.1-5.1 1.1-1.6 3.4-1.6 2.3 0 3.4 1.7 1.1 1.7 1.1 5zm-1.7 0q0-2.8-0.6-4.1-0.7-1.3-2.2-1.3-1.5 0-2.2 1.3-0.6 1.2-0.6 4.1 0 2.8 0.6 4.1 0.7 1.3 2.2 1.3 1.5 0 2.2-1.4 0.6-1.3 0.6-4zm12.3 0q0 3.3-1.1 5-1.2 1.7-3.4 1.7-2.3 0-3.4-1.7-1.2-1.7-1.2-5 0-3.4 1.1-5.1 1.1-1.6 3.5-1.6 2.3 0 3.4 1.7 1.1 1.7 1.1 5zm-1.7 0q0-2.8-0.6-4.1-0.7-1.3-2.2-1.3-1.5 0-2.2 1.3-0.7 1.2-0.7 4.1 0 2.8 0.7 4.1 0.7 1.3 2.2 1.3 1.4 0 2.1-1.4 0.7-1.3 0.7-4zm12.3 0q0 3.3-1.2 5-1.1 1.7-3.4 1.7-2.2 0-3.4-1.7-1.1-1.7-1.1-5 0-3.4 1.1-5.1 1.1-1.6 3.5-1.6 2.3 0 3.4 1.7 1.1 1.7 1.1 5zm-1.7 0q0-2.8-0.7-4.1-0.6-1.3-2.1-1.3-1.6 0-2.2 1.3-0.7 1.2-0.7 4.1 0 2.8 0.7 4.1 0.7 1.3 2.1 1.3 1.5 0 2.2-1.4 0.7-1.3 0.7-4zm6 6.5h-1.8v-2h1.8zm4.7 0h-1.7v-13.8h1.7zm11-5q0 2.6-1.2 3.9-1.1 1.3-3.3 1.3-2.2 0-3.4-1.3-1.1-1.4-1.1-3.9 0-5.2 4.5-5.2 2.3 0 3.4 1.3 1.1 1.2 1.1 3.9zm-1.8 0q0-2.1-0.6-3-0.6-1-2.1-1-1.4 0-2.1 1-0.6 1-0.6 3 0 2 0.6 3 0.7 1 2 1 1.5 0 2.2-1 0.6-0.9 0.6-3zm7.7 9q-1.7 0-2.6-0.7-1-0.6-1.3-1.8l1.7-0.2q0.2 0.7 0.7 1 0.6 0.4 1.5 0.4 2.5 0 2.5-2.9v-1.6q-0.5 0.9-1.3 1.4-0.8 0.5-1.9 0.5-1.9 0-2.7-1.2-0.9-1.2-0.9-3.9 0-2.6 0.9-3.9 1-1.3 2.9-1.3 1 0 1.8 0.5 0.8 0.5 1.2 1.4 0-0.3 0.1-1 0-0.6 0-0.7h1.6q0 0.5 0 2.1v7.6q0 4.3-4.2 4.3zm2.5-9q0-1.2-0.3-2.1-0.4-0.9-1-1.3-0.6-0.5-1.3-0.5-1.3 0-1.9 0.9-0.6 0.9-0.6 3 0 2.1 0.6 3 0.5 0.9 1.8 0.9 0.8 0 1.4-0.5 0.6-0.5 1-1.3 0.3-0.9 0.3-2.1zm4.7 3.1h1.8v1.5q0 0.9-0.1 1.6-0.2 0.7-0.6 1.3h-1.1q0.8-1.3 0.8-2.5h-0.8zm1.8-6.2h-1.8v-1.9h1.8zm-337 33.9h0.6q0.8 0 1.2-0.5 0.4-0.5 0.4-1.5v-3.3q0-0.9 0.5-1.6 0.4-0.6 1.3-0.8-0.8-0.2-1.3-0.8-0.5-0.6-0.5-1.5v-3.3q0-1-0.4-1.5-0.4-0.5-1.2-0.5h-0.6v-1.2h1.3q1.2 0 1.8 0.7 0.6 0.7 0.6 2v3.3q0 1.1 0.5 1.7 0.5 0.5 1.5 0.5v1.2q-1 0-1.5 0.6-0.5 0.5-0.5 1.6v3.4q0 1.2-0.6 2-0.7 0.7-1.8 0.7h-1.3zm-42.2 23h0.6q0.8 0 1.2-0.5 0.3-0.5 0.3-1.5v-3.3q0-0.9 0.5-1.6 0.5-0.6 1.3-0.8-0.8-0.2-1.3-0.8-0.5-0.6-0.5-1.5v-3.3q0-1-0.3-1.5-0.4-0.5-1.2-0.5h-0.6v-1.2h1.2q1.2 0 1.9 0.7 0.6 0.7 0.6 2v3.3q0 1.1 0.5 1.7 0.5 0.5 1.5 0.5v1.2q-1 0-1.5 0.6-0.5 0.5-0.5 1.6v3.4q0 1.2-0.7 2-0.6 0.7-1.8 0.7h-1.2z"/>
	<path id="# UPSTREAM upstream upstreamexem" class="s2" aria-label="# UPSTREAM
upstream upstreamexemplo.com {
        server 127.0.0.1:8008;
        keepalive 8;
}

server {
        listen 9000;
        server_name $ec2.compute-1.amazonaws.com;

        location / {
            proxy_pass https://upstreamexemplo.com;
            access_log /var/log/nginx/access9000.log;
            error_log /var/log/nginx/error9000.log;
        }
}
"  d="m125.9 77h-8.2v-1.4h3.4v-10.1l-3 2.1v-1.5l3.1-2.2h1.6v11.7h3.1zm10.6 0h-8.7v-1.2q0.5-1.1 1.2-1.9 0.7-0.8 1.4-1.5 0.8-0.7 1.5-1.3 0.7-0.5 1.3-1.1 0.6-0.6 1-1.2 0.4-0.7 0.4-1.4 0-1.1-0.7-1.7-0.6-0.6-1.7-0.6-1.1 0-1.8 0.6-0.7 0.5-0.8 1.6l-1.7-0.2q0.2-1.5 1.3-2.5 1.2-0.9 3-0.9 1.9 0 3 1 1.1 0.9 1.1 2.6 0 0.8-0.4 1.5-0.3 0.8-1 1.5-0.7 0.8-2.6 2.3-1.1 0.9-1.7 1.6-0.7 0.7-0.9 1.4h6.8zm10.5-13.1v1.3q-2 3.1-2.8 4.8-0.8 1.8-1.2 3.5-0.4 1.7-0.4 3.5h-1.8q0-2.5 1.1-5.3 1-2.8 3.5-6.4h-7v-1.4zm4.5 13.1h-1.8v-2.1h1.8zm11.6-6.5q0 3.3-1.2 5-1.1 1.7-3.4 1.7-2.3 0-3.4-1.7-1.1-1.7-1.1-5 0-3.4 1.1-5.1 1.1-1.6 3.5-1.6 2.3 0 3.4 1.7 1.1 1.7 1.1 5zm-1.7 0q0-2.8-0.7-4.1-0.6-1.3-2.1-1.3-1.6 0-2.3 1.3-0.6 1.2-0.6 4.1 0 2.8 0.6 4.1 0.7 1.3 2.2 1.3 1.5 0 2.2-1.4 0.7-1.3 0.7-4zm6 6.5h-1.9v-2h1.9zm11.5-6.5q0 3.2-1.1 5-1.2 1.7-3.5 1.7-2.2 0-3.3-1.7-1.2-1.7-1.2-5 0-3.4 1.1-5.1 1.1-1.7 3.5-1.7 2.3 0 3.4 1.7 1.1 1.7 1.1 5.1zm-1.7 0q0-2.9-0.6-4.1-0.7-1.3-2.2-1.3-1.5 0-2.2 1.2-0.7 1.3-0.7 4.2 0 2.7 0.7 4 0.7 1.3 2.2 1.3 1.4 0 2.1-1.3 0.7-1.3 0.7-4zm6 6.5h-1.8v-2h1.8zm11.4 0h-8.2v-1.5h3.3v-10l-2.9 2.1v-1.6l3-2.1h1.6v11.6h3.2z"/>
	<path id="# UPSTREAM upstream upstreamexem" class="s3" aria-label="# UPSTREAM
upstream upstreamexemplo.com {
        server 127.0.0.1:8008;
        keepalive 8;
}

server {
        listen 9000;
        server_name $ec2.compute-1.amazonaws.com;

        location / {
            proxy_pass https://upstreamexemplo.com;
            access_log /var/log/nginx/access9000.log;
            error_log /var/log/nginx/error9000.log;
        }
}
"  d="m179.2 215.3v-1.5q-4-0.2-4.6-3.3l1.6-0.4q0.2 1.1 0.9 1.7 0.8 0.6 2.1 0.6v-4.6q-1.6-0.4-2.3-0.7-0.6-0.3-1-0.7-0.4-0.5-0.5-0.9-0.2-0.5-0.2-1.2 0-1.4 1-2.2 1.1-0.9 3-0.9v-1.3h1.1v1.3q1.8 0 2.7 0.7 1 0.7 1.4 2.2l-1.6 0.3q-0.2-0.8-0.8-1.3-0.6-0.5-1.7-0.6v4.1q1.7 0.4 2.4 0.7 0.7 0.3 1.1 0.8 0.4 0.4 0.6 0.9 0.3 0.6 0.3 1.3 0 1.6-1.2 2.5-1.1 0.9-3.2 1v1.5zm3.9-5q0-0.6-0.2-0.9-0.3-0.4-0.7-0.7-0.5-0.2-1.8-0.6v4.4q1.3-0.1 2-0.7 0.7-0.5 0.7-1.5zm-6.3-6q0 0.5 0.3 0.9 0.2 0.4 0.7 0.6 0.4 0.3 1.4 0.6v-3.9q-2.4 0.1-2.4 1.8zm17.9 5h-7.1q0 1.8 0.7 2.7 0.7 0.9 2.1 0.9 1.1 0 1.7-0.4 0.7-0.4 0.9-1.1l1.5 0.4q-0.9 2.4-4.1 2.4-2.3 0-3.4-1.3-1.2-1.4-1.2-4 0-2.5 1.2-3.8 1.1-1.3 3.3-1.3 4.4 0 4.4 5.3zm-7.1-1.3h5.4q-0.1-1.6-0.8-2.3-0.7-0.7-1.9-0.7-1.2 0-2 0.8-0.7 0.8-0.7 2.2zm10.5 0.9q0 2 0.7 3 0.6 0.9 1.9 0.9 0.9 0 1.4-0.4 0.6-0.5 0.8-1.5l1.7 0.1q-0.2 1.4-1.3 2.3-1 0.9-2.6 0.9-2.1 0-3.2-1.4-1.1-1.3-1.1-3.9 0-2.5 1.1-3.8 1.1-1.3 3.2-1.3 1.5 0 2.5 0.8 1.1 0.7 1.3 2.2l-1.7 0.1q-0.1-0.9-0.7-1.3-0.5-0.5-1.5-0.5-1.3 0-1.9 0.8-0.6 0.9-0.6 3zm16.6 5.1h-8.7v-1.2q0.5-1.1 1.2-1.9 0.7-0.8 1.4-1.5 0.8-0.7 1.5-1.3 0.7-0.5 1.3-1.1 0.6-0.6 1-1.2 0.4-0.7 0.4-1.5 0-1-0.7-1.6-0.6-0.6-1.7-0.6-1.1 0-1.8 0.6-0.7 0.5-0.8 1.6l-1.7-0.2q0.2-1.5 1.3-2.5 1.2-0.9 3-0.9 2 0 3 0.9 1.1 1 1.1 2.7 0 0.8-0.4 1.5-0.3 0.8-1 1.5-0.7 0.8-2.6 2.3-1.1 0.9-1.7 1.6-0.7 0.7-0.9 1.4h6.8z"/>
</svg>