<svg version="1.2" xmlns="http://www.w3.org/2000/svg" viewBox="0 0 631 184" width="631" height="184">
	<title>Novo Projeto</title>
	<style>
		.s0 { fill: #ffffff } 
		.s1 { fill: #5bb4f9 } 
		.s2 { fill: #ffff00 } 
		.s3 { fill: #ff00ff } 
	</style>
	<path id="server {         # Escuta na por" class="s0" aria-label="server {
        # Escuta na porta 80 - HTTP
        listen       80;
        server_name $ec2.compute-1.amazonaws.com;
        # Redireciona todo o tr치fego para a porta 443 HTTPS
        return 301 https://$ec2.compute-1.amazonaws.com$request_uri;
}

"  d="m24.8 29.2q0 1.4-1.1 2.2-1 0.8-3 0.8-1.8 0-2.9-0.6-1-0.6-1.3-2l1.5-0.2q0.2 0.8 0.9 1.1 0.7 0.4 1.8 0.4 1.3 0 1.9-0.4 0.6-0.4 0.6-1.1 0-0.6-0.4-1-0.4-0.4-1.3-0.6l-1.2-0.3q-1.5-0.4-2.1-0.8-0.6-0.3-0.9-0.8-0.4-0.5-0.4-1.3 0-1.4 1-2.1 1-0.7 2.9-0.7 1.6 0 2.6 0.6 1 0.6 1.2 1.9l-1.5 0.1q-0.1-0.6-0.7-1-0.6-0.3-1.6-0.3-1.2 0-1.7 0.3-0.5 0.4-0.5 1 0 0.5 0.2 0.8 0.2 0.2 0.6 0.4 0.5 0.2 1.9 0.6 1.3 0.3 1.9 0.6 0.6 0.3 0.9 0.6 0.3 0.4 0.5 0.8 0.2 0.5 0.2 1zm10.4-1.9h-7.1q0 1.8 0.7 2.7 0.7 0.9 2.1 0.9 1 0 1.7-0.4 0.7-0.4 0.9-1.1l1.5 0.4q-0.9 2.4-4.1 2.4-2.3 0-3.4-1.3-1.2-1.4-1.2-4 0-2.5 1.2-3.8 1.1-1.3 3.3-1.3 4.4 0 4.4 5.3zm-7.1-1.3h5.4q-0.1-1.6-0.8-2.3-0.7-0.7-1.9-0.7-1.2 0-2 0.8-0.7 0.8-0.7 2.2zm11 6h-1.7v-7.7q0-1.1-0.1-2.4h1.6q0.1 1.7 0.1 2.1 0.4-1.3 0.9-1.8 0.6-0.4 1.5-0.4 0.3 0 0.7 0v1.6q-0.4-0.1-0.9-0.1-1.1 0-1.6 0.9-0.5 0.9-0.5 2.5zm12.7-10l-3.7 10h-2l-3.6-10h1.7l2.2 6.5q0.2 0.4 0.7 2.2l0.3-1 0.4-1.1 2.3-6.6zm9.7 5.4h-7.1q0 1.7 0.7 2.6 0.7 1 2.1 1 1.1 0 1.7-0.5 0.7-0.4 0.9-1.1l1.5 0.5q-0.9 2.3-4.1 2.3-2.2 0-3.4-1.3-1.2-1.3-1.2-3.9 0-2.5 1.2-3.9 1.2-1.3 3.3-1.3 4.4 0 4.4 5.4zm-7.1-1.3h5.4q-0.1-1.6-0.8-2.3-0.7-0.8-1.9-0.8-1.2 0-1.9 0.8-0.7 0.9-0.8 2.3zm11 5.9h-1.7v-7.7q0-1 0-2.3h1.5q0.1 1.7 0.1 2 0.4-1.3 1-1.7 0.5-0.5 1.4-0.5 0.4 0 0.7 0.1v1.5q-0.3-0.1-0.9-0.1-1 0-1.6 0.9-0.5 0.9-0.5 2.6zm14.6 3.9h-1.2q-1.2 0-1.9-0.7-0.6-0.7-0.6-2v-3.3q0-1.1-0.5-1.6-0.5-0.6-1.5-0.6v-1.2q1 0 1.5-0.6 0.5-0.5 0.5-1.6v-3.4q0-1.3 0.6-2 0.6-0.7 1.9-0.7h1.2v1.2h-0.6q-0.8 0-1.2 0.5-0.3 0.5-0.3 1.5v3.3q0 0.9-0.5 1.5-0.5 0.7-1.3 0.9 0.8 0.2 1.3 0.8 0.5 0.6 0.5 1.5v3.3q0 1 0.3 1.5 0.4 0.5 1.2 0.5h0.6zm-18.9 41.1h-1.7v-13.8h1.7zm4.2-12.1h-1.6v-1.6h1.6zm0 12.1h-1.6v-10h1.6zm10.1-2.8q0 1.4-1.1 2.2-1 0.8-3 0.8-1.8 0-2.9-0.6-1-0.7-1.3-2l1.5-0.3q0.2 0.9 0.9 1.2 0.7 0.4 1.8 0.4 1.3 0 1.9-0.4 0.6-0.4 0.6-1.2 0-0.5-0.4-0.9-0.4-0.4-1.3-0.6l-1.2-0.3q-1.5-0.4-2.1-0.8-0.6-0.3-0.9-0.8-0.4-0.6-0.4-1.3 0-1.4 1-2.1 1-0.7 2.9-0.7 1.6 0 2.6 0.6 1 0.6 1.2 1.9l-1.5 0.1q-0.1-0.6-0.7-1-0.6-0.3-1.6-0.3-1.2 0-1.7 0.3-0.5 0.3-0.5 1 0 0.5 0.2 0.7 0.2 0.3 0.6 0.5 0.5 0.2 1.9 0.6 1.3 0.3 1.9 0.6 0.6 0.3 0.9 0.6 0.3 0.3 0.5 0.8 0.2 0.4 0.2 1zm5.8 1.5v1.2q-0.8 0.2-1.6 0.2-2.1 0-2.1-2.2v-6.7h-1.1v-1.2h1.2l0.5-2.3h1.1v2.3h1.9v1.2h-1.9v6.3q0 0.7 0.2 1 0.3 0.3 0.9 0.3 0.3 0 0.9-0.1zm9.9-3.4h-7.2q0 1.8 0.8 2.7 0.7 0.9 2 0.9 1.1 0 1.8-0.4 0.6-0.4 0.9-1.1l1.4 0.4q-0.9 2.4-4.1 2.4-2.2 0-3.4-1.3-1.1-1.4-1.1-4 0-2.5 1.1-3.8 1.2-1.3 3.4-1.3 4.4 0 4.4 5.3zm-7.1-1.3h5.4q-0.2-1.6-0.8-2.3-0.7-0.7-2-0.7-1.2 0-1.9 0.8-0.7 0.8-0.7 2.2zm17.3 6h-1.7v-6.4q0-1-0.2-1.5-0.2-0.6-0.6-0.8-0.4-0.3-1.3-0.3-1.2 0-1.9 0.9-0.7 0.8-0.7 2.3v5.8h-1.6v-7.9q0-1.8-0.1-2.2h1.6q0 0.1 0 0.3 0 0.2 0 0.5 0 0.2 0.1 0.9 0.6-1 1.3-1.4 0.8-0.5 1.9-0.5 1.6 0 2.4 0.9 0.8 0.8 0.8 2.7zm47.9-3.7q0 1.8-1.1 2.9-1.2 1-3.3 1-2.1 0-3.3-1-1.2-1-1.2-2.8 0-1.3 0.7-2.2 0.8-0.9 1.9-1.1-1.1-0.2-1.7-1.1-0.6-0.8-0.6-1.9 0-1.5 1.1-2.5 1.1-0.9 3-0.9 1.9 0 3.1 0.9 1.1 0.9 1.1 2.5 0 1.1-0.6 1.9-0.7 0.9-1.7 1.1 1.2 0.2 1.9 1.1 0.7 0.8 0.7 2.1zm-2.1-6.1q0-2.2-2.4-2.2-1.2 0-1.8 0.5-0.6 0.6-0.6 1.7 0 1.1 0.6 1.7 0.7 0.6 1.8 0.6 1.2 0 1.8-0.6 0.6-0.5 0.6-1.7zm0.4 6q0-1.2-0.8-1.9-0.7-0.6-2-0.6-1.3 0-2 0.7-0.7 0.7-0.7 1.8 0 2.7 2.8 2.7 1.3 0 2-0.6 0.7-0.7 0.7-2.1zm12.4-2.8q0 3.3-1.2 5-1.2 1.8-3.4 1.8-2.3 0-3.4-1.8-1.1-1.7-1.1-5 0-3.3 1.1-5 1.1-1.7 3.4-1.7 2.4 0 3.5 1.7 1.1 1.7 1.1 5zm-1.7 0q0-2.8-0.7-4.1-0.6-1.2-2.2-1.2-1.5 0-2.2 1.2-0.6 1.3-0.6 4.1 0 2.8 0.6 4.1 0.7 1.3 2.2 1.3 1.5 0 2.2-1.3 0.7-1.3 0.7-4.1zm4.2 4.7h1.8v1.4q0 1-0.2 1.6-0.2 0.7-0.6 1.3h-1.1q0.9-1.3 0.9-2.4h-0.8zm1.8-6.2h-1.8v-1.9h1.8zm-97.2 28.3q0 1.4-1.1 2.2-1.1 0.8-3 0.8-1.9 0-2.9-0.6-1-0.7-1.3-2l1.5-0.3q0.2 0.8 0.8 1.2 0.7 0.4 1.9 0.4 1.3 0 1.9-0.4 0.5-0.4 0.5-1.2 0-0.6-0.4-0.9-0.4-0.4-1.3-0.6l-1.2-0.4q-1.4-0.3-2-0.7-0.6-0.3-1-0.9-0.3-0.5-0.3-1.2 0-1.4 1-2.1 0.9-0.7 2.8-0.7 1.7 0 2.7 0.6 0.9 0.6 1.2 1.8l-1.5 0.2q-0.1-0.6-0.8-1-0.6-0.4-1.6-0.4-1.1 0-1.7 0.4-0.5 0.3-0.5 1 0 0.5 0.2 0.7 0.3 0.3 0.7 0.5 0.4 0.2 1.8 0.5 1.4 0.4 1.9 0.7 0.6 0.2 1 0.6 0.3 0.3 0.5 0.8 0.2 0.4 0.2 1zm10.4-1.9h-7.2q0 1.7 0.7 2.7 0.7 0.9 2.1 0.9 1.1 0 1.8-0.4 0.6-0.5 0.8-1.1l1.5 0.4q-0.9 2.4-4.1 2.4-2.2 0-3.4-1.4-1.1-1.3-1.1-3.9 0-2.5 1.1-3.8 1.2-1.3 3.4-1.3 4.4 0 4.4 5.3zm-7.2-1.3h5.5q-0.2-1.6-0.9-2.3-0.6-0.7-1.9-0.7-1.2 0-1.9 0.8-0.7 0.8-0.8 2.2zm11 6h-1.7v-7.7q0-1.1 0-2.4h1.6q0 1.7 0 2.1h0.1q0.4-1.3 0.9-1.8 0.5-0.5 1.5-0.5 0.3 0 0.6 0.1v1.6q-0.3-0.1-0.9-0.1-1 0-1.5 0.9-0.6 0.9-0.6 2.5zm12.8-10l-3.8 10h-1.9l-3.7-10h1.8l2.2 6.5q0.1 0.4 0.6 2.2l0.4-1.1 0.3-1.1 2.3-6.5zm9.8 5.4h-7.2q0 1.7 0.8 2.6 0.7 1 2 1 1.1 0 1.8-0.5 0.6-0.4 0.9-1.1l1.4 0.4q-0.9 2.4-4.1 2.4-2.2 0-3.4-1.3-1.1-1.3-1.1-4 0-2.4 1.1-3.8 1.2-1.3 3.4-1.3 4.4 0 4.4 5.3zm-7.1-1.2h5.4q-0.2-1.6-0.8-2.4-0.7-0.7-1.9-0.7-1.3 0-2 0.8-0.7 0.8-0.7 2.3zm10.9 5.9h-1.6v-7.7q0-1.1-0.1-2.3h1.6q0.1 1.7 0.1 2 0.4-1.3 0.9-1.7 0.5-0.5 1.5-0.5 0.3 0 0.7 0.1v1.5q-0.4-0.1-0.9-0.1-1.1 0-1.6 0.9-0.6 0.9-0.6 2.6zm14.2 3.7h-11.1v-1.2h11.1zm9.1-3.7h-1.7v-6.4q0-1-0.2-1.5-0.2-0.6-0.6-0.8-0.4-0.3-1.3-0.3-1.2 0-1.9 0.9-0.7 0.8-0.7 2.2v5.9h-1.6v-7.9q0-1.8-0.1-2.2h1.6q0 0.1 0 0.3 0 0.2 0 0.4 0 0.3 0.1 1 0.6-1 1.3-1.4 0.8-0.5 1.9-0.5 1.6 0 2.4 0.9 0.8 0.8 0.8 2.7zm5 0.2q-1.5 0-2.2-0.8-0.8-0.8-0.8-2.2 0-1.6 1-2.4 1.1-0.9 3.3-0.9h2.3v-0.6q0-1.2-0.5-1.7-0.5-0.6-1.6-0.6-1.2 0-1.7 0.4-0.5 0.4-0.6 1.2l-1.7-0.1q0.4-2.7 4-2.7 1.9 0 2.8 0.8 1 0.9 1 2.5v4.4q0 0.7 0.2 1.1 0.2 0.3 0.7 0.3 0.3 0 0.6 0v1q-0.7 0.2-1.3 0.2-0.9 0-1.4-0.5-0.4-0.5-0.4-1.5h-0.1q-0.6 1.1-1.5 1.6-0.8 0.5-2.1 0.5zm0.4-1.3q0.9 0 1.7-0.4 0.7-0.4 1.1-1.2 0.4-0.7 0.4-1.5v-0.8l-1.8 0.1q-1.2 0-1.8 0.2-0.6 0.2-0.9 0.7-0.4 0.4-0.4 1.2 0 0.8 0.5 1.3 0.4 0.4 1.2 0.4zm15.2 1.1h-1.7v-6.4q0-1.4-0.4-2-0.4-0.6-1.4-0.6-1.1 0-1.7 0.9-0.6 0.8-0.6 2.3v5.8h-1.7v-7.9q0-1.8-0.1-2.2h1.6q0 0.1 0 0.3 0 0.2 0.1 0.5 0 0.2 0 1 0.6-1.1 1.3-1.5 0.6-0.4 1.6-0.4 1.2 0 1.8 0.4 0.7 0.5 1 1.5 0.5-1.1 1.3-1.5 0.7-0.4 1.7-0.4 1.6 0 2.3 0.8 0.6 0.8 0.6 2.7v6.7h-1.6v-6.4q0-1.4-0.4-2-0.4-0.6-1.4-0.6-1.1 0-1.7 0.9-0.6 0.8-0.6 2.3zm16.7-4.7h-7.1q0 1.7 0.7 2.7 0.7 0.9 2.1 0.9 1.1 0 1.7-0.4 0.7-0.5 0.9-1.1l1.5 0.4q-0.9 2.3-4.1 2.3-2.3 0-3.4-1.3-1.2-1.3-1.2-3.9 0-2.5 1.2-3.8 1.1-1.4 3.3-1.4 4.4 0 4.4 5.4zm-7.1-1.3h5.4q-0.1-1.6-0.8-2.3-0.7-0.8-1.9-0.8-1.2 0-2 0.9-0.7 0.8-0.7 2.2zm58 5.9h-1.8v-2h1.8zm4.3-5.1q0 2 0.6 3 0.6 1 1.9 1 0.9 0 1.5-0.5 0.6-0.5 0.7-1.5l1.7 0.1q-0.2 1.5-1.2 2.3-1 0.9-2.6 0.9-2.1 0-3.3-1.3-1.1-1.4-1.1-3.9 0-2.6 1.1-3.9 1.2-1.3 3.2-1.3 1.6 0 2.6 0.8 1 0.8 1.3 2.2l-1.7 0.1q-0.2-0.8-0.7-1.3-0.5-0.5-1.5-0.5-1.3 0-1.9 0.9-0.6 0.9-0.6 2.9zm16.7 0.1q0 2.6-1.2 3.9-1.1 1.3-3.3 1.3-2.2 0-3.4-1.3-1.1-1.4-1.1-3.9 0-5.2 4.5-5.2 2.3 0 3.4 1.3 1.1 1.2 1.1 3.9zm-1.8 0q0-2.1-0.6-3-0.6-1-2-1-1.5 0-2.2 1-0.6 0.9-0.6 3 0 2 0.6 3 0.7 1 2.1 1 1.5 0 2.1-1 0.6-1 0.6-3zm11.4 5h-1.7v-6.4q0-1.4-0.4-2-0.4-0.5-1.4-0.5-1.1 0-1.7 0.8-0.6 0.8-0.6 2.3v5.8h-1.7v-7.9q0-1.7 0-2.1h1.5q0 0 0.1 0.2 0 0.2 0 0.5 0 0.2 0 1 0.6-1.1 1.3-1.5 0.7-0.4 1.7-0.4 1.1 0 1.8 0.4 0.6 0.5 0.9 1.5 0.5-1 1.3-1.5 0.7-0.4 1.8-0.4 1.5 0 2.2 0.8 0.7 0.8 0.7 2.7v6.7h-1.7v-6.4q0-1.4-0.4-2-0.4-0.5-1.4-0.5-1.1 0-1.7 0.8-0.6 0.8-0.6 2.3zm16.8-5.1q0 5.3-3.7 5.3-2.3 0-3.1-1.8h-0.1q0.1 0.1 0.1 1.6v3.9h-1.7v-11.9q0-1.6-0.1-2.1h1.7q0 0.1 0 0.3 0 0.2 0 0.7 0.1 0.5 0.1 0.7 0.4-1 1.2-1.4 0.7-0.4 1.9-0.4 1.9 0 2.8 1.2 0.9 1.3 0.9 3.9zm-1.8 0.1q0-2.1-0.5-3-0.6-0.9-1.8-0.9-1 0-1.6 0.4-0.5 0.4-0.8 1.3-0.3 0.9-0.3 2.3 0 2 0.6 2.9 0.6 0.9 2.1 0.9 1.2 0 1.8-0.9 0.5-0.9 0.5-3zm3.8-5.1h1.7v6.4q0 1 0.2 1.6 0.2 0.5 0.6 0.7 0.4 0.3 1.3 0.3 1.2 0 1.9-0.8 0.7-0.9 0.7-2.3v-5.9h1.6v7.9q0 1.8 0.1 2.2h-1.6q0-0.1 0-0.3 0-0.2 0-0.4 0-0.3-0.1-1-0.6 1-1.3 1.4-0.8 0.5-1.9 0.5-1.6 0-2.4-0.8-0.8-0.9-0.8-2.8zm14.5 8.8v1.2q-0.8 0.2-1.7 0.2-2 0-2-2.2v-6.7h-1.2v-1.3h1.3l0.5-2.2h1.1v2.2h1.8v1.3h-1.8v6.3q0 0.7 0.2 1 0.2 0.3 0.8 0.3 0.4 0 1-0.1zm9.9-3.4h-7.2q0 1.7 0.7 2.7 0.7 0.9 2.1 0.9 1.1 0 1.7-0.4 0.7-0.5 0.9-1.1l1.5 0.4q-0.9 2.4-4.1 2.4-2.2 0-3.4-1.4-1.2-1.3-1.2-3.9 0-2.5 1.2-3.8 1.2-1.3 3.3-1.3 4.5 0 4.5 5.3zm-7.2-1.3h5.4q-0.1-1.6-0.8-2.3-0.6-0.7-1.9-0.7-1.2 0-1.9 0.8-0.7 0.8-0.8 2.2zm13.5 1.6h-4.7v-1.4h4.7zm10.5 4.3h-8.2v-1.5h3.3v-10l-2.9 2.1v-1.6l3-2.1h1.6v11.6h3.2zm4.4 0h-1.8v-2h1.8zm5.6 0.2q-1.5 0-2.3-0.8-0.7-0.8-0.7-2.2 0-1.5 1-2.4 1-0.8 3.3-0.9h2.3v-0.6q0-1.2-0.6-1.7-0.5-0.5-1.6-0.5-1.1 0-1.6 0.3-0.5 0.4-0.6 1.3l-1.8-0.2q0.5-2.7 4.1-2.7 1.8 0 2.8 0.9 1 0.8 1 2.5v4.3q0 0.7 0.2 1.1 0.1 0.4 0.7 0.4 0.2 0 0.5-0.1v1.1q-0.6 0.1-1.2 0.1-1 0-1.4-0.5-0.4-0.5-0.5-1.5-0.7 1.1-1.5 1.6-0.9 0.5-2.1 0.5zm0.4-1.2q0.9 0 1.6-0.5 0.7-0.4 1.2-1.1 0.4-0.7 0.4-1.5v-0.8h-1.9q-1.1 0-1.8 0.2-0.6 0.3-0.9 0.7-0.3 0.5-0.3 1.2 0 0.9 0.4 1.3 0.5 0.5 1.3 0.5zm15.1 1h-1.6v-6.3q0-1.5-0.4-2.1-0.4-0.5-1.5-0.5-1 0-1.7 0.8-0.6 0.8-0.6 2.3v5.8h-1.6v-7.9q0-1.7-0.1-2.1h1.6q0 0 0 0.2 0 0.2 0 0.5 0 0.3 0.1 1 0.5-1.1 1.2-1.5 0.7-0.4 1.7-0.4 1.2 0 1.8 0.4 0.7 0.5 0.9 1.5h0.1q0.5-1 1.2-1.5 0.8-0.4 1.8-0.4 1.5 0 2.2 0.8 0.7 0.8 0.7 2.7v6.7h-1.6v-6.3q0-1.5-0.4-2.1-0.4-0.5-1.5-0.5-1.1 0-1.7 0.8-0.6 0.8-0.6 2.3zm10.9 0.2q-1.5 0-2.3-0.8-0.7-0.8-0.7-2.2 0-1.6 1-2.4 1-0.8 3.3-0.9h2.3v-0.6q0-1.2-0.6-1.7-0.5-0.6-1.6-0.6-1.1 0-1.6 0.4-0.5 0.4-0.6 1.2l-1.8-0.1q0.4-2.7 4-2.7 1.9 0 2.9 0.8 1 0.9 1 2.6v4.3q0 0.7 0.1 1.1 0.2 0.4 0.8 0.4 0.2 0 0.5-0.1v1q-0.6 0.2-1.3 0.2-0.9 0-1.3-0.5-0.4-0.5-0.5-1.5-0.7 1.1-1.5 1.6-0.9 0.5-2.1 0.5zm0.4-1.3q0.9 0 1.6-0.4 0.7-0.4 1.1-1.1 0.5-0.8 0.5-1.5v-0.9l-1.9 0.1q-1.1 0-1.8 0.2-0.6 0.2-0.9 0.7-0.3 0.5-0.3 1.2 0 0.8 0.4 1.3 0.5 0.4 1.3 0.4zm14.9 1.1h-7.8v-1.3l5.6-7.4h-5.3v-1.3h7.3v1.2l-5.6 7.5h5.8zm10.7-5q0 2.6-1.2 3.9-1.1 1.3-3.3 1.3-2.2 0-3.3-1.3-1.2-1.4-1.2-3.9 0-5.2 4.5-5.2 2.3 0 3.4 1.3 1.1 1.2 1.1 3.9zm-1.7 0q0-2.1-0.7-3-0.6-1-2-1-1.5 0-2.2 1-0.6 0.9-0.6 3 0 2 0.6 3 0.7 1 2.1 1 1.5 0 2.1-1 0.7-1 0.7-3zm11.8 5h-1.6v-6.4q0-0.9-0.2-1.5-0.2-0.5-0.7-0.8-0.4-0.2-1.2-0.2-1.2 0-1.9 0.8-0.7 0.8-0.7 2.3v5.8h-1.7v-7.9q0-1.7 0-2.1h1.5q0 0 0.1 0.2 0 0.2 0 0.5 0 0.3 0 1 0.6-1 1.4-1.5 0.7-0.4 1.9-0.4 1.6 0 2.4 0.8 0.7 0.8 0.7 2.7zm5.1 0.2q-1.5 0-2.3-0.8-0.7-0.8-0.7-2.2 0-1.5 1-2.4 1-0.8 3.3-0.9h2.3v-0.5q0-1.3-0.6-1.8-0.5-0.5-1.6-0.5-1.1 0-1.6 0.3-0.5 0.4-0.6 1.3l-1.8-0.2q0.4-2.7 4-2.7 1.9 0 2.9 0.9 1 0.8 1 2.5v4.3q0 0.7 0.1 1.1 0.2 0.4 0.8 0.4 0.2 0 0.5-0.1v1.1q-0.6 0.1-1.3 0.1-0.9 0-1.3-0.5-0.4-0.5-0.5-1.5-0.7 1.2-1.5 1.6-0.9 0.5-2.1 0.5zm0.4-1.2q0.9 0 1.6-0.5 0.7-0.4 1.1-1.1 0.5-0.7 0.5-1.5v-0.8h-1.9q-1.1 0-1.8 0.2-0.6 0.3-0.9 0.7-0.3 0.5-0.3 1.2 0 0.9 0.4 1.3 0.5 0.5 1.3 0.5zm20.1-9l-2.9 10h-1.9l-1.8-7.1-0.3-1.5q-0.1 0.4-0.3 1.2-0.1 0.7-1.9 7.4h-1.9l-2.8-10h1.7l1.7 6.8q0 0.2 0.4 1.8l0.1-0.6 2.1-8h1.8l1.8 6.9 0.4 1.7 0.3-1.2 1.9-7.4zm8.7 7.2q0 1.5-1 2.2-1.1 0.8-3 0.8-1.9 0-2.9-0.6-1-0.6-1.3-1.9l1.4-0.3q0.2 0.8 0.9 1.2 0.7 0.3 1.9 0.3 1.2 0 1.8-0.4 0.6-0.3 0.6-1.1 0-0.6-0.4-1-0.4-0.4-1.3-0.6l-1.2-0.3q-1.4-0.4-2.1-0.7-0.6-0.4-0.9-0.9-0.3-0.5-0.3-1.3 0-1.3 0.9-2.1 1-0.7 2.9-0.7 1.6 0 2.6 0.6 1 0.6 1.3 1.9l-1.5 0.2q-0.2-0.7-0.8-1.1-0.6-0.3-1.6-0.3-1.1 0-1.7 0.3-0.5 0.4-0.5 1.1 0 0.4 0.2 0.7 0.2 0.3 0.7 0.4 0.4 0.2 1.8 0.6 1.3 0.3 1.9 0.6 0.6 0.3 0.9 0.6 0.4 0.4 0.6 0.8 0.1 0.5 0.1 1zm4.3 2.8h-1.8v-2h1.8zm4.3-5.1q0 2 0.6 3 0.6 1 1.9 1 0.9 0 1.5-0.5 0.6-0.5 0.7-1.5l1.7 0.1q-0.2 1.5-1.2 2.3-1.1 0.9-2.7 0.9-2.1 0-3.2-1.4-1.1-1.3-1.1-3.8 0-2.6 1.1-3.9 1.1-1.3 3.2-1.3 1.6 0 2.6 0.8 1 0.8 1.2 2.2l-1.7 0.1q-0.1-0.8-0.6-1.3-0.6-0.5-1.5-0.5-1.4 0-2 0.9-0.5 0.8-0.5 2.9zm16.7 0.1q0 2.6-1.2 3.9-1.1 1.3-3.4 1.3-2.2 0-3.3-1.4-1.1-1.3-1.1-3.8 0-5.2 4.5-5.2 2.3 0 3.4 1.2 1.1 1.3 1.1 4zm-1.8 0q0-2.1-0.6-3.1-0.6-0.9-2.1-0.9-1.4 0-2.1 1-0.6 0.9-0.6 3 0 1.9 0.6 2.9 0.6 1 2 1 1.5 0 2.2-0.9 0.6-1 0.6-3zm11.3 5h-1.6v-6.4q0-1.4-0.4-2-0.4-0.5-1.4-0.5-1.1 0-1.7 0.8-0.7 0.8-0.7 2.3v5.8h-1.6v-7.9q0-1.8-0.1-2.1h1.6q0 0 0 0.2 0 0.2 0 0.5 0.1 0.2 0.1 1 0.5-1.1 1.2-1.5 0.7-0.4 1.7-0.4 1.2 0 1.8 0.4 0.7 0.5 1 1.5 0.5-1 1.3-1.5 0.7-0.4 1.7-0.4 1.6 0 2.2 0.8 0.7 0.8 0.7 2.7v6.7h-1.6v-6.4q0-1.4-0.4-2-0.4-0.5-1.4-0.5-1.1 0-1.8 0.8-0.6 0.8-0.6 2.3zm8.9-1.9h1.8v1.4q0 1-0.2 1.6-0.2 0.7-0.6 1.3h-1.1q0.9-1.3 0.9-2.4h-0.8zm1.8-6.2h-1.8v-1.9h1.8zm-339.2 50.5q0 1.8-1.2 2.8-1.1 1-3.2 1-2 0-3.2-0.9-1.2-0.9-1.4-2.7l1.7-0.1q0.3 2.3 2.9 2.3 1.2 0 1.9-0.6 0.8-0.7 0.8-1.9 0-1.1-0.9-1.7-0.8-0.6-2.3-0.6h-1v-1.4h0.9q1.4 0 2.2-0.6 0.7-0.6 0.7-1.7 0-1-0.6-1.6-0.6-0.6-1.8-0.6-1.1 0-1.8 0.5-0.7 0.6-0.8 1.6l-1.7-0.1q0.2-1.6 1.3-2.5 1.2-0.9 3-0.9 2 0 3 0.9 1.1 0.9 1.1 2.6 0 1.2-0.7 2-0.7 0.8-2 1.1 1.5 0.2 2.3 1 0.8 0.8 0.8 2.1zm10.7-3q0 3.3-1.2 5-1.2 1.8-3.4 1.8-2.3 0-3.4-1.8-1.1-1.7-1.1-5 0-3.3 1.1-5 1.1-1.7 3.4-1.7 2.4 0 3.5 1.7 1.1 1.7 1.1 5zm-1.7 0q0-2.8-0.7-4.1-0.6-1.2-2.2-1.2-1.5 0-2.2 1.2-0.6 1.3-0.6 4.1 0 2.8 0.6 4.1 0.7 1.3 2.2 1.3 1.5 0 2.2-1.3 0.7-1.3 0.7-4.1zm12 6.6h-8.2v-1.4h3.4v-10.1l-3 2.1v-1.6l3.1-2.1h1.6v11.7h3.1zm9.2-8.4q0.5-1 1.3-1.4 0.7-0.5 1.9-0.5 1.6 0 2.4 0.8 0.8 0.9 0.8 2.8v6.7h-1.7v-6.4q0-1.1-0.2-1.6-0.2-0.5-0.6-0.7-0.5-0.3-1.3-0.3-1.1 0-1.9 0.8-0.7 0.9-0.7 2.2v6h-1.6v-13.8h1.6v3.6q0 0.5 0 1.1 0 0.6 0 0.7zm12.8 7v1.3q-0.9 0.2-1.7 0.2-2 0-2-2.3v-6.7h-1.2v-1.2h1.2l0.5-2.2h1.1v2.2h1.9v1.2h-1.9v6.4q0 0.7 0.3 1 0.2 0.3 0.8 0.3 0.3 0 1-0.2zm5.2 0v1.3q-0.8 0.2-1.7 0.2-2 0-2-2.3v-6.7h-1.1v-1.2h1.2l0.5-2.2h1.1v2.2h1.9v1.2h-1.9v6.4q0 0.7 0.2 1 0.3 0.3 0.9 0.3 0.3 0 0.9-0.2zm9.9-3.7q0 5.2-3.7 5.2-2.3 0-3.1-1.7 0 0.1 0 1.6v3.9h-1.6v-11.9q0-1.6-0.1-2.1h1.6q0 0.1 0 0.3 0.1 0.2 0.1 0.7 0 0.5 0 0.6 0.5-0.9 1.2-1.3 0.8-0.5 1.9-0.5 1.9 0 2.8 1.3 0.9 1.2 0.9 3.9zm-1.7 0q0-2.1-0.6-3-0.5-0.9-1.8-0.9-1 0-1.5 0.4-0.6 0.5-0.9 1.4-0.3 0.8-0.3 2.3 0 1.9 0.7 2.9 0.6 0.9 2 0.9 1.2 0 1.8-0.9 0.6-0.9 0.6-3.1zm11.4 2.3q0 1.4-1.1 2.2-1.1 0.7-3 0.7-1.9 0-2.9-0.6-1-0.6-1.3-1.9l1.4-0.3q0.3 0.8 0.9 1.2 0.7 0.4 1.9 0.4 1.2 0 1.8-0.4 0.6-0.4 0.6-1.2 0-0.6-0.4-1-0.4-0.3-1.3-0.6l-1.2-0.3q-1.4-0.4-2-0.7-0.6-0.4-1-0.9-0.3-0.5-0.3-1.2 0-1.4 0.9-2.1 1-0.7 2.9-0.7 1.7 0 2.6 0.5 1 0.6 1.3 1.9l-1.5 0.2q-0.2-0.7-0.8-1-0.6-0.4-1.6-0.4-1.1 0-1.7 0.4-0.5 0.3-0.5 1 0 0.4 0.2 0.7 0.2 0.3 0.7 0.5 0.4 0.2 1.8 0.5 1.3 0.4 1.9 0.6 0.6 0.3 0.9 0.7 0.4 0.3 0.6 0.8 0.2 0.4 0.2 1zm4.2-5.4h-1.8v-1.9h1.8zm0 8.1h-1.8v-1.9h1.8zm3.2 0.2h-1.5l3.8-14h1.5zm5.3 0h-1.5l3.8-13.9h1.4zm48.6-0.2h-1.8v-2h1.8zm4.3-5.1q0 2 0.6 3 0.6 0.9 1.9 0.9 0.9 0 1.5-0.4 0.6-0.5 0.7-1.5l1.7 0.1q-0.2 1.4-1.2 2.3-1.1 0.9-2.7 0.9-2.1 0-3.2-1.4-1.1-1.3-1.1-3.9 0-2.5 1.1-3.8 1.1-1.3 3.2-1.3 1.6 0 2.6 0.7 1 0.8 1.2 2.2l-1.7 0.2q-0.1-0.9-0.6-1.3-0.6-0.5-1.5-0.5-1.4 0-2 0.8-0.5 0.9-0.5 3zm16.7 0q0 2.7-1.2 4-1.1 1.3-3.4 1.3-2.2 0-3.3-1.4-1.1-1.3-1.1-3.9 0-5.1 4.5-5.1 2.3 0 3.4 1.2 1.1 1.3 1.1 3.9zm-1.8 0q0-2-0.6-3-0.6-0.9-2.1-0.9-1.4 0-2.1 1-0.6 0.9-0.6 2.9 0 2 0.6 3 0.6 1 2 1 1.5 0 2.2-0.9 0.6-1 0.6-3.1zm11.3 5.1h-1.6v-6.4q0-1.4-0.4-2-0.4-0.6-1.4-0.6-1.1 0-1.7 0.9-0.7 0.8-0.7 2.3v5.8h-1.6v-7.9q0-1.8-0.1-2.2h1.6q0 0.1 0 0.3 0 0.2 0 0.5 0.1 0.2 0.1 1 0.6-1.1 1.2-1.5 0.7-0.4 1.7-0.4 1.2 0 1.8 0.4 0.7 0.5 1 1.5 0.5-1.1 1.3-1.5 0.7-0.4 1.7-0.4 1.6 0 2.3 0.8 0.6 0.8 0.6 2.7v6.7h-1.6v-6.4q0-1.4-0.4-2-0.4-0.6-1.4-0.6-1.1 0-1.7 0.9-0.7 0.8-0.7 2.3zm16.9-5.1q0 5.2-3.7 5.2-2.3 0-3.1-1.7h-0.1q0 0.1 0 1.6v3.9h-1.6v-11.9q0-1.6-0.1-2.1h1.6q0 0.1 0.1 0.3 0 0.2 0 0.7 0 0.5 0 0.6h0.1q0.4-0.9 1.1-1.3 0.8-0.5 2-0.5 1.8 0 2.7 1.3 1 1.2 1 3.9zm-1.8 0q0-2.1-0.6-3-0.5-0.9-1.8-0.9-0.9 0-1.5 0.5-0.6 0.4-0.9 1.3-0.3 0.8-0.3 2.3 0 1.9 0.7 2.9 0.6 0.9 2 0.9 1.3 0 1.8-0.9 0.6-0.9 0.6-3.1zm3.8-5h1.7v6.4q0 1 0.2 1.5 0.2 0.6 0.6 0.8 0.4 0.3 1.2 0.3 1.3 0 1.9-0.9 0.7-0.8 0.7-2.3v-5.8h1.7v7.9q0 1.8 0.1 2.2h-1.6q0-0.1 0-0.3 0-0.2-0.1-0.5 0-0.2 0-1-0.6 1.1-1.3 1.5-0.8 0.4-1.9 0.4-1.7 0-2.4-0.8-0.8-0.8-0.8-2.7zm14.5 8.7v1.3q-0.9 0.2-1.7 0.2-2 0-2-2.3v-6.7h-1.2v-1.2h1.2l0.5-2.2h1.1v2.2h1.9v1.2h-1.9v6.4q0 0.7 0.3 1 0.2 0.3 0.8 0.3 0.3 0 1-0.2zm9.8-3.3h-7.1q0 1.7 0.7 2.6 0.7 1 2.1 1 1.1 0 1.7-0.5 0.7-0.4 0.9-1.1l1.5 0.5q-0.9 2.3-4.1 2.3-2.3 0-3.4-1.3-1.2-1.3-1.2-3.9 0-2.5 1.2-3.8 1.1-1.4 3.3-1.4 4.4 0 4.4 5.4zm-7.1-1.3h5.4q-0.1-1.6-0.8-2.3-0.7-0.8-1.9-0.8-1.2 0-1.9 0.9-0.8 0.8-0.8 2.2zm13.5 1.6h-4.7v-1.5h4.7zm10.4 4.3h-8.1v-1.4h3.3v-10l-3 2.1v-1.6l3.1-2.1h1.6v11.6h3.1zm4.5 0h-1.8v-2h1.8zm5.6 0.2q-1.5 0-2.3-0.8-0.7-0.8-0.7-2.2 0-1.6 1-2.4 1-0.8 3.3-0.9h2.2v-0.6q0-1.2-0.5-1.7-0.5-0.6-1.6-0.6-1.1 0-1.6 0.4-0.6 0.4-0.7 1.2l-1.7-0.1q0.4-2.7 4-2.7 1.9 0 2.9 0.8 0.9 0.9 0.9 2.5v4.4q0 0.7 0.2 1.1 0.2 0.4 0.8 0.4 0.2 0 0.5-0.1v1q-0.6 0.2-1.3 0.2-0.9 0-1.3-0.5-0.4-0.5-0.5-1.5h-0.1q-0.6 1.1-1.4 1.6-0.9 0.5-2.1 0.5zm0.4-1.3q0.9 0 1.6-0.4 0.7-0.4 1.1-1.1 0.4-0.8 0.4-1.5v-0.9l-1.8 0.1q-1.2 0-1.8 0.2-0.6 0.2-0.9 0.7-0.3 0.5-0.3 1.2 0 0.8 0.4 1.3 0.5 0.4 1.3 0.4zm15.1 1.1h-1.7v-6.4q0-1.4-0.4-2-0.4-0.5-1.4-0.5-1.1 0-1.7 0.8-0.6 0.8-0.6 2.3v5.8h-1.7v-7.9q0-1.8 0-2.1h1.6q0 0 0 0.2 0 0.2 0 0.5 0 0.2 0 1h0.1q0.5-1.1 1.2-1.5 0.7-0.4 1.7-0.4 1.1 0 1.8 0.4 0.7 0.5 0.9 1.5 0.6-1 1.3-1.5 0.7-0.4 1.8-0.4 1.5 0 2.2 0.8 0.7 0.8 0.7 2.7v6.7h-1.7v-6.4q0-1.4-0.4-2-0.4-0.5-1.4-0.5-1.1 0-1.7 0.8-0.6 0.8-0.6 2.3zm10.9 0.2q-1.5 0-2.3-0.8-0.7-0.8-0.7-2.2 0-1.6 1-2.4 1-0.9 3.3-0.9l2.2-0.1v-0.5q0-1.2-0.5-1.8-0.5-0.5-1.6-0.5-1.1 0-1.6 0.4-0.6 0.4-0.7 1.2l-1.7-0.1q0.4-2.8 4-2.8 1.9 0 2.9 0.9 0.9 0.9 0.9 2.5v4.3q0 0.8 0.2 1.2 0.2 0.3 0.8 0.3 0.2 0 0.5 0v1q-0.6 0.2-1.3 0.2-0.9 0-1.3-0.5-0.4-0.5-0.5-1.5h-0.1q-0.6 1.1-1.5 1.6-0.8 0.5-2 0.5zm0.4-1.3q0.9 0 1.6-0.4 0.7-0.4 1.1-1.2 0.4-0.7 0.4-1.5v-0.8l-1.8 0.1q-1.2 0-1.8 0.2-0.6 0.2-0.9 0.7-0.3 0.4-0.3 1.2 0 0.8 0.4 1.3 0.5 0.4 1.3 0.4zm14.9 1.1h-7.8v-1.3l5.6-7.5h-5.3v-1.3h7.3v1.3l-5.7 7.5h5.9zm10.7-5q0 2.6-1.2 3.9-1.1 1.3-3.3 1.3-2.2 0-3.4-1.4-1.1-1.3-1.1-3.8 0-5.2 4.5-5.2 2.3 0 3.4 1.2 1.1 1.3 1.1 4zm-1.8 0q0-2.1-0.6-3.1-0.6-0.9-2.1-0.9-1.4 0-2.1 1-0.6 0.9-0.6 3 0 1.9 0.6 2.9 0.7 1 2 1 1.5 0 2.2-0.9 0.6-1 0.6-3zm11.9 5h-1.7v-6.4q0-1-0.2-1.5-0.2-0.6-0.6-0.8-0.4-0.3-1.2-0.3-1.2 0-1.9 0.9-0.7 0.8-0.7 2.3v5.8h-1.7v-7.9q0-1.8-0.1-2.2h1.6q0 0.1 0 0.3 0 0.2 0.1 0.5 0 0.2 0 1 0.6-1.1 1.3-1.5 0.8-0.4 1.9-0.4 1.7 0 2.4 0.8 0.8 0.8 0.8 2.7zm5.1 0.2q-1.5 0-2.3-0.8-0.7-0.8-0.7-2.2 0-1.6 1-2.4 1-0.8 3.3-0.9h2.2v-0.6q0-1.2-0.5-1.7-0.5-0.6-1.6-0.6-1.1 0-1.6 0.4-0.6 0.4-0.7 1.2l-1.7-0.1q0.4-2.7 4-2.7 1.9 0 2.9 0.8 0.9 0.9 0.9 2.5v4.4q0 0.7 0.2 1.1 0.2 0.4 0.8 0.4 0.2 0 0.5-0.1v1q-0.6 0.2-1.3 0.2-0.9 0-1.3-0.5-0.4-0.5-0.5-1.5h-0.1q-0.6 1.1-1.5 1.6-0.8 0.5-2 0.5zm0.4-1.3q0.9 0 1.6-0.4 0.7-0.4 1.1-1.1 0.4-0.8 0.4-1.5v-0.9l-1.8 0.1q-1.2 0-1.8 0.2-0.6 0.2-0.9 0.7-0.3 0.5-0.3 1.2 0 0.8 0.4 1.3 0.5 0.4 1.3 0.4zm20.1-8.9l-2.9 10h-1.9l-1.8-7.1-0.3-1.6q-0.1 0.4-0.3 1.2-0.2 0.8-1.9 7.5h-1.9l-2.8-10h1.6l1.7 6.8q0.1 0.2 0.4 1.8l0.2-0.7 2.1-7.9h1.8l1.7 6.8 0.5 1.8 0.2-1.3 1.9-7.3zm8.8 7.2q0 1.4-1.1 2.2-1 0.8-3 0.8-1.8 0-2.9-0.6-1-0.7-1.3-2l1.5-0.3q0.2 0.9 0.9 1.2 0.7 0.4 1.8 0.4 1.3 0 1.9-0.4 0.6-0.4 0.6-1.2 0-0.5-0.4-0.9-0.4-0.4-1.3-0.6l-1.2-0.3q-1.5-0.4-2.1-0.8-0.6-0.3-0.9-0.8-0.4-0.5-0.4-1.3 0-1.4 1-2.1 1-0.7 2.9-0.7 1.6 0 2.6 0.6 1 0.6 1.2 1.9l-1.5 0.1q-0.1-0.6-0.7-1-0.6-0.3-1.6-0.3-1.2 0-1.7 0.3-0.5 0.3-0.5 1 0 0.5 0.2 0.7 0.2 0.3 0.6 0.5 0.5 0.2 1.9 0.6 1.3 0.3 1.9 0.6 0.6 0.3 0.9 0.6 0.3 0.3 0.5 0.8 0.2 0.4 0.2 1zm4.2 2.8h-1.8v-2h1.8zm4.3-5.1q0 2 0.7 3 0.6 0.9 1.9 0.9 0.9 0 1.4-0.5 0.7-0.4 0.8-1.4l1.7 0.1q-0.2 1.4-1.3 2.3-1 0.8-2.6 0.8-2.1 0-3.2-1.3-1.1-1.3-1.1-3.9 0-2.5 1.1-3.8 1.1-1.4 3.2-1.4 1.5 0 2.5 0.8 1.1 0.8 1.3 2.2l-1.7 0.2q-0.1-0.9-0.7-1.4-0.5-0.5-1.5-0.5-1.3 0-1.9 0.9-0.6 0.9-0.6 3zm16.7 0q0 2.7-1.1 4-1.2 1.2-3.4 1.2-2.2 0-3.3-1.3-1.1-1.3-1.1-3.9 0-5.2 4.5-5.2 2.3 0 3.4 1.3 1 1.3 1 3.9zm-1.7 0q0-2-0.6-3-0.6-0.9-2.1-0.9-1.5 0-2.1 0.9-0.7 1-0.7 3 0 2 0.7 3 0.6 1 2 1 1.5 0 2.1-1 0.7-0.9 0.7-3zm11.3 5.1h-1.6v-6.4q0-1.5-0.4-2-0.4-0.6-1.5-0.6-1 0-1.7 0.8-0.6 0.9-0.6 2.3v5.9h-1.6v-7.9q0-1.8-0.1-2.2h1.6q0 0.1 0 0.3 0 0.2 0 0.4 0 0.3 0.1 1 0.5-1 1.2-1.4 0.7-0.5 1.7-0.5 1.2 0 1.8 0.5 0.7 0.4 0.9 1.4h0.1q0.5-1 1.2-1.4 0.8-0.5 1.8-0.5 1.5 0 2.2 0.9 0.7 0.8 0.7 2.7v6.7h-1.6v-6.4q0-1.5-0.4-2-0.4-0.6-1.5-0.6-1.1 0-1.7 0.8-0.6 0.9-0.6 2.3zm114.5-1.9h1.8v1.5q0 1-0.2 1.6-0.2 0.7-0.6 1.3h-1.1q0.9-1.3 0.9-2.5h-0.8zm1.8-6.2h-1.8v-1.9h1.8zm-584.1 33.9h0.5q0.9 0 1.2-0.5 0.4-0.5 0.4-1.5v-3.3q0-0.9 0.5-1.6 0.5-0.6 1.3-0.8-0.8-0.2-1.3-0.8-0.5-0.6-0.5-1.5v-3.3q0-1-0.4-1.5-0.3-0.5-1.2-0.5h-0.5v-1.2h1.2q1.2 0 1.8 0.7 0.6 0.7 0.6 2v3.4q0 1 0.5 1.6 0.5 0.5 1.5 0.5v1.2q-1 0.1-1.5 0.6-0.5 0.5-0.5 1.6v3.4q0 1.2-0.6 2-0.6 0.7-1.8 0.7h-1.2z"/>
	<path id="server {         # Escuta na por" class="s1" aria-label="server {
        # Escuta na porta 80 - HTTP
        listen       80;
        server_name $ec2.compute-1.amazonaws.com;
        # Redireciona todo o tr치fego para a porta 443 HTTPS
        return 301 https://$ec2.compute-1.amazonaws.com$request_uri;
}

"  d="m68.7 46.8h-2.2l-0.7 3.4h2.4v1h-2.6l-0.8 3.8h-1l0.8-3.8h-3.4l-0.8 3.8h-1l0.8-3.8h-1.9v-1h2.1l0.7-3.4h-2.3v-1h2.5l0.9-3.8h1l-0.8 3.8h3.3l0.8-3.8h1.1l-0.9 3.8h2zm-3.2 0h-3.3l-0.8 3.4h3.4zm20.4 8.2h-10.3v-13.1h9.9v1.5h-8.1v4.2h7.6v1.4h-7.6v4.6h8.5zm9.6-2.8q0 1.4-1 2.2-1.1 0.8-3 0.8-1.9 0-2.9-0.7-1-0.6-1.3-1.9l1.4-0.3q0.2 0.8 0.9 1.2 0.7 0.4 1.9 0.4 1.2 0 1.8-0.4 0.6-0.4 0.6-1.2 0-0.6-0.4-0.9-0.4-0.4-1.3-0.6l-1.2-0.4q-1.4-0.3-2.1-0.7-0.6-0.3-0.9-0.9-0.3-0.5-0.3-1.2 0-1.4 0.9-2.1 1-0.7 2.9-0.7 1.6 0 2.6 0.6 1 0.5 1.3 1.8l-1.5 0.2q-0.2-0.6-0.8-1-0.6-0.4-1.6-0.4-1.1 0-1.7 0.4-0.5 0.3-0.5 1 0 0.4 0.2 0.7 0.2 0.3 0.7 0.5 0.4 0.2 1.8 0.5 1.3 0.4 1.9 0.7 0.6 0.2 0.9 0.6 0.4 0.3 0.6 0.8 0.1 0.4 0.1 1zm3.3-2.3q0 2 0.6 3 0.6 0.9 1.9 0.9 0.9 0 1.5-0.4 0.6-0.5 0.7-1.5l1.7 0.1q-0.2 1.4-1.2 2.3-1 0.9-2.6 0.9-2.2 0-3.3-1.4-1.1-1.3-1.1-3.9 0-2.5 1.1-3.8 1.2-1.3 3.2-1.3 1.6 0 2.6 0.7 1 0.8 1.3 2.2l-1.7 0.2q-0.2-0.9-0.7-1.3-0.5-0.5-1.5-0.5-1.3 0-1.9 0.8-0.6 0.9-0.6 3zm8.2-5h1.6v6.4q0 1 0.2 1.5 0.2 0.6 0.7 0.8 0.4 0.3 1.2 0.3 1.2 0 1.9-0.9 0.7-0.8 0.7-2.2v-5.9h1.7v7.9q0 1.8 0 2.2h-1.5q-0.1-0.1-0.1-0.3 0-0.2 0-0.4 0-0.3 0-1-0.6 1-1.4 1.4-0.7 0.5-1.9 0.5-1.6 0-2.4-0.9-0.7-0.8-0.7-2.7zm14.4 8.8v1.2q-0.8 0.2-1.7 0.2-2 0-2-2.3v-6.7h-1.1v-1.2h1.2l0.5-2.2h1.1v2.2h1.9v1.2h-1.9v6.4q0 0.7 0.2 1 0.3 0.3 0.9 0.3 0.3 0 0.9-0.1zm4 1.4q-1.5 0-2.3-0.7-0.7-0.8-0.7-2.2 0-1.6 1-2.4 1-0.9 3.3-0.9l2.3-0.1v-0.5q0-1.2-0.6-1.8-0.5-0.5-1.6-0.5-1.1 0-1.6 0.4-0.5 0.4-0.6 1.2l-1.8-0.2q0.5-2.7 4-2.7 1.9 0 2.9 0.9 1 0.9 1 2.5v4.3q0 0.8 0.1 1.2 0.2 0.3 0.8 0.3 0.2 0 0.5 0v1q-0.6 0.2-1.3 0.2-0.9 0-1.3-0.5-0.4-0.5-0.5-1.6-0.7 1.2-1.5 1.7-0.9 0.4-2.1 0.4zm0.4-1.2q0.9 0 1.6-0.4 0.7-0.4 1.1-1.2 0.5-0.7 0.5-1.5v-0.8h-1.9q-1.1 0.1-1.8 0.3-0.6 0.2-0.9 0.7-0.3 0.4-0.3 1.2 0 0.8 0.4 1.3 0.5 0.4 1.3 0.4zm20.9 1.1h-1.6v-6.4q0-1-0.2-1.5-0.2-0.6-0.6-0.8-0.5-0.3-1.3-0.3-1.2 0-1.9 0.9-0.7 0.8-0.7 2.2v5.9h-1.7v-7.9q0-1.8 0-2.2h1.6q0 0.1 0 0.3 0 0.2 0 0.4 0 0.3 0 1h0.1q0.5-1 1.3-1.4 0.7-0.5 1.9-0.5 1.6 0 2.4 0.9 0.7 0.8 0.7 2.7zm5.1 0.2q-1.5 0-2.2-0.8-0.8-0.8-0.8-2.2 0-1.6 1-2.4 1-0.9 3.3-0.9h2.3v-0.6q0-1.2-0.5-1.7-0.6-0.6-1.7-0.6-1.1 0-1.6 0.4-0.5 0.4-0.6 1.2l-1.8-0.1q0.5-2.7 4.1-2.7 1.9 0 2.8 0.8 1 0.9 1 2.5v4.4q0 0.7 0.2 1.1 0.2 0.3 0.7 0.3 0.2 0 0.6 0v1q-0.7 0.2-1.3 0.2-1 0-1.4-0.5-0.4-0.5-0.5-1.5-0.7 1.1-1.5 1.6-0.9 0.5-2.1 0.5zm0.4-1.3q0.9 0 1.6-0.4 0.8-0.4 1.2-1.2 0.4-0.7 0.4-1.5v-0.8l-1.8 0.1q-1.2 0-1.8 0.2-0.6 0.2-1 0.7-0.3 0.4-0.3 1.2 0 0.8 0.4 1.3 0.5 0.4 1.3 0.4zm21.4-4q0 5.3-3.7 5.3-2.3 0-3.1-1.8h-0.1q0.1 0.1 0.1 1.6v3.9h-1.7v-11.9q0-1.6 0-2.1h1.6q0 0.1 0 0.3 0 0.2 0 0.7 0.1 0.5 0.1 0.7 0.4-1 1.2-1.4 0.7-0.4 1.9-0.4 1.9 0 2.8 1.2 0.9 1.2 0.9 3.9zm-1.8 0q0-2.1-0.5-3-0.6-0.9-1.8-0.9-1 0-1.6 0.5-0.5 0.4-0.8 1.3-0.3 0.9-0.3 2.3 0 2 0.6 2.9 0.6 0.9 2.1 0.9 1.2 0 1.8-0.9 0.5-0.9 0.5-3.1zm12.4 0q0 2.7-1.2 4-1.2 1.3-3.4 1.3-2.2 0-3.3-1.4-1.1-1.3-1.1-3.9 0-5.1 4.5-5.1 2.3 0 3.4 1.2 1.1 1.3 1.1 3.9zm-1.8 0q0-2-0.6-3-0.6-0.9-2.1-0.9-1.4 0-2.1 0.9-0.7 1-0.7 3 0 2 0.7 3 0.6 1 2 1 1.5 0 2.2-0.9 0.6-1 0.6-3.1zm5.6 5.1h-1.7v-7.7q0-1.1-0.1-2.4h1.6q0.1 1.7 0.1 2.1 0.4-1.3 0.9-1.8 0.6-0.4 1.5-0.4 0.3 0 0.7 0v1.6q-0.4-0.1-0.9-0.1-1.1 0-1.6 0.9-0.5 0.9-0.5 2.5zm8.4-1.3v1.3q-0.8 0.2-1.7 0.2-2 0-2-2.3v-6.7h-1.1v-1.2h1.2l0.5-2.2h1.1v2.2h1.9v1.2h-1.9v6.4q0 0.7 0.2 1 0.3 0.3 0.9 0.3 0.3 0 0.9-0.2zm4 1.5q-1.5 0-2.3-0.8-0.7-0.8-0.7-2.2 0-1.5 1-2.4 1-0.8 3.3-0.8l2.3-0.1v-0.5q0-1.3-0.6-1.8-0.5-0.5-1.6-0.5-1.1 0-1.6 0.4-0.5 0.3-0.6 1.2l-1.8-0.2q0.4-2.7 4-2.7 1.9 0 2.9 0.9 1 0.9 1 2.5v4.3q0 0.8 0.1 1.1 0.2 0.4 0.8 0.4 0.2 0 0.5-0.1v1.1q-0.6 0.1-1.3 0.1-0.9 0-1.3-0.4-0.4-0.5-0.5-1.6-0.7 1.2-1.5 1.7-0.9 0.4-2.1 0.4zm0.4-1.2q0.9 0 1.6-0.4 0.7-0.5 1.1-1.2 0.5-0.7 0.5-1.5v-0.8h-1.9q-1.1 0-1.8 0.3-0.6 0.2-0.9 0.7-0.3 0.4-0.3 1.2 0 0.8 0.4 1.2 0.5 0.5 1.3 0.5zm21.4-2.6q0 1.8-1.2 2.8-1.1 1-3.3 1-2.1 0-3.3-1-1.2-1-1.2-2.8 0-1.3 0.8-2.1 0.7-0.9 1.8-1.1-1-0.3-1.6-1.1-0.7-0.9-0.7-2 0-1.5 1.2-2.4 1.1-0.9 3-0.9 1.9 0 3 0.9 1.1 0.9 1.1 2.4 0 1.2-0.6 2-0.6 0.8-1.7 1v0.1q1.3 0.2 2 1.1 0.7 0.8 0.7 2.1zm-2.1-6.2q0-2.2-2.4-2.2-1.2 0-1.8 0.6-0.6 0.5-0.6 1.6 0 1.2 0.6 1.8 0.6 0.5 1.8 0.5 1.2 0 1.8-0.5 0.6-0.5 0.6-1.8zm0.3 6q0-1.2-0.7-1.8-0.7-0.6-2-0.6-1.3 0-2 0.7-0.7 0.6-0.7 1.8 0 2.7 2.7 2.7 1.4 0 2.1-0.7 0.6-0.6 0.6-2.1zm12.4-2.7q0 3.3-1.2 5-1.1 1.7-3.4 1.7-2.2 0-3.3-1.7-1.2-1.7-1.2-5 0-3.4 1.1-5 1.1-1.7 3.5-1.7 2.3 0 3.4 1.7 1.1 1.7 1.1 5zm-1.7 0q0-2.8-0.6-4.1-0.7-1.3-2.2-1.3-1.5 0-2.2 1.3-0.7 1.2-0.7 4.1 0 2.8 0.7 4.1 0.7 1.3 2.2 1.3 1.4 0 2.1-1.4 0.7-1.3 0.7-4zm13.2 2.2h-4.6v-1.4h4.6zm18.3 4.3h-1.8v-6.1h-7v6.1h-1.8v-13.1h1.8v5.5h7v-5.5h1.8zm12.7-11.6h-4.5v11.6h-1.7v-11.6h-4.5v-1.5h10.7zm11.6 0h-4.5v11.6h-1.7v-11.6h-4.5v-1.4h10.7zm12.1 2.5q0 1.8-1.2 2.9-1.2 1.1-3.3 1.1h-3.8v5.1h-1.8v-13.1h5.5q2.2 0 3.4 1 1.2 1.1 1.2 3zm-1.7 0q0-2.6-3.1-2.6h-3.5v5.2h3.6q3 0 3-2.6zm-228.6 68.9h-2.2l-0.7 3.4h2.4v1h-2.6l-0.8 3.8h-1.1l0.8-3.8h-3.3l-0.8 3.8h-1l0.8-3.8h-1.9v-1h2.1l0.7-3.4h-2.3v-1h2.5l0.8-3.8h1.1l-0.9 3.8h3.4l0.8-3.8h1l-0.8 3.8h2zm-3.2 0h-3.4l-0.7 3.4h3.4zm21.4 8.2h-2.1l-3.4-5.4h-4v5.4h-1.8v-13.1h6.1q2.2 0 3.4 1 1.2 1 1.2 2.8 0 1.4-0.8 2.4-0.8 1-2.3 1.3zm-2.3-9.3q0-1.2-0.8-1.8-0.8-0.6-2.2-0.6h-4.3v4.9h4.3q1.4 0 2.2-0.7 0.8-0.7 0.8-1.8zm12.9 4.6h-7.2q0 1.7 0.7 2.7 0.7 0.9 2.1 0.9 1.1 0 1.7-0.4 0.7-0.5 0.9-1.1l1.5 0.4q-0.9 2.4-4.1 2.4-2.2 0-3.4-1.4-1.2-1.3-1.2-3.9 0-2.5 1.2-3.8 1.2-1.3 3.3-1.3 4.5 0 4.5 5.3zm-7.2-1.3h5.4q-0.1-1.6-0.8-2.3-0.6-0.7-1.9-0.7-1.2 0-1.9 0.8-0.7 0.8-0.8 2.2zm15.7 4.3h-0.1q-0.4 1-1.2 1.4-0.8 0.4-1.9 0.4-1.9 0-2.8-1.2-0.9-1.3-0.9-3.9 0-5.3 3.7-5.3 1.1 0 1.9 0.5 0.8 0.4 1.2 1.3v-1.1-4.2h1.7v11.7q0 1.6 0 2.1h-1.5q-0.1-0.2-0.1-0.7 0-0.6 0-1zm-5.1-3.4q0 2.1 0.5 3 0.6 1 1.8 1 1.4 0 2.1-1 0.6-1 0.6-3.1 0-2-0.6-2.9-0.7-0.9-2.1-0.9-1.2 0-1.8 0.9-0.5 0.9-0.5 3zm10.9-7.1h-1.7v-1.6h1.7zm0 12.2h-1.7v-10.1h1.7zm4.3 0h-1.7v-7.7q0-1 0-2.3h1.5q0.1 1.7 0.1 2 0.4-1.3 1-1.7 0.5-0.5 1.4-0.5 0.4 0 0.7 0.1v1.5q-0.3-0.1-0.9-0.1-1 0-1.6 0.9-0.5 0.9-0.5 2.6zm13-4.7h-7.1q0 1.8 0.7 2.7 0.7 0.9 2.1 0.9 1.1 0 1.7-0.4 0.7-0.4 0.9-1.1l1.5 0.4q-0.9 2.4-4.1 2.4-2.2 0-3.4-1.3-1.2-1.4-1.2-4 0-2.5 1.2-3.8 1.2-1.3 3.3-1.3 4.4 0 4.4 5.3zm-7.1-1.3h5.4q-0.1-1.6-0.8-2.3-0.7-0.7-1.9-0.7-1.2 0-1.9 0.8-0.7 0.8-0.8 2.2zm10.5 0.9q0 2 0.7 3 0.6 0.9 1.9 0.9 0.9 0 1.5-0.4 0.6-0.5 0.7-1.5l1.7 0.1q-0.2 1.4-1.2 2.3-1.1 0.9-2.7 0.9-2.1 0-3.2-1.4-1.1-1.3-1.1-3.9 0-2.5 1.1-3.8 1.1-1.4 3.2-1.4 1.5 0 2.6 0.8 1 0.8 1.2 2.2l-1.7 0.2q-0.1-0.9-0.6-1.4-0.6-0.4-1.5-0.4-1.4 0-2 0.8-0.6 0.9-0.6 3zm9.9-7.1h-1.6v-1.6h1.6zm0 12.2h-1.6v-10.1h1.6zm11.1-5q0 2.6-1.2 3.9-1.1 1.3-3.3 1.3-2.2 0-3.4-1.3-1.1-1.4-1.1-3.9 0-5.2 4.5-5.2 2.3 0 3.4 1.3 1.1 1.2 1.1 3.9zm-1.8 0q0-2.1-0.6-3-0.6-1-2.1-1-1.4 0-2.1 1-0.6 1-0.6 3 0 2 0.6 3 0.7 1 2 1 1.5 0 2.2-1 0.6-0.9 0.6-3zm11.9 5h-1.7v-6.3q0-1-0.2-1.6-0.2-0.5-0.6-0.8-0.4-0.2-1.2-0.2-1.2 0-1.9 0.8-0.7 0.9-0.7 2.3v5.8h-1.7v-7.9q0-1.7-0.1-2.1h1.6q0 0 0 0.2 0 0.3 0.1 0.5 0 0.3 0 1 0.6-1 1.3-1.5 0.8-0.4 1.9-0.4 1.7 0 2.4 0.8 0.8 0.9 0.8 2.7zm5.1 0.2q-1.5 0-2.3-0.8-0.7-0.8-0.7-2.2 0-1.5 1-2.3 1-0.9 3.3-0.9l2.2-0.1v-0.5q0-1.2-0.5-1.8-0.5-0.5-1.6-0.5-1.1 0-1.6 0.4-0.6 0.4-0.7 1.2l-1.7-0.2q0.4-2.7 4-2.7 1.9 0 2.9 0.9 0.9 0.9 0.9 2.5v4.3q0 0.8 0.2 1.1 0.2 0.4 0.8 0.4 0.2 0 0.5 0v1q-0.6 0.1-1.3 0.1-0.9 0-1.3-0.4-0.5-0.5-0.5-1.6h-0.1q-0.6 1.2-1.5 1.7-0.8 0.4-2 0.4zm0.4-1.2q0.9 0 1.6-0.4 0.7-0.5 1.1-1.2 0.4-0.7 0.4-1.5v-0.8h-1.8q-1.2 0-1.8 0.3-0.6 0.2-0.9 0.7-0.3 0.4-0.3 1.2 0 0.8 0.4 1.2 0.4 0.5 1.3 0.5zm16.7-0.3v1.3q-0.8 0.2-1.7 0.2-2 0-2-2.3v-6.7h-1.1v-1.2h1.2l0.5-2.2h1.1v2.2h1.9v1.2h-1.9v6.4q0 0.7 0.2 1 0.3 0.3 0.9 0.3 0.3 0 0.9-0.2zm9.9-3.7q0 2.7-1.1 3.9-1.2 1.3-3.4 1.3-2.2 0-3.3-1.3-1.1-1.3-1.1-3.9 0-5.2 4.5-5.2 2.3 0 3.4 1.3 1 1.3 1 3.9zm-1.7 0q0-2.1-0.6-3-0.7-0.9-2.1-0.9-1.5 0-2.1 0.9-0.7 1-0.7 3 0 2 0.7 3 0.6 1 2 1 1.5 0 2.1-1 0.7-0.9 0.7-3zm10.2 3.4q-0.5 1-1.3 1.4-0.7 0.4-1.9 0.4-1.9 0-2.8-1.2-0.9-1.3-0.9-3.9 0-5.3 3.7-5.3 1.2 0 1.9 0.4 0.8 0.5 1.3 1.4v-1.2-4.1h1.6v11.7q0 1.5 0.1 2h-1.6q0-0.1-0.1-0.6 0-0.6 0-1zm-5.1-3.4q0 2.1 0.5 3 0.6 0.9 1.9 0.9 1.4 0 2-0.9 0.7-1 0.7-3.1 0-2-0.7-2.9-0.6-0.9-2-0.9-1.3 0-1.9 0.9-0.5 0.9-0.5 3zm17.8 0q0 2.7-1.2 3.9-1.1 1.3-3.4 1.3-2.2 0-3.3-1.3-1.1-1.3-1.1-3.9 0-5.2 4.5-5.2 2.3 0 3.4 1.3 1.1 1.3 1.1 3.9zm-1.8 0q0-2.1-0.6-3-0.6-0.9-2.1-0.9-1.4 0-2.1 0.9-0.6 1-0.6 3 0 2 0.6 3 0.6 1 2 1 1.5 0 2.2-1 0.6-0.9 0.6-3zm17.6 0q0 2.7-1.1 3.9-1.2 1.3-3.4 1.3-2.2 0-3.3-1.3-1.2-1.3-1.2-3.9 0-5.2 4.5-5.2 2.3 0 3.4 1.3 1.1 1.3 1.1 3.9zm-1.7 0q0-2.1-0.7-3-0.6-0.9-2-0.9-1.5 0-2.2 0.9-0.6 1-0.6 3 0 2 0.6 3 0.7 1 2.1 1 1.5 0 2.1-1 0.7-0.9 0.7-3zm12.9 3.7v1.3q-0.8 0.2-1.7 0.2-2 0-2-2.3v-6.7h-1.1v-1.2h1.2l0.5-2.2h1.1v2.2h1.9v1.2h-1.9v6.4q0 0.7 0.2 1 0.3 0.3 0.9 0.3 0.3 0 0.9-0.2zm3.2 1.3h-1.7v-7.7q0-1-0.1-2.3h1.6q0.1 1.7 0.1 2.1 0.4-1.3 0.9-1.8 0.6-0.5 1.5-0.5 0.3 0 0.7 0.1v1.5q-0.4 0-0.9 0-1 0-1.6 0.9-0.5 0.8-0.5 2.5zm7.1 0.2q-1.5 0-2.2-0.8-0.8-0.8-0.8-2.2 0-1.5 1-2.4 1.1-0.8 3.3-0.9h2.3v-0.6q0-1.2-0.5-1.7-0.5-0.5-1.7-0.5-1.1 0-1.6 0.3-0.5 0.4-0.6 1.3l-1.7-0.2q0.4-2.7 4-2.7 1.9 0 2.8 0.9 1 0.8 1 2.5v4.3q0 0.7 0.2 1.1 0.2 0.4 0.7 0.4 0.3 0 0.6-0.1v1.1q-0.7 0.1-1.3 0.1-1 0-1.4-0.5-0.4-0.5-0.5-1.5-0.6 1.1-1.5 1.6-0.8 0.5-2.1 0.5zm0.4-1.3q0.9 0 1.7-0.4 0.7-0.4 1.1-1.1 0.4-0.7 0.4-1.5v-0.8h-1.8q-1.2 0-1.8 0.2-0.6 0.3-1 0.7-0.3 0.5-0.3 1.2 0 0.9 0.5 1.3 0.4 0.4 1.2 0.4zm0.5-10h-0.9v-0.2l2-2.7h2v0.3zm11.1 2.3h-1.9v8.8h-1.7v-8.8h-1.4v-1.2h1.4v-1.1q0-1.4 0.6-2 0.6-0.6 1.9-0.6 0.7 0 1.1 0.1v1.3q-0.4-0.1-0.7-0.1-0.6 0-0.9 0.3-0.3 0.3-0.3 1.2v0.9h1.9zm9.7 4.2h-7.1q0 1.7 0.7 2.6 0.7 1 2.1 1 1.1 0 1.7-0.5 0.7-0.4 0.9-1.1l1.5 0.4q-0.9 2.4-4.1 2.4-2.3 0-3.4-1.3-1.2-1.3-1.2-4 0-2.5 1.2-3.8 1.1-1.3 3.3-1.3 4.4 0 4.4 5.3zm-7.1-1.2h5.4q-0.1-1.6-0.8-2.4-0.7-0.7-1.9-0.7-1.2 0-2 0.8-0.7 0.8-0.7 2.3zm13.1 9.8q-1.7 0-2.7-0.6-0.9-0.6-1.2-1.8l1.7-0.3q0.1 0.7 0.7 1.1 0.6 0.4 1.5 0.4 2.5 0 2.5-3v-1.6q-0.5 1-1.3 1.5-0.8 0.5-1.9 0.5-1.9 0-2.8-1.3-0.8-1.2-0.8-3.8 0-2.7 0.9-3.9 0.9-1.3 2.8-1.3 1.1 0 1.9 0.5 0.8 0.5 1.2 1.4 0-0.3 0.1-1 0-0.7 0-0.7h1.6q0 0.5 0 2v7.7q0 4.2-4.2 4.2zm2.5-8.9q0-1.2-0.3-2.1-0.4-0.9-1-1.4-0.6-0.5-1.4-0.5-1.2 0-1.8 1-0.6 0.9-0.6 3 0 2 0.5 2.9 0.6 0.9 1.9 0.9 0.8 0 1.4-0.4 0.6-0.5 1-1.4 0.3-0.8 0.3-2zm12.7 0q0 2.6-1.2 3.9-1.1 1.3-3.3 1.3-2.2 0-3.3-1.4-1.2-1.3-1.2-3.8 0-5.2 4.5-5.2 2.3 0 3.4 1.2 1.1 1.3 1.1 4zm-1.7 0q0-2.1-0.7-3-0.6-1-2-1-1.5 0-2.2 1-0.6 0.9-0.6 3 0 2 0.6 3 0.7 0.9 2.1 0.9 1.5 0 2.1-0.9 0.7-1 0.7-3zm17.6-0.1q0 5.3-3.7 5.3-2.4 0-3.2-1.8 0 0.1 0 1.6v3.9h-1.6v-11.9q0-1.5-0.1-2h1.6q0 0 0.1 0.2 0 0.3 0 0.7 0 0.5 0 0.7h0.1q0.4-1 1.1-1.4 0.8-0.4 2-0.4 1.8 0 2.7 1.2 1 1.3 1 3.9zm-1.8 0.1q0-2.1-0.6-3-0.5-0.9-1.8-0.9-1 0-1.5 0.4-0.6 0.4-0.9 1.3-0.3 0.9-0.3 2.3 0 2 0.7 2.9 0.6 0.9 2 0.9 1.3 0 1.8-0.9 0.6-0.9 0.6-3zm6.4 5.2q-1.5 0-2.3-0.8-0.7-0.8-0.7-2.2 0-1.6 1-2.4 1-0.8 3.3-0.9h2.2v-0.6q0-1.2-0.5-1.7-0.5-0.6-1.6-0.6-1.1 0-1.6 0.4-0.5 0.4-0.7 1.2l-1.7-0.1q0.4-2.7 4-2.7 1.9 0 2.9 0.8 0.9 0.9 0.9 2.6v4.3q0 0.7 0.2 1.1 0.2 0.4 0.8 0.4 0.2 0 0.5-0.1v1q-0.6 0.2-1.3 0.2-0.9 0-1.3-0.5-0.4-0.5-0.5-1.5h-0.1q-0.6 1.1-1.4 1.6-0.9 0.5-2.1 0.5zm0.4-1.3q0.9 0 1.6-0.4 0.7-0.4 1.1-1.1 0.4-0.8 0.4-1.5v-0.9l-1.8 0.1q-1.2 0-1.8 0.2-0.6 0.2-0.9 0.7-0.3 0.5-0.3 1.2 0 0.8 0.4 1.3 0.5 0.4 1.3 0.4zm9.3 1.1h-1.7v-7.7q0-1.1 0-2.3h1.6q0 1.7 0 2h0.1q0.4-1.3 0.9-1.8 0.5-0.4 1.5-0.4 0.3 0 0.6 0.1v1.5q-0.3-0.1-0.9-0.1-1 0-1.5 0.9-0.6 0.9-0.6 2.6zm7.2 0.2q-1.5 0-2.3-0.8-0.7-0.8-0.7-2.2 0-1.6 1-2.4 1-0.9 3.3-0.9l2.2-0.1v-0.5q0-1.2-0.5-1.8-0.5-0.5-1.6-0.5-1.1 0-1.6 0.4-0.6 0.4-0.7 1.2l-1.7-0.1q0.4-2.8 4-2.8 1.9 0 2.9 0.9 0.9 0.9 0.9 2.5v4.3q0 0.8 0.2 1.2 0.2 0.3 0.8 0.3 0.2 0 0.5 0v1q-0.6 0.2-1.3 0.2-0.9 0-1.3-0.5-0.4-0.5-0.5-1.6h-0.1q-0.6 1.2-1.5 1.7-0.8 0.5-2 0.5zm0.4-1.3q0.9 0 1.6-0.4 0.7-0.4 1.1-1.2 0.4-0.7 0.4-1.5v-0.8h-1.8q-1.2 0.1-1.8 0.3-0.6 0.2-0.9 0.7-0.3 0.4-0.3 1.2 0 0.8 0.4 1.3 0.5 0.4 1.3 0.4zm15.4 1.3q-1.5 0-2.2-0.8-0.8-0.8-0.8-2.2 0-1.6 1-2.4 1-0.9 3.3-0.9l2.3-0.1v-0.5q0-1.2-0.5-1.8-0.6-0.5-1.7-0.5-1.1 0-1.6 0.4-0.5 0.4-0.6 1.2l-1.8-0.1q0.5-2.8 4.1-2.8 1.9 0 2.8 0.9 1 0.9 1 2.5v4.3q0 0.8 0.2 1.2 0.2 0.3 0.7 0.3 0.3 0 0.6 0v1q-0.7 0.2-1.3 0.2-1 0-1.4-0.5-0.4-0.5-0.5-1.6-0.7 1.2-1.5 1.7-0.9 0.5-2.1 0.5zm0.4-1.3q0.9 0 1.6-0.4 0.8-0.4 1.2-1.2 0.4-0.7 0.4-1.5v-0.8h-1.8q-1.2 0.1-1.8 0.3-0.6 0.2-1 0.7-0.3 0.4-0.3 1.2 0 0.8 0.5 1.3 0.4 0.4 1.2 0.4zm21.4-4q0 5.3-3.7 5.3-2.3 0-3.1-1.8 0 0.1 0 1.6v3.9h-1.7v-11.9q0-1.6 0-2.1h1.6q0 0.1 0 0.3 0 0.2 0 0.7 0.1 0.5 0.1 0.6 0.5-0.9 1.2-1.3 0.7-0.4 1.9-0.4 1.9 0 2.8 1.2 0.9 1.2 0.9 3.9zm-1.7 0q0-2.1-0.6-3-0.6-0.9-1.8-0.9-1 0-1.6 0.5-0.5 0.4-0.8 1.3-0.3 0.8-0.3 2.3 0 1.9 0.6 2.9 0.6 0.9 2.1 0.9 1.2 0 1.8-0.9 0.6-0.9 0.6-3.1zm12.3 0q0 2.7-1.2 4-1.1 1.3-3.4 1.3-2.2 0-3.3-1.4-1.1-1.3-1.1-3.9 0-5.2 4.5-5.2 2.3 0 3.4 1.3 1.1 1.3 1.1 3.9zm-1.8 0q0-2-0.6-3-0.6-0.9-2.1-0.9-1.4 0-2.1 0.9-0.6 1-0.6 3 0 2 0.6 3 0.6 1 2 1 1.5 0 2.2-0.9 0.6-1 0.6-3.1zm5.6 5.1h-1.7v-7.7q0-1.1-0.1-2.4h1.6q0.1 1.7 0.1 2.1 0.4-1.3 0.9-1.8 0.6-0.5 1.5-0.5 0.3 0 0.7 0.1v1.6q-0.4-0.1-0.9-0.1-1 0-1.6 0.9-0.5 0.9-0.5 2.5zm8.4-1.3v1.3q-0.8 0.2-1.7 0.2-2 0-2-2.3v-6.7h-1.1v-1.2h1.2l0.5-2.3h1.1v2.3h1.9v1.2h-1.9v6.3q0 0.8 0.2 1.1 0.3 0.3 0.9 0.3 0.3 0 0.9-0.2zm4 1.5q-1.5 0-2.3-0.8-0.7-0.8-0.7-2.2 0-1.5 1-2.4 1-0.8 3.3-0.9h2.3v-0.5q0-1.3-0.5-1.8-0.6-0.5-1.7-0.5-1.1 0-1.6 0.4-0.5 0.3-0.6 1.2l-1.8-0.2q0.5-2.7 4.1-2.7 1.8 0 2.8 0.9 1 0.8 1 2.5v4.3q0 0.8 0.2 1.1 0.1 0.4 0.7 0.4 0.2 0 0.5-0.1v1.1q-0.6 0.1-1.2 0.1-1 0-1.4-0.5-0.4-0.4-0.5-1.5-0.7 1.2-1.5 1.6-0.9 0.5-2.1 0.5zm0.4-1.2q0.9 0 1.6-0.5 0.7-0.4 1.2-1.1 0.4-0.7 0.4-1.5v-0.8h-1.9q-1.1 0-1.7 0.3-0.6 0.2-1 0.6-0.3 0.5-0.3 1.3 0 0.8 0.4 1.2 0.5 0.5 1.3 0.5zm21.6-1.9h-1.8v2.9h-1.6v-2.9h-6.1v-1.3l5.9-8.8h1.8v8.8h1.8zm-3.4-1.4v-6.9q0 0.1-0.2 0.5-0.3 0.5-0.4 0.6l-3.4 5-0.5 0.7-0.1 0.1zm14 1.4h-1.9v2.9h-1.5v-2.9h-6.2v-1.3l6-8.9h1.7v8.8h1.9zm-3.4-1.3v-6.9q-0.1 0.1-0.3 0.5-0.2 0.4-0.4 0.6l-3.3 4.9-0.5 0.7-0.2 0.2zm13.7 0.7q0 1.8-1.1 2.8-1.2 1-3.3 1-2 0-3.2-0.9-1.1-0.9-1.4-2.7l1.8-0.1q0.3 2.3 2.8 2.3 1.3 0 2-0.6 0.7-0.6 0.7-1.9 0-1-0.8-1.6-0.8-0.6-2.4-0.6h-0.9v-1.5h0.9q1.4 0 2.1-0.6 0.8-0.6 0.8-1.6 0-1.1-0.7-1.7-0.6-0.6-1.8-0.6-1.1 0-1.8 0.6-0.6 0.5-0.8 1.6l-1.6-0.2q0.1-1.6 1.3-2.5 1.1-0.9 2.9-0.9 2 0 3.1 0.9 1.1 1 1.1 2.6 0 1.2-0.7 2-0.7 0.8-2 1.1 1.4 0.2 2.2 1 0.8 0.8 0.8 2.1zm18.3 3.6h-1.7v-6.1h-7.1v6.1h-1.8v-13.1h1.8v5.6h7.1v-5.6h1.7zm12.8-11.6h-4.5v11.6h-1.8v-11.6h-4.5v-1.4h10.8zm11.6 0h-4.5v11.6h-1.8v-11.6h-4.5v-1.5h10.8zm12.1 2.5q0 1.8-1.2 2.9-1.3 1.1-3.3 1.1h-3.9v5.1h-1.7v-13h5.5q2.2 0 3.4 1 1.2 1 1.2 2.9zm-1.8 0q0-2.5-3.1-2.5h-3.5v5.1h3.6q3 0 3-2.6zm14.6 5.5q0 1.8-1.5 2.8-1.4 1-3.9 1-4.8 0-5.6-3.3l1.7-0.3q0.3 1.1 1.3 1.7 1 0.5 2.6 0.5 1.8 0 2.7-0.5 0.9-0.6 0.9-1.8 0-0.6-0.3-1-0.3-0.4-0.8-0.7-0.5-0.2-1.3-0.4-0.7-0.2-1.6-0.4-1.5-0.3-2.3-0.7-0.8-0.3-1.3-0.7-0.5-0.5-0.7-1-0.3-0.6-0.3-1.3 0-1.7 1.3-2.6 1.3-0.9 3.7-0.9 2.2 0 3.4 0.7 1.2 0.6 1.7 2.3l-1.8 0.3q-0.3-1.1-1.1-1.5-0.8-0.5-2.2-0.5-1.6 0-2.4 0.5-0.8 0.5-0.8 1.6 0 0.6 0.3 1 0.3 0.4 0.9 0.6 0.6 0.3 2.4 0.7 0.6 0.1 1.2 0.3 0.6 0.1 1.2 0.3 0.5 0.2 1 0.5 0.5 0.3 0.8 0.7 0.4 0.4 0.6 0.9 0.2 0.5 0.2 1.2z"/>
	<path id="server {         # Escuta na por" class="s2" aria-label="server {
        # Escuta na porta 80 - HTTP
        listen       80;
        server_name $ec2.compute-1.amazonaws.com;
        # Redireciona todo o tr치fego para a porta 443 HTTPS
        return 301 https://$ec2.compute-1.amazonaws.com$request_uri;
}

"  d="m179.2 101.3v-1.5q-4-0.2-4.6-3.3l1.6-0.4q0.2 1.1 0.9 1.7 0.8 0.6 2.1 0.6v-4.6q-1.6-0.4-2.3-0.7-0.6-0.3-1-0.7-0.4-0.5-0.5-0.9-0.2-0.5-0.2-1.2 0-1.4 1-2.2 1.1-0.9 3-0.9v-1.3h1.1v1.3q1.8 0 2.7 0.7 1 0.7 1.4 2.2l-1.6 0.3q-0.2-0.8-0.8-1.3-0.6-0.5-1.7-0.6v4.1q1.7 0.4 2.4 0.7 0.7 0.3 1.1 0.8 0.4 0.4 0.6 0.9 0.3 0.6 0.3 1.3 0 1.6-1.2 2.5-1.1 0.9-3.2 1v1.5zm3.9-5q0-0.6-0.2-0.9-0.3-0.4-0.7-0.7-0.5-0.2-1.8-0.6v4.4q1.3-0.1 2-0.7 0.7-0.5 0.7-1.5zm-6.3-6q0 0.5 0.3 0.9 0.2 0.4 0.7 0.6 0.4 0.3 1.4 0.6v-3.9q-2.4 0.1-2.4 1.8zm17.9 5h-7.1q0 1.8 0.7 2.7 0.7 0.9 2.1 0.9 1.1 0 1.7-0.4 0.7-0.4 0.9-1.1l1.5 0.4q-0.9 2.4-4.1 2.4-2.3 0-3.4-1.3-1.2-1.4-1.2-4 0-2.5 1.2-3.8 1.1-1.3 3.3-1.3 4.4 0 4.4 5.3zm-7.1-1.3h5.4q-0.1-1.6-0.8-2.3-0.7-0.7-1.9-0.7-1.2 0-2 0.8-0.7 0.8-0.7 2.2zm10.5 0.9q0 2 0.7 3 0.6 0.9 1.9 0.9 0.9 0 1.4-0.4 0.6-0.5 0.8-1.5l1.7 0.1q-0.2 1.4-1.3 2.3-1 0.9-2.6 0.9-2.1 0-3.2-1.4-1.1-1.3-1.1-3.9 0-2.5 1.1-3.8 1.1-1.3 3.2-1.3 1.5 0 2.5 0.8 1.1 0.7 1.3 2.2l-1.7 0.1q-0.1-0.9-0.7-1.3-0.5-0.5-1.5-0.5-1.3 0-1.9 0.8-0.6 0.9-0.6 3zm16.6 5.1h-8.7v-1.2q0.5-1.1 1.2-1.9 0.7-0.8 1.4-1.5 0.8-0.7 1.5-1.3 0.7-0.5 1.3-1.1 0.6-0.6 1-1.2 0.4-0.7 0.4-1.5 0-1-0.7-1.6-0.6-0.6-1.7-0.6-1.1 0-1.8 0.6-0.7 0.5-0.8 1.6l-1.7-0.2q0.2-1.5 1.3-2.5 1.2-0.9 3-0.9 2 0 3 0.9 1.1 1 1.1 2.7 0 0.8-0.4 1.5-0.3 0.8-1 1.5-0.7 0.8-2.6 2.3-1.1 0.9-1.7 1.6-0.7 0.7-0.9 1.4h6.8zm-2.7 47.3v-1.5q-3.9-0.2-4.6-3.4l1.6-0.3q0.2 1.1 0.9 1.7 0.8 0.5 2.1 0.6v-4.6q-1.6-0.4-2.3-0.7-0.6-0.4-1-0.8-0.4-0.4-0.5-0.9-0.2-0.5-0.2-1.1 0-1.5 1-2.3 1.1-0.8 3-0.9v-1.2h1.2v1.2q1.7 0.1 2.6 0.8 1 0.7 1.4 2.2l-1.6 0.3q-0.2-0.9-0.8-1.4-0.6-0.5-1.6-0.6v4.2q1.6 0.4 2.3 0.7 0.7 0.3 1.1 0.7 0.4 0.4 0.6 1 0.3 0.5 0.3 1.3 0 1.5-1.2 2.4-1.1 1-3.1 1.1v1.5zm3.8-5q0-0.6-0.2-1-0.3-0.4-0.7-0.6-0.5-0.3-1.8-0.6v4.3q1.3-0.1 2-0.6 0.7-0.6 0.7-1.5zm-6.3-6.1q0 0.6 0.3 1 0.2 0.3 0.7 0.6 0.4 0.3 1.5 0.5v-3.9q-2.5 0.1-2.5 1.8zm17.9 5.1h-7.1q0 1.7 0.7 2.7 0.7 0.9 2.1 0.9 1.1 0 1.7-0.4 0.7-0.5 0.9-1.1l1.5 0.4q-0.9 2.3-4.1 2.3-2.2 0-3.4-1.3-1.2-1.3-1.2-3.9 0-2.5 1.2-3.8 1.2-1.4 3.3-1.4 4.4 0 4.4 5.4zm-7.1-1.3h5.4q-0.1-1.6-0.8-2.3-0.7-0.8-1.9-0.8-1.2 0-1.9 0.9-0.7 0.8-0.8 2.2zm10.5 0.9q0 2 0.7 2.9 0.6 1 1.9 1 0.9 0 1.5-0.5 0.6-0.5 0.7-1.5l1.7 0.1q-0.2 1.5-1.2 2.4-1.1 0.8-2.7 0.8-2.1 0-3.2-1.3-1.1-1.3-1.1-3.9 0-2.5 1.1-3.9 1.1-1.3 3.2-1.3 1.5 0 2.5 0.8 1.1 0.8 1.3 2.2l-1.7 0.1q-0.1-0.8-0.6-1.3-0.6-0.5-1.5-0.5-1.4 0-2 0.9-0.6 0.9-0.6 3zm16.6 5h-8.7v-1.1q0.5-1.1 1.2-2 0.7-0.8 1.4-1.5 0.8-0.6 1.5-1.2 0.8-0.6 1.3-1.2 0.6-0.5 1-1.2 0.4-0.6 0.4-1.4 0-1.1-0.7-1.7-0.6-0.6-1.7-0.6-1.1 0-1.8 0.6-0.7 0.6-0.8 1.6l-1.7-0.1q0.2-1.6 1.3-2.5 1.2-0.9 3-0.9 2 0 3 0.9 1.1 0.9 1.1 2.6 0 0.8-0.4 1.6-0.3 0.7-1 1.5-0.7 0.7-2.6 2.3-1.1 0.9-1.7 1.6-0.6 0.7-0.9 1.3h6.8zm248.6 1.3v-1.5q-3.9-0.1-4.6-3.3l1.6-0.3q0.2 1.1 1 1.6 0.7 0.6 2 0.7v-4.6q-1.6-0.5-2.2-0.8-0.7-0.3-1-0.7-0.4-0.4-0.6-0.9-0.2-0.5-0.2-1.2 0-1.4 1.1-2.2 1-0.8 2.9-0.9v-1.2h1.2v1.2q1.7 0.1 2.7 0.8 0.9 0.7 1.3 2.1l-1.6 0.3q-0.2-0.8-0.8-1.3-0.5-0.5-1.6-0.6v4.1q1.6 0.4 2.3 0.7 0.8 0.4 1.2 0.8 0.4 0.4 0.6 0.9 0.2 0.6 0.2 1.3 0 1.6-1.1 2.5-1.2 0.9-3.2 1v1.5zm3.8-4.9q0-0.6-0.2-1-0.2-0.4-0.7-0.7-0.4-0.2-1.8-0.6v4.4q1.3-0.1 2-0.7 0.7-0.5 0.7-1.4zm-6.2-6.1q0 0.5 0.2 0.9 0.2 0.4 0.7 0.7 0.5 0.2 1.5 0.5v-3.9q-2.4 0.1-2.4 1.8zm11.1 9.7h-1.6v-7.7q0-1-0.1-2.3h1.6q0.1 1.7 0.1 2 0.4-1.3 0.9-1.7 0.5-0.5 1.5-0.5 0.3 0 0.7 0.1v1.5q-0.4-0.1-0.9-0.1-1.1 0-1.6 0.9-0.6 0.9-0.6 2.6zm13.1-4.7h-7.2q0 1.7 0.8 2.7 0.7 0.9 2 0.9 1.1 0 1.8-0.4 0.6-0.5 0.9-1.1l1.4 0.4q-0.9 2.4-4.1 2.4-2.2 0-3.4-1.4-1.1-1.3-1.1-3.9 0-2.5 1.1-3.8 1.2-1.3 3.4-1.3 4.4 0 4.4 5.3zm-7.1-1.3h5.4q-0.2-1.6-0.8-2.3-0.7-0.7-2-0.7-1.2 0-1.9 0.8-0.7 0.8-0.7 2.2zm12.4 6.1q-1.9 0-2.8-1.2-0.9-1.3-0.9-3.9 0-5.3 3.7-5.3 1.2 0 1.9 0.4 0.8 0.4 1.3 1.4 0-0.3 0-1 0.1-0.7 0.1-0.7h1.6q-0.1 0.5-0.1 2.7v11.4h-1.6v-4.1-1.5q-0.5 1-1.3 1.4-0.7 0.4-1.9 0.4zm3.2-5.3q0-1.9-0.7-2.9-0.6-0.9-2-0.9-1.3 0-1.8 0.9-0.6 1-0.6 3 0 2.1 0.6 3 0.5 1 1.8 1 1.4 0 2-1.1 0.7-1 0.7-3zm4.1-4.9h1.7v6.4q0 1 0.2 1.5 0.2 0.6 0.6 0.8 0.5 0.3 1.3 0.3 1.2 0 1.9-0.9 0.7-0.8 0.7-2.3v-5.8h1.7v7.9q0 1.8 0 2.2h-1.6q0-0.1 0-0.3 0-0.2 0-0.5 0-0.2 0-1h-0.1q-0.5 1.1-1.3 1.5-0.8 0.4-1.9 0.4-1.6 0-2.4-0.8-0.8-0.8-0.8-2.7zm19.1 5.4h-7.2q0 1.7 0.8 2.6 0.7 1 2 1 1.1 0 1.8-0.5 0.6-0.4 0.9-1.1l1.4 0.5q-0.9 2.3-4.1 2.3-2.2 0-3.4-1.3-1.1-1.3-1.1-3.9 0-2.5 1.1-3.8 1.2-1.4 3.4-1.4 4.4 0 4.4 5.4zm-7.1-1.3h5.4q-0.2-1.6-0.8-2.3-0.7-0.8-2-0.8-1.2 0-1.9 0.9-0.7 0.8-0.7 2.2zm16.8 3.2q0 1.4-1.1 2.1-1.1 0.8-3 0.8-1.9 0-2.9-0.6-1-0.6-1.3-1.9l1.4-0.3q0.3 0.8 0.9 1.2 0.7 0.3 1.9 0.3 1.3 0 1.8-0.3 0.6-0.4 0.6-1.2 0-0.6-0.4-1-0.4-0.4-1.3-0.6l-1.2-0.3q-1.4-0.4-2-0.7-0.6-0.4-1-0.9-0.3-0.5-0.3-1.3 0-1.3 0.9-2 1-0.8 2.9-0.8 1.7 0 2.6 0.6 1 0.6 1.3 1.9l-1.5 0.2q-0.2-0.7-0.8-1-0.6-0.4-1.6-0.4-1.1 0-1.7 0.3-0.5 0.4-0.5 1.1 0 0.4 0.2 0.7 0.2 0.3 0.7 0.5 0.4 0.1 1.8 0.5 1.3 0.3 1.9 0.6 0.6 0.3 0.9 0.6 0.4 0.4 0.6 0.8 0.2 0.5 0.2 1.1zm5.8 1.4v1.3q-0.8 0.2-1.7 0.2-2 0-2-2.3v-6.7h-1.2v-1.2h1.3l0.4-2.3h1.2v2.3h1.8v1.2h-1.8v6.3q0 0.8 0.2 1.1 0.2 0.2 0.8 0.2 0.4 0 1-0.1zm10.9 5.1h-11.1v-1.2h11.1zm1-13.8h1.7v6.3q0 1 0.2 1.6 0.2 0.5 0.6 0.8 0.4 0.2 1.3 0.2 1.2 0 1.9-0.8 0.7-0.8 0.7-2.3v-5.8h1.6v7.9q0 1.7 0.1 2.1h-1.6q0 0 0-0.2 0-0.2 0-0.5 0-0.3-0.1-1-0.6 1-1.3 1.5-0.8 0.4-1.9 0.4-1.6 0-2.4-0.8-0.8-0.8-0.8-2.7zm12.3 10h-1.6v-7.7q0-1-0.1-2.3h1.6q0.1 1.7 0.1 2 0.4-1.3 0.9-1.7 0.5-0.5 1.5-0.5 0.3 0 0.7 0.1v1.5q-0.4-0.1-0.9-0.1-1.1 0-1.6 0.9-0.6 0.9-0.6 2.6zm6.3-12.2h-1.6v-1.6h1.6zm0 12.2h-1.6v-10.1h1.6z"/>
	<path id="server {         # Escuta na por" class="s3" aria-label="server {
        # Escuta na porta 80 - HTTP
        listen       80;
        server_name $ec2.compute-1.amazonaws.com;
        # Redireciona todo o tr치fego para a porta 443 HTTPS
        return 301 https://$ec2.compute-1.amazonaws.com$request_uri;
}

"  d="m61.2 146h-1.7v-7.7q0-1.1 0-2.3h1.6q0 1.7 0 2h0.1q0.4-1.3 0.9-1.8 0.5-0.4 1.5-0.4 0.3 0 0.6 0.1v1.5q-0.3-0.1-0.8-0.1-1.1 0-1.6 0.9-0.6 0.9-0.6 2.6zm13.1-4.7h-7.2q0 1.7 0.7 2.7 0.7 0.9 2.1 0.9 1.1 0 1.8-0.4 0.6-0.5 0.8-1.1l1.5 0.4q-0.9 2.4-4.1 2.4-2.2 0-3.4-1.4-1.1-1.3-1.1-3.9 0-2.5 1.1-3.8 1.2-1.4 3.4-1.4 4.4 0 4.4 5.4zm-7.2-1.3h5.5q-0.2-1.6-0.9-2.3-0.6-0.7-1.9-0.7-1.2 0-1.9 0.8-0.7 0.8-0.8 2.2zm13.2 4.6v1.3q-0.9 0.2-1.7 0.2-2 0-2-2.3v-6.7h-1.2v-1.2h1.2l0.5-2.2h1.1v2.2h1.9v1.2h-1.9v6.4q0 0.7 0.3 1 0.2 0.3 0.8 0.3 0.3 0 1-0.2zm1.3-8.7h1.7v6.4q0 1 0.2 1.5 0.2 0.6 0.6 0.8 0.5 0.2 1.3 0.2 1.2 0 1.9-0.8 0.7-0.8 0.7-2.3v-5.8h1.7v7.9q0 1.8 0 2.1h-1.6q0 0 0-0.2 0-0.2 0-0.5 0-0.2 0-1h-0.1q-0.5 1.1-1.3 1.5-0.8 0.4-1.9 0.4-1.6 0-2.4-0.8-0.8-0.8-0.8-2.7zm12.4 10h-1.7v-7.7q0-1-0.1-2.3h1.6q0.1 1.7 0.1 2 0.4-1.2 0.9-1.7 0.6-0.5 1.5-0.5 0.3 0 0.7 0.1v1.5q-0.4-0.1-0.9-0.1-1 0-1.6 0.9-0.5 0.9-0.5 2.6zm12.6 0h-1.6v-6.4q0-1-0.2-1.5-0.2-0.6-0.7-0.8-0.4-0.2-1.2-0.2-1.2 0-1.9 0.8-0.7 0.8-0.7 2.3v5.8h-1.7v-7.9q0-1.7 0-2.1h1.5q0 0 0.1 0.2 0 0.2 0 0.5 0 0.2 0 1 0.6-1.1 1.4-1.5 0.7-0.4 1.8-0.4 1.7 0 2.5 0.8 0.7 0.8 0.7 2.7z"/>
</svg>