<?xml version="1.0" standalone="no"?>
<!DOCTYPE svg PUBLIC "-//W3C//DTD SVG 20010904//EN"
 "http://www.w3.org/TR/2001/REC-SVG-20010904/DTD/svg10.dtd">
<svg version="1.0" xmlns="http://www.w3.org/2000/svg"
 width="225.000000pt" height="225.000000pt" viewBox="0 0 225.000000 225.000000"
 preserveAspectRatio="xMidYMid meet">

<g transform="translate(0.000000,225.000000) scale(0.100000,-0.100000)"
fill="#fff" stroke="none">
<path d="M27 2224 c-4 -4 -7 -378 -7 -832 l0 -825 278 6 c254 4 285 7 372 30
120 31 196 65 276 122 l64 46 -25 27 c-23 24 -23 27 -8 44 9 10 21 18 28 18
18 0 46 -35 37 -46 -4 -5 4 2 18 16 14 14 35 38 47 54 19 24 25 27 38 16 14
-11 19 -10 37 7 l20 21 -21 11 c-11 7 -21 19 -21 28 0 15 -2 15 -18 0 -17 -16
-20 -15 -40 6 l-22 23 42 32 c23 18 50 32 60 32 10 0 18 6 18 14 0 8 3 21 6
30 4 10 1 16 -9 16 -12 0 -34 30 -25 34 2 1 21 14 43 29 74 51 80 56 68 68
-18 18 -53 1 -53 -27 0 -28 -15 -32 -24 -7 -4 10 -1 20 9 25 8 5 15 22 15 39
0 17 -4 28 -9 24 -6 -3 -15 4 -21 16 -13 24 -12 26 15 31 14 2 19 -2 17 -14
-2 -10 2 -18 7 -18 18 0 21 18 6 33 -8 9 -15 20 -15 26 0 6 -7 11 -15 11 -9 0
-15 10 -15 26 0 14 4 23 9 19 5 -3 12 -1 16 5 3 6 -1 13 -9 16 -17 6 -23 54
-7 54 5 0 12 -12 15 -26 8 -30 30 -27 34 4 2 16 -3 23 -21 27 -19 5 -27 16
-31 41 -5 25 -18 41 -51 64 -50 34 -49 33 -34 62 9 16 13 18 20 7 4 -7 11 -11
14 -7 4 4 -9 37 -28 75 -20 37 -38 77 -41 89 -4 11 -53 67 -109 125 -121 121
-225 189 -350 227 -76 24 -99 26 -337 29 -141 2 -259 1 -263 -3z m923 -307
c14 -25 13 -28 -8 -49 l-22 -22 -26 26 -26 25 23 27 c27 31 38 29 59 -7z m130
-78 c0 -4 -6 -12 -13 -18 -11 -8 -19 -5 -38 15 -24 25 -24 26 -4 40 18 13 21
12 37 -8 10 -13 18 -26 18 -29z m-147 -33 c21 -16 21 -25 -1 -54 l-18 -23 -23
25 c-20 21 -21 27 -9 45 15 24 26 26 51 7z m113 -11 c13 -20 14 -28 4 -40 -16
-19 -23 -19 -51 4 -23 19 -24 19 -5 40 25 27 32 26 52 -4z m-92 -156 c-12 -24
-11 -28 8 -41 18 -12 19 -17 9 -36 -13 -25 -29 -28 -55 -9 -16 12 -17 17 -6
36 15 28 12 31 -72 66 -38 15 -68 30 -68 32 0 2 9 21 20 43 l20 39 78 -52 c77
-51 78 -52 66 -78z m96 46 c24 -25 24 -26 4 -45 -18 -18 -20 -18 -42 -2 -21
16 -22 21 -11 45 15 33 19 33 49 2z m-238 -82 c44 -16 48 -20 43 -43 -10 -39
-17 -41 -72 -25 l-52 15 10 33 c5 17 9 33 9 34 0 6 14 2 62 -14z m351 -63 c-4
-16 -11 -19 -27 -14 -31 9 -39 20 -31 43 6 20 8 20 35 6 21 -11 27 -20 23 -35z
m-106 -18 c14 -9 5 -62 -11 -62 -34 1 -56 14 -56 34 0 13 3 26 7 29 9 9 45 9
60 -1z m-257 -77 c0 -32 -3 -35 -27 -35 -40 0 -52 11 -46 43 5 23 10 27 39 27
32 0 34 -2 34 -35z m166 25 c8 0 14 -10 14 -25 0 -21 -5 -25 -30 -25 -27 0
-30 3 -30 31 0 24 3 30 16 25 9 -3 22 -6 30 -6z m-91 -51 c4 -5 4 -21 1 -35
-5 -19 -13 -24 -36 -24 -28 0 -30 3 -30 35 0 32 2 35 29 35 17 0 33 -5 36 -11z
m275 -14 c0 -22 -4 -25 -34 -25 -30 0 -33 2 -28 25 3 20 10 25 33 25 24 0 29
-4 29 -25z m-98 -50 c3 -14 1 -25 -6 -25 -6 0 -21 -3 -33 -6 -20 -6 -23 -3
-23 25 0 28 3 31 29 31 23 0 30 -5 33 -25z m-240 -19 c4 -6 8 -21 8 -33 0 -25
3 -26 48 -17 28 6 30 9 25 35 -5 28 -4 29 31 29 20 0 36 -3 36 -7 0 -5 3 -18
6 -29 5 -18 0 -22 -29 -28 -29 -5 -34 -10 -30 -30 4 -20 0 -25 -29 -31 -44
-10 -47 -12 -41 -33 4 -18 8 -18 65 -5 50 12 63 12 69 1 21 -32 8 -43 -82 -75
l-90 -32 -15 35 c-8 19 -17 48 -21 65 -5 27 -4 29 26 29 29 0 31 2 31 36 l0
36 -45 -6 -45 -7 0 46 0 46 38 -7 c20 -4 40 -12 44 -18z m326 -89 c2 -10 -6
-21 -22 -29 -29 -13 -31 -12 -40 19 -5 16 -2 23 11 26 30 8 48 3 51 -16z m-10
-99 c2 -9 -7 -22 -19 -29 -19 -10 -25 -9 -36 7 -17 24 -16 32 5 37 29 8 47 3
50 -15z m-91 -57 c11 -18 7 -23 -42 -50 -30 -17 -57 -31 -60 -31 -6 0 -38 61
-33 64 6 5 103 35 113 35 6 1 16 -8 22 -18z m-140 -54 c10 -21 8 -26 -17 -40
-27 -16 -28 -16 -44 8 -15 23 -15 25 11 39 37 20 38 20 50 -7z m56 -91 c15
-22 14 -25 -9 -47 l-25 -24 -19 25 c-24 31 -25 39 -2 56 25 19 38 17 55 -10z
m121 7 c4 -10 -1 -24 -13 -37 -20 -19 -21 -19 -41 -1 l-22 20 22 17 c28 23 46
23 54 1z"/>
<path d="M1424 2222 c-8 -5 -9 -22 -3 -57 4 -27 8 -56 8 -62 1 -7 12 -13 26
-13 22 0 25 4 25 39 0 87 -18 118 -56 93z"/>
<path d="M1542 2190 c2 -48 7 -53 42 -40 21 8 26 16 26 45 0 33 -2 35 -35 35
-34 0 -35 -1 -33 -40z"/>
<path d="M1330 2208 c-54 -15 -56 -21 -26 -92 26 -61 29 -64 54 -57 26 8 27
10 24 77 -2 38 -6 72 -10 75 -4 3 -23 2 -42 -3z"/>
<path d="M1670 2178 c-5 -24 -14 -58 -19 -75 -9 -31 -8 -33 17 -33 24 0 29 7
46 60 10 34 17 62 15 64 -2 2 -14 8 -26 15 -21 10 -23 8 -33 -31z"/>
<path d="M1770 2154 c-15 -38 -12 -50 14 -62 22 -10 26 -8 37 21 7 18 14 35
16 38 3 5 -40 29 -53 29 -2 0 -9 -12 -14 -26z"/>
<path d="M1203 2160 c-26 -11 -28 -19 -11 -55 9 -19 16 -24 32 -19 12 4 22 7
23 8 5 4 -10 76 -16 75 -3 0 -16 -4 -28 -9z"/>
<path d="M1847 2104 c-16 -32 -16 -34 5 -45 18 -10 24 -8 39 12 25 32 24 44
-5 57 -21 9 -25 7 -39 -24z"/>
<path d="M1572 2078 c2 -25 8 -34 26 -36 16 -3 22 2 22 16 0 11 3 27 6 36 5
13 -1 16 -26 16 -29 0 -31 -2 -28 -32z"/>
<path d="M1062 2084 c-14 -10 -21 -22 -17 -31 4 -12 2 -13 -7 -5 -10 7 -20 4
-40 -13 l-26 -23 42 -41 c46 -45 52 -47 75 -27 9 7 38 21 64 31 44 17 48 20
42 44 -4 14 -8 28 -11 30 -8 8 -55 -19 -49 -29 3 -6 4 -10 1 -10 -3 0 -15 20
-26 45 -11 25 -22 45 -23 45 -1 0 -13 -7 -25 -16z m18 -84 c12 -16 19 -30 16
-30 -2 0 -14 14 -26 30 -12 17 -19 30 -16 30 2 0 14 -13 26 -30z"/>
<path d="M1723 2070 c-10 -26 -9 -32 7 -40 14 -8 21 -4 35 16 16 24 16 26 -2
40 -25 19 -27 18 -40 -16z"/>
<path d="M1931 2063 c-10 -22 -9 -29 4 -42 15 -15 18 -14 35 9 20 27 19 35 -9
50 -15 7 -20 4 -30 -17z"/>
<path d="M1253 2029 c-26 -10 -26 -9 -13 -44 8 -20 14 -24 33 -19 17 4 26 1
30 -10 14 -36 61 -11 52 27 -6 23 -11 25 -36 20 -22 -4 -29 -2 -29 10 0 22
-11 26 -37 16z"/>
<path d="M1431 2031 c-9 -6 -11 -18 -7 -35 5 -19 13 -26 31 -26 22 0 25 4 25
35 0 36 -18 46 -49 26z"/>
<path d="M1826 2002 c-16 -32 -7 -52 24 -52 23 0 43 45 27 58 -30 22 -37 22
-51 -6z"/>
<path d="M1995 2000 c-18 -20 -18 -21 1 -41 20 -20 20 -20 44 1 22 19 23 21 5
40 -23 25 -27 25 -50 0z"/>
<path d="M1715 1978 c-11 -29 -11 -34 1 -41 23 -13 41 -2 48 29 5 18 3 30 -6
35 -22 14 -28 10 -43 -23z"/>
<path d="M1538 1983 c-14 -4 -18 -15 -18 -49 0 -37 3 -44 20 -44 12 0 20 7 21
18 0 9 3 29 5 44 5 29 -2 37 -28 31z"/>
<path d="M1617 1973 c-4 -3 -7 -28 -7 -55 0 -40 3 -48 19 -48 13 0 20 10 25
31 11 56 7 79 -12 79 -10 0 -22 -3 -25 -7z"/>
<path d="M1911 1953 c-10 -22 -9 -29 4 -42 14 -14 17 -13 36 6 23 22 20 37
-10 53 -15 7 -20 4 -30 -17z"/>
<path d="M1779 1913 c-5 -16 -11 -33 -14 -40 -3 -9 15 -23 29 -23 1 0 10 16
21 36 16 30 17 37 4 45 -22 14 -29 11 -40 -18z"/>
<path d="M1390 1913 c0 -10 3 -28 6 -40 9 -33 34 -17 34 23 0 27 -4 34 -20 34
-12 0 -20 -7 -20 -17z"/>
<path d="M1842 1899 c-12 -18 -11 -24 2 -37 15 -15 18 -14 38 6 22 21 22 22 3
37 -26 19 -28 19 -43 -6z"/>
<path d="M2082 1897 c-22 -23 -22 -25 -5 -46 17 -20 19 -21 41 -6 27 19 27 26
4 55 l-17 21 -23 -24z"/>
<path d="M1476 1903 c-14 -4 -17 -11 -12 -35 3 -17 6 -34 6 -39 0 -5 7 -9 15
-9 11 0 15 12 15 45 0 25 -1 44 -2 44 -2 -1 -11 -3 -22 -6z"/>
<path d="M1206 1891 c-6 -9 12 -71 21 -71 2 0 13 4 23 10 16 8 17 14 7 40 -11
29 -39 41 -51 21z"/>
<path d="M1962 1882 c-16 -14 -18 -22 -10 -30 15 -15 29 -15 50 2 17 12 17 14
0 30 -18 15 -20 15 -40 -2z"/>
<path d="M1306 1881 c-11 -17 15 -71 35 -71 10 0 17 6 15 13 -3 6 -7 24 -10
40 -6 26 -29 37 -40 18z"/>
<path d="M1676 1864 c-18 -46 12 -63 32 -19 16 34 15 35 -7 35 -10 0 -22 -7
-25 -16z"/>
<path d="M1117 1848 c-18 -13 -18 -15 1 -38 12 -15 25 -21 35 -17 22 8 21 19
0 46 -16 19 -20 20 -36 9z"/>
<path d="M1882 1829 c-25 -24 -29 -33 -19 -44 9 -10 18 -8 44 12 27 21 31 28
22 44 -5 10 -11 19 -12 19 -2 0 -17 -14 -35 -31z"/>
<path d="M1760 1800 c-12 -23 -6 -40 15 -40 17 0 38 36 30 50 -10 17 -34 11
-45 -10z"/>
<path d="M1941 1801 c-20 -15 -22 -21 -12 -39 7 -12 14 -22 17 -22 5 0 45 19
52 25 5 4 -21 55 -27 55 -3 0 -17 -9 -30 -19z"/>
<path d="M1707 1803 c-12 -11 -7 -33 7 -33 12 0 26 20 26 36 0 7 -26 5 -33 -3z"/>
<path d="M1600 1764 c0 -45 24 -42 28 4 2 24 -1 32 -12 32 -12 0 -16 -10 -16
-36z"/>
<path d="M1252 1781 c-10 -6 -11 -13 -1 -35 13 -27 32 -30 37 -5 4 22 -21 50
-36 40z"/>
<path d="M1500 1771 c0 -32 11 -50 26 -44 8 3 14 18 14 34 0 22 -5 29 -20 29
-13 0 -20 -7 -20 -19z"/>
<path d="M1368 1773 c-22 -6 -22 -5 2 -53 21 -42 26 -45 48 -31 11 7 11 16 1
50 -12 40 -16 43 -51 34z"/>
<path d="M1823 1745 c-3 -9 -3 -18 0 -21 9 -9 27 6 27 22 0 19 -19 18 -27 -1z"/>
<path d="M1694 1735 c-4 -8 -3 -22 0 -32 6 -14 8 -14 21 3 8 10 15 25 15 32 0
17 -29 15 -36 -3z"/>
<path d="M1172 1727 c-11 -12 -8 -19 14 -36 47 -37 61 -21 21 25 -20 23 -24
24 -35 11z"/>
<path d="M1745 1711 c-14 -27 -14 -31 2 -39 13 -8 21 -4 35 13 23 29 22 32 -2
45 -16 9 -22 6 -35 -19z"/>
<path d="M1819 1691 c-23 -19 -23 -21 -6 -38 16 -17 18 -16 39 5 20 20 21 23
7 37 -14 14 -18 14 -40 -4z"/>
<path d="M1170 1654 c0 -3 5 -15 11 -26 9 -16 13 -18 20 -7 4 8 3 19 -3 26
-11 13 -28 18 -28 7z"/>
<path d="M1222 1635 c-16 -34 -17 -30 25 -55 l37 -22 18 24 c17 23 17 23 -15
50 -40 34 -51 35 -65 3z"/>
<path d="M1230 1415 c0 -8 5 -15 10 -15 6 0 10 7 10 15 0 8 -4 15 -10 15 -5 0
-10 -7 -10 -15z"/>
<path d="M1875 1210 c-17 -19 -17 -20 6 -39 26 -21 34 -20 49 9 8 14 5 21 -14
33 -22 15 -25 15 -41 -3z"/>
<path d="M1276 1171 c-27 -28 -27 -30 -9 -40 17 -8 24 -5 42 20 20 27 21 49 2
49 -4 0 -20 -13 -35 -29z"/>
<path d="M1220 1156 c0 -9 5 -16 10 -16 6 0 10 4 10 9 0 6 -4 13 -10 16 -5 3
-10 -1 -10 -9z"/>
<path d="M1776 1154 c-17 -12 -17 -14 1 -38 21 -29 35 -32 54 -10 10 13 9 19
-12 38 -22 20 -28 22 -43 10z"/>
<path d="M1335 1140 c-17 -19 -17 -20 6 -39 13 -11 24 -19 24 -18 0 1 8 12 18
23 17 21 17 22 -7 37 -22 15 -25 15 -41 -3z"/>
<path d="M1980 1115 l-22 -24 27 -36 28 -36 29 27 c15 15 28 31 28 35 0 4 -15
18 -34 32 l-33 26 -23 -24z"/>
<path d="M1718 1119 c-20 -11 -22 -27 -9 -47 7 -12 13 -12 35 0 27 14 27 15 9
36 -14 17 -22 19 -35 11z"/>
<path d="M1435 1079 c-7 -21 7 -39 32 -39 18 0 27 41 12 51 -23 14 -37 10 -44
-12z"/>
<path d="M1378 1066 c-16 -22 -16 -25 -1 -30 19 -8 20 -8 28 27 9 33 -4 35
-27 3z"/>
<path d="M1634 1068 c3 -13 6 -31 6 -40 0 -19 34 -25 44 -9 11 16 -18 71 -37
71 -15 0 -18 -5 -13 -22z"/>
<path d="M1276 1048 c-18 -24 -22 -36 -14 -45 6 -7 14 -13 18 -13 13 0 52 69
45 80 -10 17 -22 11 -49 -22z"/>
<path d="M1540 1068 c0 -7 -3 -23 -6 -35 -6 -21 -3 -23 30 -23 34 0 36 1 36
35 0 32 -2 35 -30 35 -17 0 -30 -5 -30 -12z"/>
<path d="M1810 1055 c0 -9 5 -15 11 -13 6 2 11 8 11 13 0 5 -5 11 -11 13 -6 2
-11 -4 -11 -13z"/>
<path d="M1187 1033 c-4 -3 -7 -11 -7 -17 0 -6 5 -5 12 2 6 6 9 14 7 17 -3 3
-9 2 -12 -2z"/>
<path d="M1745 1030 c-8 -14 13 -50 30 -50 21 0 27 17 13 40 -14 21 -33 26
-43 10z"/>
<path d="M1411 993 c-10 -21 -9 -28 1 -34 19 -13 28 -11 28 5 0 8 3 21 6 29
10 27 -23 27 -35 0z"/>
<path d="M1868 1008 c-16 -12 -16 -14 0 -36 12 -15 24 -21 35 -16 21 8 21 16
0 43 -15 19 -21 20 -35 9z"/>
<path d="M1333 975 c-19 -28 -20 -34 -7 -39 22 -8 20 -9 34 25 19 44 -1 55
-27 14z"/>
<path d="M2145 984 c-17 -26 -17 -27 6 -45 13 -10 24 -17 24 -16 0 1 8 11 18
23 16 20 16 21 -7 43 l-23 22 -18 -27z"/>
<path d="M1682 991 c-9 -6 -11 -19 -7 -45 8 -38 11 -41 34 -27 11 7 11 15 1
45 -6 20 -12 36 -13 36 -1 0 -8 -4 -15 -9z"/>
<path d="M1940 985 c-9 -11 -8 -19 7 -38 16 -22 20 -23 40 -10 21 14 21 16 6
39 -18 27 -35 31 -53 9z"/>
<path d="M2037 982 c-23 -26 -22 -31 24 -81 l40 -45 25 25 24 25 -48 47 c-47
46 -49 47 -65 29z"/>
<path d="M1594 982 c-18 -11 -5 -74 15 -70 9 2 16 9 15 16 -1 6 -2 23 -2 37
-2 26 -9 30 -28 17z"/>
<path d="M1490 968 c0 -7 -3 -30 -6 -50 -6 -33 -4 -38 13 -38 15 0 22 9 27 31
11 54 8 69 -14 69 -11 0 -20 -6 -20 -12z"/>
<path d="M1764 944 c-15 -6 13 -84 30 -84 33 1 38 17 14 54 -24 37 -25 38 -44
30z"/>
<path d="M1246 889 c-15 -25 -16 -33 -5 -39 18 -12 26 -5 33 26 10 40 -7 48
-28 13z"/>
<path d="M1940 865 c-10 -12 -5 -24 25 -65 l38 -51 23 22 23 22 -36 43 c-38
47 -53 53 -73 29z"/>
<path d="M1703 862 c-8 -5 -8 -15 2 -40 15 -34 21 -37 44 -23 12 8 12 14 1 40
-12 31 -25 37 -47 23z"/>
<path d="M1291 838 c-7 -17 -5 -26 7 -35 25 -20 39 -15 46 14 11 43 -37 62
-53 21z"/>
<path d="M1416 834 c-8 -31 -9 -30 27 -39 26 -7 27 -5 27 29 0 31 -3 36 -24
36 -17 0 -26 -7 -30 -26z"/>
<path d="M1550 825 c0 -38 0 -38 24 -29 10 4 16 18 16 35 0 22 -5 29 -20 29
-16 0 -20 -7 -20 -35z"/>
<path d="M1885 830 c-4 -7 36 -102 50 -118 6 -7 45 19 45 29 0 6 -14 31 -32
55 -31 43 -51 54 -63 34z"/>
<path d="M1076 808 c-9 -12 -15 -22 -13 -23 1 0 12 -8 24 -18 21 -18 22 -18
39 8 16 25 16 26 -2 40 -26 19 -30 19 -48 -7z"/>
<path d="M1191 801 c-8 -14 -7 -22 4 -31 11 -9 16 -7 25 10 11 21 6 40 -10 40
-5 0 -14 -9 -19 -19z"/>
<path d="M1827 786 c-15 -12 -16 -18 -6 -40 14 -30 18 -31 43 -13 15 11 16 17
5 40 -14 31 -17 32 -42 13z"/>
<path d="M1333 774 c-7 -18 4 -31 32 -36 15 -2 21 3 23 25 3 23 0 27 -23 27
-14 0 -28 -7 -32 -16z"/>
<path d="M1632 771 c-8 -5 -11 -17 -7 -33 9 -36 47 -27 43 10 -3 28 -16 36
-36 23z"/>
<path d="M1251 744 c-10 -22 -9 -28 6 -40 16 -11 20 -9 33 17 12 27 12 31 0
39 -22 14 -26 13 -39 -16z"/>
<path d="M1723 757 c-19 -11 -20 -15 -10 -38 10 -23 16 -25 35 -18 25 10 26
15 9 46 -10 18 -15 20 -34 10z"/>
<path d="M1583 752 c-18 -3 -23 -10 -23 -33 0 -26 4 -29 30 -29 28 0 29 2 23
33 -3 17 -6 32 -7 32 -1 1 -11 -1 -23 -3z"/>
<path d="M1126 723 c-19 -25 -19 -26 -1 -39 27 -20 33 -18 50 16 14 27 14 30
-4 40 -25 13 -23 14 -45 -17z"/>
<path d="M1460 715 c0 -33 2 -35 35 -35 34 0 35 1 29 28 -8 30 -20 42 -46 42
-14 0 -18 -8 -18 -35z"/>
<path d="M1302 672 c-12 -31 -20 -57 -19 -59 2 -1 19 -9 39 -17 36 -16 36 -16
42 12 20 99 20 99 -11 109 -28 10 -29 9 -51 -45z"/>
<path d="M1791 701 c-9 -6 -11 -18 -6 -40 8 -35 6 -35 39 -20 21 10 23 15 14
40 -10 30 -23 35 -47 20z"/>
<path d="M1570 641 c0 -16 -3 -36 -6 -45 -5 -13 1 -16 31 -16 37 0 37 1 31 31
-3 17 -6 38 -6 45 0 8 -10 14 -25 14 -21 0 -25 -5 -25 -29z"/>
<path d="M1688 663 c-18 -4 -23 -28 -12 -56 6 -17 54 -11 54 7 0 21 -12 56
-19 55 -3 -1 -14 -3 -23 -6z"/>
<path d="M1420 643 c0 -10 -3 -28 -6 -40 -6 -20 -3 -23 24 -23 26 0 31 5 37
31 8 35 9 34 -27 43 -23 5 -28 3 -28 -11z"/>
<path d="M27 524 c-4 -4 -7 -49 -7 -101 l0 -93 55 0 c74 0 105 28 105 94 0 55
-7 74 -32 87 -25 14 -111 23 -121 13z m90 -25 c36 -13 43 -25 43 -76 0 -50
-25 -73 -80 -73 l-36 0 -2 71 c-1 39 0 75 3 80 8 12 37 11 72 -2z"/>
<path d="M2030 497 c0 -32 -1 -33 -34 -29 -45 5 -71 -30 -63 -85 8 -45 20 -53
75 -51 l42 1 0 99 c0 59 -4 98 -10 98 -5 0 -10 -15 -10 -33z m-9 -47 c5 0 9
-20 9 -45 0 -39 -4 -47 -26 -57 -22 -11 -28 -10 -40 7 -29 39 -4 115 33 101 8
-3 19 -6 24 -6z"/>
<path d="M790 491 c0 -11 -6 -22 -12 -24 -10 -4 -10 -7 -1 -14 6 -5 13 -33 15
-63 3 -50 5 -55 28 -58 22 -2 23 -1 8 8 -13 8 -18 24 -18 57 0 32 5 50 18 59
16 13 16 13 0 14 -11 0 -18 8 -18 20 0 11 -4 20 -10 20 -5 0 -10 -9 -10 -19z"/>
<path d="M1570 490 c0 -11 -5 -20 -11 -20 -8 0 -8 -4 -1 -13 6 -7 12 -37 14
-67 3 -50 5 -55 28 -58 22 -2 23 -1 8 8 -13 8 -18 24 -18 57 0 32 5 50 18 59
16 13 16 13 0 14 -11 0 -18 8 -18 20 0 11 -4 20 -10 20 -5 0 -10 -9 -10 -20z"/>
<path d="M225 440 c-19 -37 -12 -86 15 -100 28 -15 76 -12 90 5 18 22 4 31
-18 12 -32 -29 -72 -15 -72 25 0 15 9 18 55 18 l55 0 -13 33 c-12 28 -19 32
-55 35 -37 3 -42 0 -57 -28z m83 8 c24 -24 13 -38 -28 -38 -26 0 -40 5 -40 13
0 18 21 37 40 37 9 0 21 -5 28 -12z"/>
<path d="M380 368 c0 -59 4 -98 10 -98 6 0 10 15 10 33 0 32 1 33 33 29 43 -5
67 18 67 64 0 60 -14 75 -70 73 l-50 -2 0 -99z m94 59 c19 -54 -22 -108 -59
-77 -21 18 -19 86 3 99 26 16 46 9 56 -22z"/>
<path d="M540 455 c-19 -23 -3 -31 20 -10 24 22 70 13 70 -14 0 -14 -8 -18
-36 -19 -46 -2 -66 -18 -62 -51 3 -24 6 -26 61 -27 l57 -1 0 57 c0 31 -5 61
-12 68 -17 17 -83 15 -98 -3z m90 -75 c0 -34 -65 -55 -76 -25 -9 23 15 45 47
45 22 0 29 -5 29 -20z"/>
<path d="M690 400 c0 -81 18 -95 22 -17 2 43 7 54 26 62 12 5 22 13 22 17 0
12 -25 9 -38 -4 -9 -9 -12 -9 -12 0 0 7 -4 12 -10 12 -6 0 -10 -30 -10 -70z"/>
<path d="M870 455 c-18 -22 -4 -31 18 -12 23 21 46 22 62 2 17 -21 4 -33 -39
-37 -69 -6 -74 -83 -5 -79 16 1 39 2 52 3 20 0 22 5 22 50 0 70 -12 88 -59 88
-22 0 -44 -6 -51 -15z m90 -75 c0 -34 -65 -55 -76 -25 -9 23 15 45 47 45 22 0
29 -5 29 -20z"/>
<path d="M1020 398 c0 -39 4 -68 10 -68 6 0 10 25 10 55 0 45 4 56 21 66 30
16 41 0 47 -66 6 -71 22 -72 22 -1 0 56 17 83 45 72 11 -4 15 -21 15 -66 0
-35 4 -60 10 -60 7 0 10 25 8 68 -3 65 -4 67 -31 70 -16 2 -34 -2 -42 -8 -9
-7 -15 -8 -20 -1 -3 6 -26 10 -50 9 l-45 -2 0 -68z"/>
<path d="M1266 455 c-25 -25 -24 -79 1 -107 20 -22 76 -23 93 -3 18 22 5 31
-15 11 -21 -20 -39 -20 -59 0 -28 28 -19 39 36 42 28 1 53 4 56 6 2 3 -2 17
-10 33 -10 22 -21 29 -49 31 -24 2 -42 -3 -53 -13z m72 -7 c24 -24 13 -38 -28
-38 -43 0 -55 20 -22 39 23 14 36 13 50 -1z"/>
<path d="M1410 398 c0 -39 4 -68 10 -68 6 0 10 22 10 48 0 36 5 54 20 67 34
31 50 13 50 -55 0 -45 4 -60 14 -60 11 0 14 14 12 58 -2 76 -7 82 -67 80 l-49
-2 0 -68z"/>
<path d="M1657 452 c-23 -25 -22 -85 1 -105 44 -40 112 -8 112 53 0 62 -74 96
-113 52z m69 0 c6 -4 14 -20 18 -36 14 -56 -48 -104 -74 -57 -29 55 12 123 56
93z"/>
<path d="M2107 452 c-21 -23 -22 -86 -1 -106 20 -20 78 -21 94 -1 18 22 5 31
-15 11 -21 -20 -39 -20 -59 0 -32 31 -20 44 40 44 53 0 55 1 48 23 -3 12 -11
28 -16 35 -16 18 -72 15 -91 -6z m71 -4 c24 -24 13 -38 -28 -38 -43 0 -55 20
-22 39 23 14 36 13 50 -1z"/>
<path d="M45 225 c-33 -32 -36 -114 -5 -145 39 -39 110 -38 131 1 15 29 2 38
-17 11 -10 -15 -25 -22 -49 -22 -43 0 -65 29 -65 86 0 74 67 105 112 53 19
-22 28 -24 28 -6 0 48 -94 64 -135 22z"/>
<path d="M1326 243 c-14 -14 -4 -18 34 -15 22 2 40 7 40 11 0 8 -66 11 -74 4z"/>
<path d="M1626 154 c-15 -53 -25 -98 -22 -101 6 -7 7 -5 36 92 11 39 23 78 26
88 3 9 1 17 -4 17 -5 0 -22 -43 -36 -96z"/>
<path d="M1700 170 c0 -94 16 -120 75 -120 59 0 75 26 75 120 0 44 -4 80 -9
80 -5 0 -11 -36 -13 -80 -3 -87 -11 -100 -60 -100 -37 0 -48 25 -48 109 0 41
-4 71 -10 71 -6 0 -10 -33 -10 -80z"/>
<path d="M1900 150 c0 -102 16 -140 22 -52 l3 47 42 0 c23 0 45 3 49 8 4 4
-16 7 -44 7 l-52 0 0 35 0 35 55 0 c30 0 55 5 55 10 0 6 -28 10 -65 10 l-65 0
0 -100z"/>
<path d="M2086 234 c-35 -34 -9 -74 59 -90 54 -12 67 -31 39 -58 -23 -23 -70
-20 -88 5 -8 12 -20 19 -27 17 -26 -9 37 -58 74 -58 36 0 77 33 77 63 0 21
-35 45 -77 53 -37 7 -58 27 -49 49 8 21 84 21 92 0 7 -16 24 -21 24 -6 0 38
-93 56 -124 25z"/>
<path d="M923 205 c-6 -14 -7 -25 -2 -25 5 0 9 -22 9 -49 0 -27 3 -56 6 -65 7
-17 44 -22 44 -6 0 6 -7 10 -15 10 -12 0 -15 13 -15 55 0 46 3 55 18 55 16 1
16 1 0 11 -10 5 -18 17 -18 24 0 23 -14 17 -27 -10z"/>
<path d="M239 181 c-48 -38 -19 -131 41 -131 59 0 88 93 41 131 -29 24 -53 24
-82 0z m69 -13 c13 -13 16 -56 6 -82 -8 -21 -60 -21 -68 0 -17 45 0 94 34 94
9 0 21 -5 28 -12z"/>
<path d="M421 191 c-8 -5 -20 -7 -28 -4 -10 4 -13 -11 -13 -66 0 -41 4 -71 10
-71 6 0 10 24 10 53 0 55 12 77 42 77 18 0 19 -5 22 -85 2 -54 21 -43 22 14 2
54 14 74 44 68 11 -2 16 -19 18 -65 2 -34 7 -62 13 -62 6 0 9 27 7 66 -3 76
-21 99 -58 76 -15 -9 -26 -10 -40 -2 -23 12 -31 12 -49 1z"/>
<path d="M617 194 c-4 -4 -7 -49 -7 -101 0 -73 3 -93 14 -93 8 0 14 6 13 12
-1 39 3 45 28 40 49 -9 83 47 65 104 -12 37 -50 55 -73 35 -9 -7 -17 -7 -23
-1 -6 6 -13 7 -17 4z m88 -69 c0 -45 -2 -50 -23 -53 -36 -5 -51 14 -45 56 7
41 18 53 48 50 17 -3 20 -11 20 -53z"/>
<path d="M1015 180 c-18 -20 -8 -29 12 -9 16 16 67 7 71 -13 3 -14 -3 -18 -25
-18 -55 0 -94 -50 -60 -78 7 -6 34 -10 60 -9 l47 2 0 57 c0 64 -16 88 -59 88
-15 0 -36 -9 -46 -20z m85 -73 c0 -21 -22 -37 -52 -37 -20 0 -28 5 -28 18 0
26 9 32 47 32 20 0 33 -5 33 -13z"/>
<path d="M1175 175 c-14 -13 -25 -35 -25 -49 0 -22 42 -85 63 -94 13 -6 7 -20
-10 -25 -11 -3 -7 -5 10 -6 29 -1 36 16 15 37 -9 9 -8 12 4 12 18 0 44 27 35
37 -4 3 -13 0 -21 -6 -24 -20 -59 -9 -66 19 -16 63 28 103 71 64 17 -15 19
-15 19 -1 0 18 -29 37 -55 37 -9 0 -27 -11 -40 -25z"/>
<path d="M1314 186 c-10 -8 -16 -18 -12 -22 4 -4 14 -1 22 5 20 17 60 10 64
-10 2 -12 -8 -18 -37 -23 -42 -6 -61 -27 -54 -57 6 -23 27 -30 78 -25 l40 4 0
55 c0 31 -6 61 -14 71 -17 20 -61 21 -87 2z m77 -88 c-11 -31 -71 -39 -71 -10
0 26 8 32 46 32 30 0 33 -2 25 -22z"/>
<path d="M1472 177 c-62 -66 24 -171 88 -107 42 42 13 130 -43 130 -13 0 -33
-10 -45 -23z m80 -22 c18 -41 0 -80 -37 -80 -23 0 -32 6 -39 27 -14 39 6 78
39 78 18 0 29 -8 37 -25z"/>
<path d="M770 132 c0 -32 5 -63 12 -70 15 -15 55 -16 63 -2 5 8 11 7 21 -1 12
-10 14 0 14 60 0 81 -17 97 -22 20 -3 -55 -21 -78 -52 -66 -12 5 -16 20 -16
62 0 30 -4 55 -10 55 -6 0 -10 -26 -10 -58z"/>
</g>
</svg>
